<svg width="18" height="18" viewBox="0 0 18 18" fill="none" xmlns="http://www.w3.org/2000/svg">
<path fill-rule="evenodd" clip-rule="evenodd" d="M4.70589 2.04145C4.99879 1.74856 5.47366 1.74855 5.76655 2.04144L8.42371 4.69856C8.71661 4.99146 8.71661 5.46633 8.42372 5.75922C8.13083 6.05212 7.65596 6.05212 7.36306 5.75923L5.23623 3.63243L3.10943 5.75923C2.81654 6.05212 2.34166 6.05212 2.04877 5.75923C1.75588 5.46634 1.75588 4.99146 2.04877 4.69857L4.70589 2.04145Z" fill="white"/>
<path fill-rule="evenodd" clip-rule="evenodd" d="M5.23633 1.82178C5.65054 1.82178 5.98633 2.15756 5.98633 2.57178V15.4289C5.98633 15.8431 5.65054 16.1789 5.23633 16.1789C4.82211 16.1789 4.48633 15.8431 4.48633 15.4289V2.57178C4.48633 2.15756 4.82211 1.82178 5.23633 1.82178Z" fill="white"/>
<path fill-rule="evenodd" clip-rule="evenodd" d="M9.57709 12.2416C9.86998 11.9488 10.3449 11.9487 10.6377 12.2416L12.7646 14.3684L14.8914 12.2416C15.1843 11.9487 15.6591 11.9487 15.952 12.2416C16.2449 12.5345 16.2449 13.0094 15.952 13.3023L13.2949 15.9594C13.002 16.2523 12.5272 16.2523 12.2343 15.9594L9.5771 13.3023C9.2842 13.0094 9.2842 12.5345 9.57709 12.2416Z" fill="white"/>
<path fill-rule="evenodd" clip-rule="evenodd" d="M12.7646 1.82178C13.1789 1.82178 13.5146 2.15756 13.5146 2.57178V15.4289C13.5146 15.8431 13.1789 16.1789 12.7646 16.1789C12.3504 16.1789 12.0146 15.8431 12.0146 15.4289V2.57178C12.0146 2.15756 12.3504 1.82178 12.7646 1.82178Z" fill="white"/>
</svg>
