<svg width="138" height="45" viewBox="0 0 138 45" fill="none" xmlns="http://www.w3.org/2000/svg">
<path d="M16.1899 33.7142L6.38454 43.4213C6.01006 43.792 5.50441 44 4.97747 44H135C136.105 44 137 43.1046 137 42V39.2075C137 38.103 136.105 37.2075 135 37.2075H134.789C133.77 37.2075 132.914 36.4422 132.801 35.43L129.292 4.07267C129.067 2.06464 126.346 1.61851 125.491 3.44965L120.199 14.7949C119.598 16.0847 117.88 16.3511 116.916 15.3042L113.913 12.044C112.988 11.039 111.35 11.2371 110.69 12.4337L105.935 21.0663C105.275 22.2629 103.637 22.461 102.712 21.456L98.9656 17.388C98.248 16.6087 97.0472 16.5241 96.2275 17.1951L86.7917 24.9189C86.6193 25.06 86.4245 25.1714 86.2153 25.2483L82.8125 26.5L77.2836 28.3922C77.0751 28.4636 76.8563 28.5 76.636 28.5H63.6149C63.3131 28.5 63.0151 28.4317 62.7434 28.3001L57.3005 25.6649C56.6249 25.3378 55.8232 25.4165 55.2241 25.8686L49.3667 30.2893C48.6718 30.8137 47.7175 30.8284 47.0067 30.3255L43.1366 27.5872C42.3592 27.0372 41.3017 27.1116 40.609 27.7651L36.4814 31.659C35.8395 32.2647 34.8764 32.3779 34.1114 31.9377L22.9807 25.532C22.0003 24.9678 20.7475 25.3282 20.2169 26.3271L16.5491 33.2312C16.4544 33.4094 16.3333 33.5722 16.1899 33.7142Z" fill="url(#paint0_linear_250_20756)"/>
<path d="M1 44H4.97747C5.50441 44 6.01006 43.792 6.38454 43.4213L16.1512 33.7525C16.3199 33.5855 16.4575 33.3898 16.5576 33.1746L20.0429 25.6805C20.5508 24.5885 21.9017 24.1897 22.9212 24.8309L34.0892 31.8548C34.8609 32.3402 35.8632 32.2422 36.5264 31.6166L40.609 27.7651C41.3017 27.1116 42.3592 27.0372 43.1366 27.5872L47.0067 30.3255C47.7175 30.8284 48.6718 30.8137 49.3667 30.2893L55.2241 25.8686C55.8232 25.4165 56.6249 25.3378 57.3005 25.6649L62.7434 28.3001C63.0151 28.4317 63.3131 28.5 63.6149 28.5H70.0625H76.6268C76.8531 28.5 77.0778 28.4616 77.2912 28.3864L86.1747 25.2576C86.4103 25.1747 86.6283 25.0483 86.8174 24.8851L96.2047 16.7802C97.0286 16.0689 98.2699 16.147 98.9982 16.9559L103.04 21.446C103.983 22.4925 105.682 22.2637 106.314 21.0053L110.639 12.3927C111.331 11.0137 113.258 10.905 114.101 12.1974L116.51 15.89C117.392 17.2427 119.431 17.0457 120.038 15.5491L125.066 3.15535C125.842 1.24276 128.654 1.61603 128.905 3.66479L132.785 35.4499C132.908 36.4533 133.76 37.2075 134.771 37.2075H137" stroke="#03BC70" stroke-width="2" stroke-linecap="round" stroke-linejoin="round"/>
<defs>
<linearGradient id="paint0_linear_250_20756" x1="69.8" y1="-89.0189" x2="68.817" y2="43.9986" gradientUnits="userSpaceOnUse">
<stop stop-color="#45B36B"/>
<stop offset="1" stop-color="#45B36B" stop-opacity="0"/>
</linearGradient>
</defs>
</svg>
