<svg width="138" height="42" viewBox="0 0 138 42" fill="none" xmlns="http://www.w3.org/2000/svg">
<path d="M123.921 21.8297L131.679 39.7929C131.995 40.5256 132.717 41 133.515 41H3C1.89543 41 1 40.1046 1 39V36.2075C1 35.103 1.89543 34.2075 3 34.2075H3.68733C4.48428 34.2075 5.20517 33.7344 5.52223 33.0032L11.7883 18.5532C12.0465 17.9577 12.5776 17.5246 13.2128 17.3914L18.5883 16.2645C19.108 16.1556 19.563 15.8444 19.8531 15.3997L23.8989 9.19742C24.7419 7.90503 26.669 8.0137 27.3614 9.39268L32.5559 19.7382C32.8358 20.2956 33.3596 20.6905 33.9725 20.8061L40.3626 22.0118C40.7769 22.09 41.2053 22.0352 41.5867 21.8554L53.1551 16.3985C53.5722 16.2018 53.9084 15.867 54.107 15.4507L60.1427 2.79736C60.6168 1.80345 61.8051 1.37976 62.801 1.84955L68.2799 4.43391C68.7423 4.65204 69.1036 5.03898 69.2896 5.51523L74.2918 18.3239C74.4888 18.8284 74.882 19.2314 75.3814 19.4408L81.5687 22.0351C81.7223 22.0995 81.8672 22.1828 82.0002 22.2832L88.6333 27.2893C89.3282 27.8137 90.2825 27.8284 90.9933 27.3255L94.8634 24.5872C95.6408 24.0372 96.6983 24.1116 97.391 24.7651L101.474 28.6166C102.137 29.2422 103.139 29.3402 103.911 28.8548L116.512 20.9296C116.831 20.7291 117.2 20.6226 117.577 20.6226H122.085C122.883 20.6226 123.605 21.0971 123.921 21.8297Z" fill="url(#paint0_linear_250_20775)"/>
<path d="M137 41H133.515C132.717 41 131.995 40.5256 131.679 39.7929L123.921 21.8297C123.605 21.0971 122.883 20.6226 122.085 20.6226H117.577C117.2 20.6226 116.831 20.7291 116.512 20.9296L103.911 28.8548C103.139 29.3402 102.137 29.2422 101.474 28.6166L97.391 24.7651C96.6983 24.1116 95.6408 24.0372 94.8634 24.5872L90.9933 27.3255C90.2825 27.8284 89.3282 27.8137 88.6333 27.2893L82.0002 22.2832C81.8672 22.1828 81.7223 22.0995 81.5687 22.0351L75.3814 19.4408C74.882 19.2314 74.4888 18.8284 74.2918 18.3239L69.2896 5.51523C69.1036 5.03898 68.7423 4.65204 68.2799 4.43391L62.801 1.84955C61.8051 1.37976 60.6168 1.80345 60.1427 2.79736L54.107 15.4507C53.9085 15.867 53.5722 16.2018 53.1551 16.3985L41.5867 21.8554C41.2053 22.0352 40.7769 22.09 40.3626 22.0118L33.9725 20.8061C33.3596 20.6905 32.8358 20.2956 32.5559 19.7382L27.3614 9.39268C26.669 8.0137 24.7419 7.90503 23.8989 9.19742L19.8531 15.3997C19.563 15.8445 19.108 16.1556 18.5883 16.2645L13.2128 17.3914C12.5776 17.5246 12.0465 17.9577 11.7883 18.5532L5.52223 33.0032C5.20517 33.7344 4.48428 34.2075 3.68733 34.2075H0.999998" stroke="#F44336" stroke-width="2" stroke-linecap="round" stroke-linejoin="round"/>
<defs>
<linearGradient id="paint0_linear_250_20775" x1="68.2" y1="-72.2076" x2="68.912" y2="41.0006" gradientUnits="userSpaceOnUse">
<stop stop-color="#EF466F"/>
<stop offset="1" stop-color="#EF466F" stop-opacity="0"/>
</linearGradient>
</defs>
</svg>
