<svg width="138" height="42" viewBox="0 0 138 42" fill="none" xmlns="http://www.w3.org/2000/svg">
<path d="M1 41H4.90446C5.47423 41 6.01695 40.757 6.39641 40.332L14.1641 31.6312C14.242 31.5439 14.3122 31.4499 14.3737 31.3503L19.9404 22.3381C20.5242 21.3929 21.7664 21.1046 22.7068 21.6961L34.0892 28.8548C34.8609 29.3402 35.8632 29.2422 36.5264 28.6166L40.609 24.7651C41.3017 24.1116 42.3592 24.0372 43.1366 24.5872L47.3748 27.5859C47.8937 27.9531 48.5562 28.0517 49.1595 27.8516L56.25 25.5L62.8986 22.6119C63.0695 22.5377 63.2292 22.4399 63.3731 22.3214L70.3979 16.5363C71.1305 15.933 72.1863 15.9276 72.925 16.5236L78.6125 21.1118C78.926 21.3647 79.3086 21.517 79.7101 21.5489L87.0625 22.1321H96.0402C96.6469 22.1321 97.2209 21.8566 97.6005 21.3833L105.02 12.1308C105.09 12.0438 105.167 11.9627 105.25 11.8885L116.302 2.04605C117.383 1.08368 119.097 1.55198 119.537 2.93023L123.361 14.8806C123.582 15.5716 124.16 16.0887 124.871 16.2319L130.207 17.3059C131.083 17.4822 131.736 18.2182 131.806 19.109L132.854 32.3652C132.937 33.4054 133.805 34.2075 134.848 34.2075H137" stroke="#03BC70" stroke-width="2" stroke-linecap="round" stroke-linejoin="round"/>
<path d="M4.90446 41H1L134.993 41.4926C136.1 41.4967 137 40.6001 137 39.4926V36.2075C137 35.103 136.105 34.2075 135 34.2075H134.848C133.805 34.2075 132.937 33.4054 132.854 32.3652L131.806 19.109C131.736 18.2182 131.083 17.4822 130.207 17.3059L124.871 16.2319C124.16 16.0887 123.582 15.5716 123.361 14.8806L119.537 2.93023C119.097 1.55198 117.383 1.08368 116.302 2.04605L105.25 11.8885C105.167 11.9627 105.09 12.0438 105.02 12.1308L97.6005 21.3833C97.2209 21.8566 96.6469 22.1321 96.0402 22.1321H87.0625L79.7101 21.5489C79.3086 21.517 78.926 21.3647 78.6125 21.1118L72.925 16.5236C72.1863 15.9276 71.1305 15.933 70.3979 16.5363L63.3731 22.3214C63.2292 22.4399 63.0695 22.5377 62.8986 22.6119L56.25 25.5L49.1595 27.8516C48.5562 28.0517 47.8937 27.9531 47.3748 27.5859L43.1366 24.5872C42.3592 24.0372 41.3017 24.1116 40.609 24.7651L36.5264 28.6166C35.8632 29.2422 34.8609 29.3402 34.0892 28.8548L22.7068 21.6961C21.7664 21.1047 20.5242 21.3929 19.9404 22.3381L14.3737 31.3503C14.3122 31.4499 14.242 31.5439 14.1641 31.6312L6.39641 40.332C6.01695 40.757 5.47423 41 4.90446 41Z" fill="url(#paint0_linear_250_20711)"/>
<defs>
<linearGradient id="paint0_linear_250_20711" x1="69.8" y1="-75.0377" x2="69.0519" y2="41.0003" gradientUnits="userSpaceOnUse">
<stop stop-color="#45B36B"/>
<stop offset="1" stop-color="#45B36B" stop-opacity="0"/>
</linearGradient>
</defs>
</svg>
