<svg width="138" height="42" viewBox="0 0 138 42" fill="none" xmlns="http://www.w3.org/2000/svg">
<path d="M14.0787 21.8297L6.32128 39.7929C6.00488 40.5256 5.28322 41 4.48518 41H135C136.105 41 137 40.1046 137 39V36.2075C137 35.103 136.105 34.2075 135 34.2075H134.313C133.516 34.2075 132.795 33.7344 132.478 33.0032L126.212 18.5532C125.953 17.9577 125.422 17.5246 124.787 17.3914L119.412 16.2645C118.892 16.1556 118.437 15.8444 118.147 15.3997L114.101 9.19742C113.258 7.90503 111.331 8.0137 110.639 9.39268L105.444 19.7382C105.164 20.2956 104.64 20.6905 104.028 20.8061L97.6374 22.0118C97.2231 22.09 96.7947 22.0352 96.4133 21.8554L84.8449 16.3985C84.4278 16.2018 84.0916 15.867 83.893 15.4507L77.8573 2.79736C77.3832 1.80345 76.1949 1.37976 75.199 1.84955L69.7201 4.43391C69.2577 4.65204 68.8964 5.03898 68.7104 5.51523L63.7082 18.3239C63.5112 18.8284 63.118 19.2314 62.6186 19.4408L56.4313 22.0351C56.2777 22.0995 56.1328 22.1828 55.9998 22.2832L49.3667 27.2893C48.6718 27.8137 47.7175 27.8284 47.0067 27.3255L43.1366 24.5872C42.3592 24.0372 41.3017 24.1116 40.609 24.7651L36.5264 28.6166C35.8632 29.2422 34.8609 29.3402 34.0892 28.8548L21.4881 20.9296C21.1692 20.7291 20.8001 20.6226 20.4234 20.6226H15.9148C15.1168 20.6226 14.3951 21.0971 14.0787 21.8297Z" fill="url(#paint0_linear_250_20689)"/>
<path d="M1 41H4.48518C5.28322 41 6.00488 40.5256 6.32128 39.7929L14.0787 21.8297C14.3951 21.0971 15.1168 20.6226 15.9148 20.6226H20.4234C20.8001 20.6226 21.1692 20.7291 21.4881 20.9296L34.0892 28.8548C34.8609 29.3402 35.8632 29.2422 36.5264 28.6166L40.609 24.7651C41.3017 24.1116 42.3592 24.0372 43.1366 24.5872L47.0067 27.3255C47.7175 27.8284 48.6718 27.8137 49.3667 27.2893L55.9998 22.2832C56.1328 22.1828 56.2777 22.0995 56.4313 22.0351L62.6186 19.4408C63.118 19.2314 63.5112 18.8284 63.7082 18.3239L68.7104 5.51523C68.8964 5.03898 69.2577 4.65204 69.7201 4.43391L75.199 1.84955C76.1949 1.37976 77.3832 1.80345 77.8573 2.79736L83.893 15.4507C84.0915 15.867 84.4278 16.2018 84.8449 16.3985L96.4133 21.8554C96.7947 22.0352 97.2231 22.09 97.6374 22.0118L104.028 20.8061C104.64 20.6905 105.164 20.2956 105.444 19.7382L110.639 9.39268C111.331 8.0137 113.258 7.90503 114.101 9.19742L118.147 15.3997C118.437 15.8445 118.892 16.1556 119.412 16.2645L124.787 17.3914C125.422 17.5246 125.953 17.9577 126.212 18.5532L132.478 33.0032C132.795 33.7344 133.516 34.2075 134.313 34.2075H137" stroke="#03BC70" stroke-width="2" stroke-linecap="round" stroke-linejoin="round"/>
<defs>
<linearGradient id="paint0_linear_250_20689" x1="69.8" y1="-72.2076" x2="69.088" y2="41.0006" gradientUnits="userSpaceOnUse">
<stop stop-color="#45B36B"/>
<stop offset="1" stop-color="#45B36B" stop-opacity="0"/>
</linearGradient>
</defs>
</svg>
