<svg width="138" height="41" viewBox="0 0 138 41" fill="none" xmlns="http://www.w3.org/2000/svg">
<path d="M137 40H133.096C132.526 40 131.983 39.757 131.604 39.332L124.071 30.8951C123.84 30.6362 123.546 30.4418 123.217 30.3313L116.64 28.1205C116.403 28.0409 116.153 28.0064 115.903 28.0188L104.136 28.603C103.23 28.648 102.408 28.0783 102.132 27.2148L98.3261 15.3179C97.7541 13.5298 95.2561 13.4439 94.5626 15.1885L90.497 25.4162C90.1057 26.4008 89.0145 26.9093 88.0089 26.5758L81.75 24.5L75.1014 21.6119C74.9305 21.5377 74.7708 21.4399 74.6269 21.3214L67.6021 15.5363C66.8695 14.933 65.8137 14.9276 65.075 15.5236L59.3875 20.1118C59.074 20.3647 58.6914 20.517 58.2899 20.5489L51.0507 21.1231C50.9766 21.129 50.9053 21.1544 50.8442 21.1967V21.1967C50.6206 21.3515 50.3112 21.2572 50.2121 21.004L47.1275 13.1241C46.8569 12.4328 46.2256 11.9482 45.4878 11.8656L25.0013 9.57017C24.5936 9.5245 24.1818 9.60527 23.8216 9.80153L14.547 14.8552C14.3708 14.9512 14.1813 15.0201 13.9846 15.0597L7.79269 16.3059C6.9167 16.4822 6.26393 17.2182 6.19352 18.109L5.14563 31.3652C5.06341 32.4054 4.1953 33.2075 3.15185 33.2075H1" stroke="#F44336" stroke-width="2" stroke-linecap="round" stroke-linejoin="round"/>
<path d="M133.096 40H137L3.00735 40.4926C1.89992 40.4967 1 39.6001 1 38.4926V35.2075C1 34.103 1.89543 33.2075 3 33.2075H3.15186C4.1953 33.2075 5.0634 32.4054 5.14563 31.3652L6.19351 18.109C6.26393 17.2182 6.9167 16.4822 7.79269 16.3059L13.9846 15.0597C14.1813 15.0201 14.3708 14.9512 14.547 14.8552L23.8216 9.80153C24.1818 9.60527 24.5936 9.5245 25.0013 9.57017L45.5669 11.8744C46.2625 11.9524 46.8667 12.3883 47.1601 13.0238L48.8125 16.6038L50.3492 19.8785C50.7031 20.6326 51.4875 21.0885 52.3179 21.0226L58.2899 20.5489C58.6914 20.517 59.074 20.3647 59.3875 20.1118L65.075 15.5236C65.8137 14.9276 66.8695 14.933 67.6021 15.5363L74.6269 21.3214C74.7708 21.4399 74.9305 21.5377 75.1014 21.6119L81.75 24.5L87.9913 26.57C89.0041 26.9058 90.1021 26.3876 90.4866 25.3923L94.557 14.854C95.2397 13.0866 97.7686 13.1708 98.3321 14.9798L102.11 27.1054C102.394 28.0194 103.287 28.6035 104.238 28.4985L115.741 27.2294C116.095 27.1904 116.453 27.2465 116.777 27.392L123.329 30.3254C123.586 30.4405 123.816 30.6086 124.003 30.8188L131.604 39.332C131.983 39.757 132.526 40 133.096 40Z" fill="url(#paint0_linear_250_20735)"/>
<defs>
<linearGradient id="paint0_linear_250_20735" x1="68.2" y1="-47.2359" x2="68.6277" y2="40.5018" gradientUnits="userSpaceOnUse">
<stop stop-color="#EF466F"/>
<stop offset="1" stop-color="#EF466F" stop-opacity="0"/>
</linearGradient>
</defs>
</svg>
