<svg width="40" height="40" viewBox="0 0 40 40" fill="none" xmlns="http://www.w3.org/2000/svg">
<circle cx="20" cy="20" r="20" fill="#F7931A" fill-opacity="0.3"/>
<path d="M35.5221 23.8705C33.3852 32.442 24.7036 37.6584 16.1311 35.521C7.56217 33.3841 2.34572 24.702 4.48357 16.1312C6.61955 7.5587 15.3011 2.34186 23.871 4.47877C32.4429 6.61569 37.659 15.2987 35.5219 23.8706L35.522 23.8705H35.5221Z" fill="#F7931A"/>
<path fill-rule="evenodd" clip-rule="evenodd" d="M27.5349 18.0129C27.8533 15.8837 26.2323 14.7391 24.0156 13.9756L24.7347 11.0913L22.9789 10.6538L22.2789 13.4622C21.8173 13.347 21.3433 13.2386 20.8722 13.131L21.5773 10.3042L19.8227 9.8667L19.1032 12.75C18.7212 12.6631 18.3461 12.5771 17.9821 12.4865L17.9841 12.4775L15.5629 11.8729L15.0959 13.7481C15.0959 13.7481 16.3985 14.0467 16.371 14.0651C17.082 14.2425 17.2106 14.7132 17.1892 15.0862L16.3701 18.3721C16.4191 18.3845 16.4826 18.4025 16.5526 18.4306L16.5017 18.4179C16.4583 18.4071 16.4133 18.3958 16.367 18.3847L15.2189 22.9877C15.132 23.2037 14.9115 23.5279 14.4144 23.4048C14.432 23.4303 13.1383 23.0863 13.1383 23.0863L12.2666 25.0961L14.5514 25.6657C14.8016 25.7284 15.0489 25.7929 15.2936 25.8567C15.4646 25.9013 15.6344 25.9455 15.8032 25.9887L15.0766 28.906L16.8303 29.3435L17.5498 26.4571C18.0289 26.5872 18.4939 26.7071 18.949 26.8202L18.232 29.693L19.9878 30.1305L20.7142 27.2186C23.7081 27.7852 25.9593 27.5568 26.9069 24.8488C27.6704 22.6686 26.8689 21.411 25.2938 20.5909C26.441 20.3264 27.3051 19.5718 27.5355 18.0132L27.5349 18.0128L27.5349 18.0129ZM23.5234 23.638C23.0256 25.6383 19.8946 24.8113 18.462 24.433C18.3332 24.3989 18.218 24.3685 18.1198 24.3441L19.0839 20.4792C19.2036 20.5091 19.3499 20.5419 19.5156 20.5791L19.5157 20.5791C20.9975 20.9116 24.0335 21.593 23.5235 23.638H23.5234ZM19.8129 18.7853C21.0072 19.104 23.6126 19.7994 24.0664 17.9813H24.0666C24.5299 16.122 21.9979 15.5614 20.7612 15.2876C20.6221 15.2568 20.4994 15.2296 20.3991 15.2046L19.525 18.7099C19.6076 18.7305 19.7044 18.7563 19.8129 18.7853Z" fill="white"/>
</svg>
