<svg width="40" height="40" viewBox="0 0 40 40" fill="none" xmlns="http://www.w3.org/2000/svg">
<circle cx="20" cy="20" r="20" fill="#23292F" fill-opacity="0.3"/>
<path d="M35.5177 23.8705C33.3808 32.442 24.6992 37.6584 16.1267 35.521C7.55778 33.3841 2.34132 24.702 4.47918 16.1312C6.61515 7.5587 15.2967 2.34186 23.8666 4.47877C32.4385 6.61569 37.6546 15.2987 35.5175 23.8706L35.5176 23.8705H35.5177Z" fill="#011E26"/>
<path d="M27.8673 10.6665H31.096L24.3767 17.3195C21.9433 19.7276 17.9981 19.7276 15.563 17.3195L8.84106 10.6665H12.0725L17.1774 15.7204C18.7251 17.2458 21.2107 17.2458 22.7584 15.7204L27.8673 10.6665Z" fill="white"/>
<path d="M12.031 29.1666H8.80005L15.563 22.4725C17.9964 20.0645 21.9416 20.0645 24.3767 22.4725L31.1397 29.1666H27.9109L22.7623 24.0717C21.2147 22.5463 18.729 22.5463 17.1813 24.0717L12.031 29.1666Z" fill="white"/>
</svg>
