<svg width="40" height="40" viewBox="0 0 40 40" fill="none" xmlns="http://www.w3.org/2000/svg">
<circle cx="20" cy="20" r="20" fill="#8DC351" fill-opacity="0.3"/>
<circle cx="20" cy="20" r="16" fill="#8DC351"/>
<path fill-rule="evenodd" clip-rule="evenodd" d="M25.2138 14.6109C24.413 12.6209 22.511 12.5214 20.2086 12.9194L19.4077 10.1333L17.706 10.6308L18.5068 13.3174C18.3446 13.3577 18.1659 13.4143 17.9775 13.4741L17.9775 13.4741C17.7008 13.5618 17.4031 13.6562 17.1053 13.7154L16.3045 10.9293L14.6027 11.4268L15.4036 14.2129C15.2033 14.2627 15.0282 14.3124 14.853 14.3622C14.6778 14.4119 14.5026 14.4617 14.3024 14.5114L12 15.3074L12.5005 17.0985C12.5005 17.0985 13.8019 16.7005 13.7018 16.7005C14.4025 16.5015 14.7028 16.8 14.903 17.198L15.804 20.3821H16.0042L15.804 20.4816L17.1053 24.9592C17.1053 25.1582 17.1053 25.5562 16.6048 25.7552L15.4036 26.1532L15.6038 28.2428L17.8061 27.6457L19.0073 27.3472L19.8082 30.1333L21.5099 29.6358L20.7091 26.8497C21.2096 26.7502 21.61 26.6507 22.1106 26.4517L22.9114 29.2378L24.6132 28.7403L23.8123 25.9542C26.6153 24.9592 28.4172 23.6656 27.9166 20.8796C27.5162 18.6905 26.2149 17.994 24.413 18.0935C25.414 17.0985 25.8144 16.1035 25.2138 14.6109ZM24.6132 21.3771C25.1426 23.2191 22.3272 24.0559 20.8297 24.501L20.8297 24.501C20.6284 24.5608 20.451 24.6135 20.3087 24.6607L19.2075 20.8796C19.3654 20.8403 19.5631 20.7822 19.7889 20.7158L19.7889 20.7158C21.2813 20.2768 24.0045 19.4757 24.6132 21.3771ZM18.9861 19.1079C20.183 18.7699 22.763 18.0411 22.2107 16.3025C21.7579 14.5022 19.2571 15.3077 18.0431 15.6987C17.9151 15.7399 17.8015 15.7765 17.706 15.805L18.707 19.188C18.7875 19.1641 18.8815 19.1375 18.9861 19.1079Z" fill="white"/>
</svg>
