<svg width="24" height="24" viewBox="0 0 24 24" fill="none" xmlns="http://www.w3.org/2000/svg">
<path opacity="0.2" d="M12 0C18.628 0 24 5.37305 24 12C24 18.628 18.628 24 12 24C5.37305 24 0 18.6275 0 12C0 5.37305 5.37305 0 12 0Z" fill="#F5AC37"/>
<path fill-rule="evenodd" clip-rule="evenodd" d="M6.28505 18.6152V18.66L6.28289 18.6616V18.6692H11.488C12.0772 18.6773 12.6641 18.6303 13.243 18.5266C13.8527 18.4073 14.4467 18.2193 15.0132 17.9645C15.2588 17.8507 15.4944 17.7132 15.7322 17.5745C15.7924 17.5394 15.8527 17.5042 15.9134 17.4693C16.1931 17.27 16.4609 17.054 16.7158 16.8245C17.4135 16.1938 17.9535 15.407 18.291 14.5295C18.3137 14.4312 18.4098 14.368 18.5086 14.3869H19.9261C20.039 14.3869 20.0763 14.3491 20.0763 14.2217V13.3139C20.0838 13.227 20.0838 13.139 20.0763 13.052C20.0763 13.0293 20.0821 13.0066 20.0879 12.984C20.0996 12.9389 20.1111 12.8939 20.0763 12.849H18.892C18.7489 12.849 18.7489 12.8339 18.7489 12.7064C18.79 12.2496 18.79 11.7911 18.7489 11.3343C18.7414 11.1993 18.7716 11.1993 18.8764 11.1993H19.9116C20.032 11.1993 20.0768 11.169 20.0768 11.0491V9.81902C20.0731 9.73753 20.0712 9.69623 20.0496 9.67529C20.0273 9.65378 19.9843 9.65378 19.897 9.65378H18.5545C18.4498 9.6716 18.3493 9.60085 18.3304 9.49609C18.1765 9.09379 17.9805 8.70877 17.7445 8.34858C17.5069 7.99326 17.2391 7.65953 16.9421 7.35119C16.5473 6.95699 16.104 6.61462 15.6223 6.33112C14.896 5.90938 14.1016 5.61399 13.2749 5.46117C12.8737 5.38719 12.4681 5.34237 12.0599 5.32617H6.43518C6.28505 5.32617 6.28505 5.35641 6.28505 5.47629V9.51877C6.28505 9.66133 6.25481 9.66133 6.14249 9.66133H4.53004C4.41016 9.66133 4.41016 9.68348 4.41016 9.7661V11.0859C4.41016 11.2058 4.44742 11.2058 4.5376 11.2058H6.16517C6.28505 11.2058 6.28505 11.2279 6.28505 11.3181V12.728C6.28505 12.8555 6.24725 12.8555 6.15005 12.8555H4.41016V14.2805C4.41016 14.4004 4.44742 14.4004 4.5376 14.4004H6.16517C6.28505 14.4004 6.28505 14.415 6.28505 14.5127V16.2753V16.8677V18.6152ZM16.6429 9.53281C16.6559 9.5663 16.6559 9.60356 16.6429 9.63758H16.6791C16.664 9.6824 16.5889 9.69752 16.5889 9.69752H7.93423C7.79167 9.69752 7.79167 9.66728 7.79167 9.55495V6.89273C7.79167 6.79499 7.80679 6.75017 7.91911 6.75017H11.9465C12.3752 6.74639 12.8029 6.79121 13.2214 6.88517C14.0509 7.08173 14.8225 7.47269 15.4716 8.02512C15.6012 8.12178 15.7168 8.23572 15.8167 8.36262C16.0284 8.57269 16.2141 8.80651 16.3718 9.06031C16.4766 9.20881 16.5668 9.36703 16.6429 9.53281ZM17.002 12.8474H12.4422H7.97203C7.88083 12.8474 7.83589 12.8474 7.81374 12.8249C7.79221 12.8031 7.79221 12.76 7.79221 12.6751V11.3402C7.79221 11.2349 7.82245 11.1977 7.93477 11.1977H17.0096C17.1073 11.1977 17.1521 11.2349 17.1521 11.3251C17.1894 11.7895 17.1894 12.2561 17.1521 12.7199C17.1451 12.8474 17.0992 12.8474 17.002 12.8474ZM16.6429 14.4074C16.5155 14.3934 16.3869 14.3934 16.2595 14.4074H7.94233C7.83001 14.4074 7.79221 14.4074 7.79221 14.5576V17.1604C7.79221 17.2803 7.79221 17.3105 7.94233 17.3105H11.7823C11.9659 17.3245 12.1495 17.3116 12.3293 17.2732C12.8866 17.2333 13.4347 17.1123 13.9575 16.9131C14.1475 16.8472 14.3311 16.7613 14.5045 16.6582H14.5569C15.4571 16.19 16.1882 15.4545 16.6494 14.5516C16.6494 14.5516 16.7018 14.4382 16.6429 14.4085V14.4074Z" fill="#F5AC37"/>
</svg>
