<svg width="34" height="34" viewBox="0 0 34 34" fill="none" xmlns="http://www.w3.org/2000/svg">
<circle cx="17" cy="17" r="17" fill="#EDF0F4" fill-opacity="0.3"/>
<circle cx="17" cy="17" r="14" fill="#EDF0F4"/>
<path d="M12.2055 17.9763L12.6839 14.3819L8.53442 11.5013L12.3258 12.7855L13.2212 11.4118L16.4906 9.38306L23.6973 13.3535L24.0708 19.4115L20.8601 23.8731L18.3223 24.2619L19.6347 21.8597V19.547L18.6805 17.7409L17.7109 17.0988L16.2195 18.6363V20.2634L15.0554 21.3532L13.5768 21.5323L12.9218 21.9032L11.8474 21.5604L11.3997 19.9487L12.2055 18.8154V17.9763Z" fill="white"/>
<path d="M18.8313 11.4707C18.0408 11.307 17.1761 11.3504 17.1761 11.3504C17.1761 11.3504 16.8922 12.6628 15.1321 13.0082C15.1449 13.0082 17.4575 13.7987 18.8313 11.4707Z" fill="#94A6C3"/>
<path d="M19.5478 23.3793C20.502 22.6323 21.2183 21.6039 21.5483 20.4399C21.5637 20.3964 21.6967 20.3196 21.7862 20.2608C21.9346 20.1712 22.0856 20.097 22.1137 19.9768C22.1725 19.634 22.2032 19.2758 22.2032 18.9177C22.2032 18.7847 22.0677 18.6491 21.9346 18.516C21.8297 18.4265 21.7248 18.3216 21.7248 18.2474C21.5765 16.889 20.9497 15.6201 19.9494 14.6965L19.8445 14.8014C20.8141 15.7122 21.4409 16.9504 21.5765 18.2628C21.5918 18.383 21.7095 18.5007 21.8297 18.6209C21.9346 18.7105 22.0549 18.8461 22.0549 18.9049C22.0549 19.2477 22.0242 19.5905 21.9653 19.9333C21.95 19.9922 21.8169 20.0536 21.7121 20.1124C21.5637 20.1866 21.4281 20.2608 21.3999 20.381C21.0418 21.6499 20.2206 22.7551 19.1308 23.4714C19.3252 23.0544 19.9366 21.696 20.2641 21.0078L20.2052 18.8L18.3096 16.9657L17.2351 17.1141L16.0557 19.0251C16.0557 19.0251 16.6083 19.7261 15.8306 20.5473C15.0708 21.3532 14.4722 21.5322 14.4722 21.5322L13.9196 21.2329C14.0833 21.0231 14.4133 20.711 14.6666 20.5013C15.0989 20.1431 15.5313 20.1124 15.5313 19.7261C15.5492 18.9177 14.6819 19.1403 14.6819 19.1403L14.3673 19.4396L14.2342 20.5447L13.5793 21.3659L13.5051 21.3506L12.4307 21.1127C12.4307 21.1127 13.0881 20.7699 13.193 20.381C13.2979 20.0075 12.9832 18.7693 12.9679 18.6951C12.9832 18.7105 13.2826 18.9637 13.4156 19.3807C13.6535 18.7233 13.9682 18.0965 14.0577 18.0376C14.1473 17.9788 15.3548 17.3367 15.3548 17.3367L14.9531 18.3958L15.2524 18.2321L15.9687 16.472C15.9687 16.472 16.6697 16.1292 17.1916 16.1292C18.1305 16.1138 19.5196 14.9652 18.8928 12.9058C19.0719 12.98 22.1751 14.5328 22.7123 17.5772C23.114 19.918 21.7862 22.1104 19.5478 23.3793Z" fill="#94A6C3"/>
<path d="M15.9968 11.7981C16.3396 11.3939 16.2066 10.7979 16.2066 10.7979L15.2063 12.2765C15.1909 12.2765 15.5619 12.2919 15.9968 11.7981Z" fill="#1B314F"/>
<path d="M12.6378 19.872L12.758 19.2759C12.758 19.2759 12.2643 20.1406 12.2208 20.2608C12.1747 20.3964 12.2515 20.6343 12.4433 20.619C12.6378 20.6036 12.8757 20.3197 12.8757 20.1124C12.8757 19.8438 12.6378 19.872 12.6378 19.872Z" fill="#1B314F"/>
<path fill-rule="evenodd" clip-rule="evenodd" d="M21.5022 10.3809C21.5022 10.3809 22.2492 10.4116 23.0243 10.5011C21.277 9.12736 19.6218 8.72571 18.2787 8.72571C16.4862 8.72571 15.2535 9.44174 15.1093 9.52553L15.0988 9.53157L15.6821 8.60547C15.6821 8.60547 13.3541 8.38035 12.5329 10.844C12.3231 10.3221 12.1312 9.55971 12.1312 9.55971C12.1312 9.55971 10.9212 10.6214 11.4891 12.3815C10.1 11.8749 8.11732 11.1714 8.04057 11.1586C7.93568 11.1433 7.90498 11.1893 7.90498 11.1893C7.90498 11.1893 7.87428 11.2328 7.96382 11.3096C8.13011 11.44 11.264 13.7553 11.9522 14.203C11.8038 14.7402 11.8038 14.9935 11.9522 15.2467C12.1619 15.5895 12.1747 15.7686 12.1466 16.0219C12.1159 16.2752 11.8473 18.4701 11.7884 18.7388C11.7645 18.8478 11.6471 19.0698 11.5178 19.3141C11.3287 19.6716 11.1142 20.0769 11.131 20.2456C11.1617 20.5295 11.548 21.737 11.8933 21.8726C12.1466 21.9622 12.7734 22.1566 13.1904 22.1566C13.3387 22.1566 13.4743 22.1259 13.5332 22.0671C13.7864 21.8445 13.8606 21.7984 14.0397 21.7984H14.0832C14.1171 21.7984 14.1542 21.8017 14.1945 21.8051C14.2424 21.8093 14.2948 21.8138 14.3518 21.8138C14.5897 21.8138 14.9044 21.7677 15.127 21.5605C15.2807 21.4068 15.4873 21.2267 15.6819 21.057L15.6819 21.057C15.9019 20.8652 16.1064 20.6869 16.2014 20.5756C16.4266 20.2916 16.5442 19.9053 16.4854 19.5165C16.4394 19.1583 16.6338 18.8437 16.8589 18.5315C17.1429 18.158 17.6648 17.4878 17.6648 17.4878C18.6957 18.2604 19.3379 19.4397 19.3379 20.7521C19.3379 23.0801 17.3092 24.9605 14.8021 24.9605C14.4132 24.9605 14.0423 24.917 13.6688 24.8274C14.8174 25.2291 15.787 25.3647 16.5801 25.3647C18.266 25.3647 19.1614 24.7532 19.1614 24.7532C19.1614 24.7532 18.8492 25.1574 18.3401 25.6179H18.3555C21.1466 25.2291 22.505 22.9318 22.505 22.9318C22.505 22.9318 22.4001 23.6788 22.2671 24.1853C25.8916 21.46 25.3795 18.0665 25.339 17.7984L25.337 17.7845C25.3518 17.8054 25.4458 17.9198 25.5608 18.0596L25.5615 18.0605L25.5616 18.0607L25.5617 18.0609L25.5621 18.0613L25.5624 18.0616C25.6862 18.2122 25.8339 18.3919 25.9331 18.5162C26.5317 12.3661 21.5022 10.3809 21.5022 10.3809ZM15.787 20.2021C15.7392 20.2622 15.5636 20.4217 15.4034 20.5671L15.4033 20.5673C15.366 20.6011 15.3296 20.6342 15.2958 20.6651C15.2373 20.7185 15.1773 20.7719 15.1177 20.8249L15.1177 20.8249L15.1177 20.8249L15.1176 20.825L15.1176 20.825L15.1175 20.8251C14.9946 20.9344 14.8738 21.0419 14.7739 21.1435C14.715 21.2023 14.5948 21.233 14.4157 21.233H14.252H14.1625H14.1036H13.968C14.1932 20.9337 14.8481 20.2481 15.0732 20.0997C15.3418 19.9206 15.4774 19.7416 15.3111 19.4295C15.1474 19.1148 14.715 19.1915 14.715 19.1915C14.715 19.1915 14.9683 19.0866 15.1934 19.0866C14.9095 19.0125 14.5513 19.0866 14.3876 19.2504C14.2683 19.3595 14.2421 19.6548 14.2159 19.9495C14.2029 20.0971 14.1898 20.2445 14.165 20.3683C14.0983 20.7178 13.887 20.9103 13.5626 21.2057C13.526 21.2389 13.4881 21.2735 13.4487 21.3098C13.2389 21.5042 13.0905 21.563 12.9703 21.563C12.717 21.5196 12.4177 21.4428 12.2079 21.3686C12.0596 21.1742 11.8344 20.5321 11.7756 20.2634C11.8072 20.1556 11.9104 19.9601 11.9988 19.7925L11.9988 19.7925L11.9988 19.7924C12.0321 19.7294 12.0632 19.6703 12.0877 19.6213L12.1134 19.5722C12.2768 19.2596 12.3732 19.0754 12.4024 18.905C12.4612 18.6517 12.6556 17.0835 12.7298 16.4286C12.9243 16.6819 13.1929 17.1014 13.1315 17.3701C13.5638 16.7586 13.2517 16.16 13.1008 15.9221C12.9677 15.6842 12.7887 15.2058 12.937 14.6992C13.0854 14.1927 13.6227 12.7882 13.6227 12.7882C13.6227 12.7882 13.8017 13.1029 14.055 13.0415C14.3083 12.9826 16.3523 9.90759 16.3523 9.90759C16.3523 9.90759 16.9049 11.1151 16.3216 11.9977C15.7256 12.8777 15.1423 13.0415 15.1423 13.0415C15.1423 13.0415 15.9635 13.1898 16.7233 12.6373C17.0354 13.3689 17.3347 14.1287 17.3501 14.2336C17.3394 14.258 17.299 14.354 17.2426 14.4881L17.2426 14.4881C17.0561 14.9315 16.6943 15.7919 16.6491 15.8607C16.6184 15.8914 16.4112 15.9502 16.2602 15.9809C16.007 16.0551 15.8586 16.1012 15.7972 16.1446C15.6923 16.2342 15.2139 17.5466 14.9913 18.1887C14.7227 18.2629 14.4541 18.4138 14.2597 18.7106C14.3646 18.6364 14.692 18.5903 14.9325 18.5622C15.1423 18.5469 15.7818 18.8897 15.9481 19.5318V19.5625C15.9814 19.7978 15.9072 20.023 15.787 20.2021ZM14.5133 19.8494C14.505 19.994 14.4916 20.2285 14.3852 20.3812C14.4133 20.3505 14.6231 20.1253 14.7305 20.023C14.7774 19.9802 14.8303 19.9466 14.8809 19.9145C14.9904 19.8449 15.0887 19.7825 15.0887 19.6495C15.0887 19.4423 14.8047 19.3962 14.6845 19.4269C14.5646 19.455 14.5362 19.6485 14.5209 19.7535L14.5207 19.7544C14.5174 19.7769 14.5156 19.8098 14.5133 19.8494V19.8494ZM20.3381 17.5287C20.4865 16.7689 20.5018 16.1115 20.4583 15.5742C21.0391 16.3494 21.3972 17.2908 21.5021 18.2604C21.5175 18.3806 21.6351 18.4983 21.7554 18.6186C21.8603 18.7081 21.9805 18.8283 21.9805 18.9025C21.9805 19.2453 21.9498 19.5881 21.891 19.9335C21.8756 19.977 21.7426 20.0537 21.6377 20.1126C21.4893 20.1868 21.3537 20.261 21.3256 20.3812C20.9981 21.5299 20.2946 22.5455 19.3557 23.2618C20.7423 21.8138 21.4126 19.4244 20.3381 17.5287ZM21.4435 20.4247C21.116 21.604 20.369 22.6478 19.3994 23.3948C21.4588 22.4099 22.8761 20.3045 22.8761 17.8869C22.8761 14.7402 20.4867 12.1436 17.427 11.8136C17.3247 11.9773 17.2198 12.1257 17.1149 12.2459L17.1164 12.2498C17.3402 12.8052 17.9207 14.2466 17.9207 14.3207C17.9207 14.4102 17.6368 15.1393 17.6061 15.17C17.5779 15.1854 17.2351 15.2161 17.0995 15.2161C16.9512 15.5742 16.8028 15.917 16.7721 15.9631C16.726 16.0219 16.593 16.068 16.309 16.1422C16.2851 16.149 16.2594 16.1563 16.233 16.1638C16.0924 16.2036 15.9307 16.2493 15.9048 16.2752C15.8306 16.3647 15.4264 17.4238 15.1578 18.1709C15.516 18.1095 15.8306 18.1836 15.9048 18.2143C16.4881 17.1092 16.9486 16.5131 17.0688 16.5131C17.0811 16.5118 17.1068 16.5128 17.1438 16.5142C17.4691 16.5266 18.6627 16.5722 19.1589 15.3798C19.6881 14.0872 18.9441 12.9832 18.8922 12.9062C18.8914 12.905 18.8908 12.9041 18.8903 12.9034C18.8908 12.9036 18.8916 12.904 18.8927 12.9045C18.9588 12.9367 20.118 13.4999 20.4125 15.2621C21.0828 16.114 21.5151 17.1424 21.6353 18.2323C21.6353 18.2873 21.7016 18.3593 21.7661 18.4294C21.7885 18.4537 21.8107 18.4778 21.8298 18.5009C21.9628 18.6339 22.0984 18.7695 22.0984 18.9025C22.0984 19.2607 22.0677 19.6188 22.0089 19.9616C21.9807 20.0819 21.8298 20.1714 21.6814 20.2456C21.6644 20.2568 21.6458 20.2686 21.6267 20.2807C21.5455 20.3324 21.4559 20.3895 21.4435 20.4247Z" fill="#1B314F"/>
<path d="M15.4289 15.3362C15.7128 15.0087 15.5645 14.3973 15.04 14.2924C15.1756 13.9803 15.3675 13.3535 15.3675 13.3535C15.3675 13.3535 13.8453 15.7404 13.7123 15.7864C13.5767 15.8325 13.4436 15.308 13.4436 15.308C13.1597 16.3979 13.922 16.5462 14.0116 16.2034C14.4286 16.096 15.1449 15.6483 15.4289 15.3362Z" fill="#1B314F"/>
<path d="M14.1292 15.9169L14.9043 14.5891C14.9043 14.5891 15.352 14.8142 15.1269 15.1724C14.8455 15.5894 14.1292 15.9169 14.1292 15.9169Z" fill="#FFD923"/>
<path d="M23.7253 22.0671C23.5002 22.3664 23.247 22.6785 22.9502 22.9778C24.874 19.276 23.0397 15.8889 22.9655 15.7559C23.1011 15.8914 23.2342 16.0398 23.3544 16.1729C24.8305 17.8127 25.0096 20.2763 23.7253 22.0671Z" fill="#D82122"/>
<path d="M25.5162 17.306C24.8434 15.4998 23.8892 13.9623 21.7863 12.5757C19.7576 11.2326 17.5779 11.3375 17.4577 11.3529C17.4424 11.3529 17.427 11.3529 17.427 11.3529C17.5012 11.3222 17.5754 11.3068 17.6496 11.294C18.1126 11.1457 18.7087 11.0254 19.3073 10.9512C20.8909 10.7236 22.4872 11.2608 23.5771 12.412C23.5924 12.4274 23.5924 12.4274 23.6078 12.4427C24.846 13.7551 25.4881 15.3949 25.5162 17.306Z" fill="#D82122"/>
<path d="M21.3077 9.91776C19.0845 9.50077 17.6519 9.70799 16.6209 10.0968C16.5902 9.9766 16.4853 9.73868 16.3958 9.54426C16.0863 9.91776 15.7562 10.3655 15.549 10.6494C14.9811 11.0383 14.7432 11.4118 14.7432 11.4118C15.0706 10.2913 16.0274 9.45728 17.1914 9.2475C17.5189 9.18866 17.877 9.15796 18.2659 9.15796C19.2943 9.17331 20.3227 9.42658 21.3077 9.91776Z" fill="#D82122"/>
<path d="M13.0855 12.783C11.3407 12.7241 11.9215 10.6929 11.9522 10.5752C11.9522 10.5905 12.0698 12.1716 13.0855 12.783Z" fill="#D82122"/>
<path d="M14.8024 9.1272C13.4593 9.93305 13.7279 11.8569 13.7279 11.8569C12.4437 9.90491 14.6975 9.17325 14.8024 9.1272Z" fill="#D82122"/>
<path d="M12.5945 13.3203C12.6841 13.3945 12.7736 13.53 12.6687 13.7245C12.6099 13.8294 12.5203 13.814 12.3848 13.7552C12.2057 13.6656 11.1312 13.0389 10.1616 12.3967C11.2668 12.7856 12.3848 13.2026 12.5638 13.2921C12.5638 13.2921 12.5792 13.3075 12.5945 13.3203Z" fill="white"/>
</svg>
