<svg width="34" height="34" viewBox="0 0 34 34" fill="none" xmlns="http://www.w3.org/2000/svg">
<circle cx="17" cy="17" r="17" fill="#EDF0F4" fill-opacity="0.2"/>
<circle cx="17" cy="17" r="14" fill="#EDF0F4"/>
<path d="M21.2008 14.1882C20.9023 14.0165 20.5184 14.0165 20.1773 14.1882L17.7891 15.6048L16.1686 16.5063L13.8231 17.9229C13.5245 18.0946 13.1407 18.0946 12.7996 17.9229L10.9658 16.8068C10.6673 16.635 10.454 16.2916 10.454 15.9053V13.7589C10.454 13.4155 10.6246 13.072 10.9658 12.8574L12.7996 11.7842C13.0981 11.6125 13.4819 11.6125 13.8231 11.7842L15.6568 12.9003C15.9553 13.072 16.1686 13.4155 16.1686 13.8018V15.2184L17.7891 14.274V12.8145C17.7891 12.4711 17.6185 12.1276 17.2774 11.913L13.8657 9.89538C13.5672 9.72367 13.1834 9.72367 12.8422 9.89538L9.34525 11.9559C9.00408 12.1276 8.8335 12.4711 8.8335 12.8145V16.8497C8.8335 17.1931 9.00408 17.5365 9.34525 17.7512L12.7996 19.7688C13.0981 19.9405 13.4819 19.9405 13.8231 19.7688L16.1686 18.3951L17.7891 17.4507L20.1346 16.077C20.4332 15.9053 20.817 15.9053 21.1581 16.077L22.9919 17.1502C23.2904 17.3219 23.5036 17.6653 23.5036 18.0517V20.1981C23.5036 20.5415 23.3331 20.8849 22.9919 21.0995L21.2008 22.1727C20.9023 22.3444 20.5184 22.3444 20.1773 22.1727L18.3435 21.0995C18.045 20.9278 17.8318 20.5844 17.8318 20.1981V18.8244L16.2112 19.7688V21.1854C16.2112 21.5288 16.3818 21.8722 16.723 22.0869L20.1773 24.1045C20.4758 24.2762 20.8596 24.2762 21.2008 24.1045L24.6551 22.0869C24.9536 21.9152 25.1668 21.5717 25.1668 21.1854V17.1073C25.1668 16.7638 24.9962 16.4204 24.6551 16.2058L21.2008 14.1882Z" fill="#8247E5"/>
</svg>
