<svg width="34" height="34" viewBox="0 0 34 34" fill="none" xmlns="http://www.w3.org/2000/svg">
<circle cx="17" cy="17" r="17" fill="#EDF0F4" fill-opacity="0.2"/>
<circle cx="17" cy="17" r="14" fill="#EDF0F4"/>
<path d="M12.7841 16.9287C12.7443 17.6206 13.2769 18.2129 13.9687 18.2527C13.9936 18.2527 14.0185 18.2527 14.0434 18.2527C14.7403 18.2527 15.3027 17.6903 15.2977 16.9934C15.2977 16.2965 14.7353 15.7341 14.0384 15.739C13.3714 15.739 12.8189 16.2617 12.7841 16.9287Z" fill="#0033AD"/>
<path d="M8.09524 16.6054C7.87125 16.5905 7.67712 16.7647 7.66717 16.9887C7.65721 17.2126 7.82645 17.4068 8.05044 17.4167C8.27443 17.4317 8.46357 17.2574 8.47851 17.0335C8.49344 16.8095 8.31923 16.6203 8.09524 16.6054Z" fill="#0033AD"/>
<path d="M12.7044 9.63164C12.9035 9.53209 12.9831 9.28321 12.8836 9.08411C12.784 8.88501 12.5352 8.80537 12.3361 8.90492C12.137 9.00447 12.0573 9.24837 12.1569 9.44747C12.2564 9.65155 12.5003 9.73617 12.7044 9.63164C12.7044 9.63164 12.6994 9.63164 12.7044 9.63164Z" fill="#0033AD"/>
<path d="M13.9787 11.8566C14.2873 11.7023 14.4118 11.324 14.2575 11.0154C14.1032 10.7068 13.7249 10.5823 13.4163 10.7366C13.1076 10.8909 12.9832 11.2692 13.1375 11.5778C13.2918 11.8864 13.6701 12.0109 13.9787 11.8566Z" fill="#0033AD"/>
<path d="M9.68801 13.3848C9.92694 13.5391 10.2455 13.4744 10.4048 13.2354C10.5591 12.9965 10.4944 12.6779 10.2555 12.5187C10.0165 12.3644 9.69797 12.4291 9.53869 12.668C9.3794 12.9069 9.44909 13.2305 9.68801 13.3848Z" fill="#0033AD"/>
<path d="M10.4494 16.3814C10.101 16.3615 9.80734 16.6253 9.78743 16.9738C9.76752 17.3222 10.0313 17.6159 10.3798 17.6358C10.7282 17.6557 11.0219 17.3919 11.0418 17.0434C11.0617 16.7 10.7979 16.4013 10.4494 16.3814Z" fill="#0033AD"/>
<path d="M9.75775 20.5974C9.50389 20.7268 9.39936 21.0354 9.52878 21.2942C9.6582 21.5481 9.9668 21.6526 10.2256 21.5232C10.4795 21.3938 10.584 21.0852 10.4546 20.8264C10.3252 20.5725 10.0116 20.468 9.75775 20.5974Z" fill="#0033AD"/>
<path d="M12.1967 15.0821C12.5402 15.3061 12.9981 15.2115 13.2171 14.8681C13.4411 14.5246 13.3465 14.0667 13.0031 13.8477C12.6596 13.6237 12.2017 13.7182 11.9827 14.0617C11.7587 14.4002 11.8532 14.8581 12.1967 15.0821Z" fill="#0033AD"/>
<path d="M19.9366 11.8069C20.2253 11.9961 20.6186 11.9164 20.8077 11.6277C20.9968 11.339 20.9172 10.9458 20.6285 10.7566C20.3398 10.5675 19.9466 10.6471 19.7574 10.9358C19.5633 11.2295 19.643 11.6178 19.9366 11.8069Z" fill="#0033AD"/>
<path d="M21.2212 9.59176C21.4103 9.7162 21.6592 9.66145 21.7836 9.4723C21.9081 9.28315 21.8533 9.03428 21.6642 8.90984C21.475 8.7854 21.2261 8.84015 21.1017 9.02432C20.9822 9.21347 21.037 9.46732 21.2212 9.59176Z" fill="#0033AD"/>
<path d="M20.0314 15.7291C19.3396 15.6893 18.7423 16.2219 18.7074 16.9138C18.6676 17.6057 19.2002 18.203 19.8921 18.2378C19.917 18.2378 19.9419 18.2378 19.9618 18.2378C20.6536 18.2378 21.2161 17.6754 21.2161 16.9785C21.2211 16.3165 20.6984 15.764 20.0314 15.7291Z" fill="#0033AD"/>
<path d="M14.3921 14.9927C14.6062 15.4158 15.0392 15.6846 15.5171 15.6846C16.2089 15.6846 16.7714 15.1221 16.7714 14.4253C16.7714 14.2311 16.7266 14.037 16.637 13.8578C16.3234 13.2356 15.5668 12.9867 14.9496 13.3003C14.3274 13.6189 14.0785 14.3755 14.3921 14.9927Z" fill="#0033AD"/>
<path d="M24.2423 13.3847C24.4962 13.2553 24.5958 12.9417 24.4663 12.6879C24.3369 12.434 24.0233 12.3345 23.7695 12.4639C23.5156 12.5933 23.4161 12.9019 23.5405 13.1558C23.6749 13.4096 23.9835 13.5142 24.2423 13.3847Z" fill="#0033AD"/>
<path d="M21.0569 13.7831C20.6936 13.9673 20.5442 14.4103 20.7284 14.7736C20.9126 15.137 21.3556 15.2863 21.719 15.1022C22.0823 14.918 22.2316 14.475 22.0475 14.1116C21.8633 13.7483 21.4203 13.6039 21.0569 13.7831Z" fill="#0033AD"/>
<path d="M16.9504 9.40277C17.2342 9.4177 17.4781 9.19869 17.498 8.91497C17.5179 8.63125 17.2939 8.38735 17.0102 8.36744C16.7264 8.3525 16.4825 8.56654 16.4626 8.85026C16.4477 9.13896 16.6667 9.38286 16.9504 9.40277Z" fill="#0033AD"/>
<path d="M16.9453 12.653C17.3535 12.6779 17.7019 12.3643 17.7218 11.9561C17.7467 11.5479 17.4331 11.1995 17.025 11.1796C16.6168 11.1547 16.2684 11.4683 16.2485 11.8765C16.2286 12.2846 16.5372 12.6331 16.9453 12.653Z" fill="#0033AD"/>
<path d="M12.9436 20.1991C13.3069 20.0149 13.4562 19.5719 13.2721 19.2085C13.0879 18.8452 12.6449 18.6959 12.2815 18.88C11.9182 19.0642 11.7689 19.5072 11.953 19.8706C12.1372 20.2339 12.5802 20.3832 12.9436 20.1991Z" fill="#0033AD"/>
<path d="M17.423 13.7332C17.0447 14.3156 17.204 15.0921 17.7863 15.4704C18.3687 15.8487 19.1452 15.6894 19.5235 15.107C19.9018 14.5246 19.7425 13.7481 19.1601 13.3699C18.9561 13.2355 18.7171 13.1658 18.4732 13.1658C18.0501 13.1658 17.6569 13.3798 17.423 13.7332Z" fill="#0033AD"/>
<path d="M19.6082 18.9894C19.2946 18.3672 18.538 18.1183 17.9208 18.4319C17.2986 18.7455 17.0497 19.5021 17.3633 20.1193C17.6769 20.7415 18.4335 20.9904 19.0507 20.6768C19.6679 20.3682 19.9218 19.6216 19.6132 18.9994C19.6132 18.9944 19.6132 18.9944 19.6082 18.9894Z" fill="#0033AD"/>
<path d="M21.8036 18.8999C21.4602 18.6759 21.0022 18.7705 20.7832 19.1139C20.5592 19.4574 20.6538 19.9153 20.9972 20.1343C21.3407 20.3583 21.7986 20.2637 22.0176 19.9203C22.2416 19.5818 22.1471 19.1239 21.8036 18.8999Z" fill="#0033AD"/>
<path d="M24.2127 17.0134C24.2326 16.665 23.9688 16.3713 23.6203 16.3514C23.2719 16.3315 22.9782 16.5953 22.9583 16.9437C22.9384 17.2922 23.2022 17.5858 23.5507 17.6057C23.8941 17.6257 24.1928 17.3569 24.2127 17.0134Z" fill="#0033AD"/>
<path d="M25.95 16.5653C25.726 16.5504 25.5319 16.7246 25.5219 16.9486C25.5119 17.1726 25.6812 17.3667 25.9052 17.3767C26.1292 17.3916 26.3183 17.2174 26.3332 16.9934C26.3432 16.7694 26.174 16.5803 25.95 16.5653Z" fill="#0033AD"/>
<path d="M24.3121 20.5973C24.0732 20.443 23.7546 20.5077 23.5953 20.7466C23.441 20.9855 23.5057 21.3041 23.7447 21.4634C23.9836 21.6177 24.3021 21.553 24.4614 21.3141C24.6207 21.0751 24.551 20.7516 24.3121 20.5973Z" fill="#0033AD"/>
<path d="M12.7741 24.3903C12.5849 24.2659 12.336 24.3206 12.2116 24.5048C12.0872 24.6939 12.1419 24.9428 12.3261 25.0673C12.5152 25.1917 12.7641 25.1369 12.8885 24.9528C13.018 24.7686 12.9632 24.5147 12.7741 24.3903Z" fill="#0033AD"/>
<path d="M21.2958 24.3503C21.0967 24.4499 21.017 24.6988 21.1166 24.8979C21.2161 25.097 21.465 25.1766 21.6641 25.0771C21.8632 24.9775 21.9429 24.7336 21.8433 24.5345C21.7438 24.3304 21.4999 24.2458 21.2958 24.3503C21.2958 24.3503 21.3008 24.3503 21.2958 24.3503Z" fill="#0033AD"/>
<path d="M16.5771 20.2488C16.9553 19.6665 16.7961 18.89 16.2137 18.5067C15.6313 18.1284 14.8548 18.2877 14.4715 18.8701C14.0883 19.4524 14.2525 20.2289 14.8349 20.6122C15.039 20.7466 15.2779 20.8163 15.5218 20.8163C15.9499 20.8213 16.3431 20.6072 16.5771 20.2488Z" fill="#0033AD"/>
<path d="M14.0633 22.1751C13.7746 21.986 13.3813 22.0656 13.1922 22.3543C13.003 22.643 13.0827 23.0362 13.3714 23.2254C13.6601 23.4145 14.0533 23.3349 14.2425 23.0462C14.4366 22.7575 14.3569 22.3643 14.0633 22.1751Z" fill="#0033AD"/>
<path d="M16.9951 24.5793C16.7113 24.5644 16.4674 24.7834 16.4475 25.0671C16.4276 25.3509 16.6516 25.5948 16.9353 25.6147C17.219 25.6296 17.4629 25.4156 17.4829 25.1318C17.4978 24.8431 17.2788 24.5992 16.9951 24.5793Z" fill="#0033AD"/>
<path d="M17.0003 21.329C16.5921 21.3041 16.2437 21.6177 16.2238 22.0259C16.1989 22.434 16.5125 22.7825 16.9207 22.8024C17.3288 22.8223 17.6772 22.5137 17.6972 22.1055C17.722 21.7023 17.4085 21.3489 17.0003 21.329Z" fill="#0033AD"/>
<path d="M20.0212 22.1255C19.7126 22.2848 19.5881 22.6631 19.7474 22.9717C19.9067 23.2803 20.285 23.4048 20.5936 23.2455C20.9022 23.0912 21.0267 22.7129 20.8724 22.4043C20.7131 22.0957 20.3348 21.9663 20.0212 22.1255Z" fill="#0033AD"/>
</svg>
