<svg width="34" height="34" viewBox="0 0 34 34" fill="none" xmlns="http://www.w3.org/2000/svg">
<circle cx="17" cy="17" r="17" fill="#D8C173" fill-opacity="0.3"/>
<circle cx="17.0002" cy="16.9999" r="13.266" fill="#BA9F33"/>
<path fill-rule="evenodd" clip-rule="evenodd" d="M9.12114 15.5048C9.04184 15.4324 8.95807 15.3598 8.88101 15.2874C8.80396 15.2149 8.72481 15.1424 8.64551 15.0699L8.40987 14.8459C8.37134 14.8074 8.33057 14.7735 8.29204 14.7348C8.25351 14.7009 8.20827 14.6624 8.16974 14.6284C7.85703 14.3316 7.54254 14.0349 7.23417 13.738C7.55359 14.0303 7.86629 14.3204 8.18572 14.617L8.29667 14.7281C8.3352 14.7665 8.37597 14.8005 8.4145 14.8391L8.64999 15.0565C8.72929 15.1289 8.80635 15.2015 8.88564 15.2805C8.96494 15.3595 9.04199 15.4322 9.12129 15.5045L9.12114 15.5048ZM4.97106 15.46C4.97106 15.46 6.10823 15.5776 6.66331 15.6569C7.17746 15.7295 8.78593 15.9764 8.78593 15.9764L4.97106 15.46ZM4.9711 15.46C5.29052 15.4872 5.60994 15.5211 5.92937 15.5551C6.09244 15.5709 6.24879 15.589 6.40514 15.6048L6.64512 15.6322C6.72442 15.6434 6.80148 15.6547 6.88077 15.6661L7.83232 15.8178L8.30795 15.8971C8.4643 15.9243 8.62065 15.9538 8.78373 15.981C8.62737 15.9652 8.4643 15.9425 8.30795 15.9198L7.83232 15.8518L6.88077 15.7115C6.80148 15.7001 6.72442 15.6841 6.64512 15.6729L6.405 15.6453C6.24864 15.6295 6.08557 15.6068 5.92922 15.5886C5.6098 15.5502 5.29037 15.5093 4.97095 15.4595L4.9711 15.46ZM8.67279 16.2727C8.67279 16.2727 7.45856 16.5809 7.04849 16.6988C6.64529 16.8097 5.42419 17.1812 5.42419 17.1812L8.67264 16.2729L8.67279 16.2727Z" fill="#CFB66C"/>
<path fill-rule="evenodd" clip-rule="evenodd" d="M8.67244 16.2727C8.4029 16.352 8.13484 16.4291 7.86141 16.5016L7.05039 16.7191C6.78084 16.7984 6.51279 16.8754 6.24399 16.9547L5.84079 17.0657C5.70713 17.1042 5.57124 17.1381 5.43311 17.1768C5.56661 17.132 5.70265 17.0861 5.83631 17.0476L6.23951 16.9186C6.50905 16.8346 6.77711 16.7553 7.04591 16.6716C7.31993 16.6036 7.58963 16.5311 7.86365 16.4653C8.12409 16.3996 8.39827 16.3341 8.67244 16.2729V16.2729V16.2727ZM5.59399 17.9288C5.72749 17.8789 7.26802 17.1609 7.62597 16.9932C7.80517 16.9093 8.32604 16.7244 8.32604 16.7244L5.59399 17.9288Z" fill="#CFB66C"/>
<path fill-rule="evenodd" clip-rule="evenodd" d="M5.5939 17.9288C5.71157 17.884 5.82268 17.8292 5.93587 17.7771L6.27113 17.6208L6.94402 17.2969C7.16802 17.1904 7.38575 17.0729 7.61677 16.9728C7.73459 16.9231 7.85242 16.8823 7.97009 16.8438L8.14929 16.7872C8.21037 16.7714 8.26712 16.7531 8.32849 16.7373C8.10449 16.8438 7.86869 16.9344 7.6444 17.0385C7.4204 17.1496 7.19132 17.2403 6.96015 17.3399L6.27605 17.6411C6.04638 17.7341 5.82238 17.8337 5.59375 17.9288V17.9288H5.5939ZM5.74322 18.5561C5.74322 18.5561 7.13859 17.7383 7.61885 17.4755C7.87033 17.3351 8.68359 16.9318 8.68359 16.9318L5.74322 18.5561Z" fill="#CFB66C"/>
<path fill-rule="evenodd" clip-rule="evenodd" d="M5.74365 18.5563C5.97915 18.4113 6.21928 18.264 6.45941 18.1145L6.81781 17.897C6.94011 17.8245 7.05793 17.7566 7.18263 17.6842C7.30493 17.6116 7.42276 17.5392 7.5473 17.4712C7.60659 17.4346 7.66871 17.4028 7.73307 17.3761L7.92332 17.281C8.1748 17.1587 8.42628 17.034 8.69134 16.9275C8.45121 17.0794 8.20422 17.2085 7.95737 17.342C7.83507 17.41 7.71037 17.4712 7.58807 17.5392C7.46576 17.6071 7.34794 17.6797 7.22325 17.7454C7.10094 17.8178 6.98312 17.8858 6.85857 17.9515L6.48927 18.1531L5.74395 18.5563V18.5563H5.74365ZM8.67261 17.1109C8.67261 17.1109 7.80498 17.7769 7.52408 17.9899C7.24319 18.2028 6.41633 18.8009 6.41633 18.8009L8.67261 17.1109V17.1109Z" fill="#CFB66C"/>
<path fill-rule="evenodd" clip-rule="evenodd" d="M13.652 22.4822L13.208 21.6417L13.4662 20.5906L15.3079 19.8793L14.5241 18.271L14.9115 16.6467L15.6387 15.1921L17.886 14.8388L19.5374 13.2644L23.1031 13.534L23.8031 17.3466L22.4552 22.1469L21.6873 24.6321L18.5746 24.7499L17.1294 23.7487L15.4371 23.0417L13.652 22.4822V22.4822Z" fill="#E2CC85"/>
<path fill-rule="evenodd" clip-rule="evenodd" d="M19.1115 22.4548C19.1115 22.4548 18.681 22.6519 17.9467 22.6065C17.7342 22.3212 16.2459 22.1875 16.2459 22.1875C16.2459 22.1875 16.0602 22.1309 15.7316 22.2668C15.401 22.4012 15.0883 22.3846 14.7961 22.4571C14.5038 22.5295 14.2137 22.149 13.9897 22.0697C13.7657 21.9859 13.4686 21.7843 13.4686 21.7843L12.8414 21.7231L11.582 21.1907L9.58105 19.1973L9.03733 20.0485L8.86963 21.1019L9.47458 22.3501L11.1034 23.8339L14.2794 24.6403L16.1619 24.0857L18.5201 23.0889L19.1115 22.4547V22.4548Z" fill="#F1D789"/>
<path fill-rule="evenodd" clip-rule="evenodd" d="M7.82761 15.4096L8.23081 14.1886L8.71122 13.4002L10.2583 13.271L9.79388 14.6257L8.50051 16.9274L9.03736 18.9821L8.08596 19.4577L7.79356 19.0093L7.55807 17.9808L7.54224 16.8254L7.82761 15.4096V15.4096Z" fill="#F4ECB4"/>
<path fill-rule="evenodd" clip-rule="evenodd" d="M9.56281 22.3712L9.26609 21.9566C9.26609 21.9566 9.18679 21.7595 9.23219 21.5873C9.27699 21.4129 9.27057 21.4015 9.24802 21.3358C9.22547 21.2701 9.03507 21.0436 9.04642 20.8487C9.05762 20.6516 9.03059 20.5859 9.17544 20.4297C9.32716 20.278 9.28191 20.0151 9.28191 20.0151L9.47903 20.1374L9.52383 20.0695C9.52383 20.0695 9.59626 20.1261 9.59626 20.2145C9.61209 20.0922 9.54638 19.5258 9.69587 19.3967C9.84535 19.2677 10.1104 20.0015 10.1104 20.0015L9.94734 18.9368L9.52817 17.845L8.78284 16.8482L8.73804 15.7494V15.6543C8.73804 15.6543 8.39592 16.18 8.30079 16.5951C8.23285 16.8805 8.39592 17.2271 8.36202 17.6371C8.33469 18.045 8.30079 18.0132 8.4004 18.1747C8.50001 18.3363 8.74252 18.6686 8.6474 18.9087C8.56362 19.1149 8.2781 18.9699 8.2781 18.9699C8.2781 18.9699 8.2215 19.1375 8.14444 19.1987C8.11726 19.0991 8.08785 19.0357 8.03349 18.9747C8.02886 19.0133 8.01766 19.0654 8.01766 19.0654C8.01766 19.0654 7.96778 18.909 7.9179 18.7119C7.85011 18.4492 7.77753 18.1026 7.71182 17.9168C7.68465 18.0233 7.6167 18.3472 7.6167 18.3472L7.65523 18.8457L7.841 19.5298L8.0202 19.9778L8.19462 20.526L8.34619 20.8943L8.4685 21.1751L8.57497 21.8073L9.08913 22.3509L9.3633 22.4733L9.56251 22.3713V22.3713L9.56281 22.3712Z" fill="#F3E19D"/>
<path fill-rule="evenodd" clip-rule="evenodd" d="M8.09705 14.4128C8.09705 14.4128 7.72775 15.04 7.62143 15.6723C7.5151 16.3046 7.41983 16.9727 7.48703 17.8335C7.55497 18.7012 7.68415 19.2335 7.78838 19.6141C7.96758 20.2462 8.43171 21.1252 8.43171 21.1252L8.44754 21.0912C8.36952 20.9433 8.30726 20.7876 8.26177 20.6267C8.20054 20.3866 8.17784 20.1012 8.12124 19.9721C8.07137 19.843 7.98759 19.7319 7.94682 19.5733C7.9083 19.4216 7.90202 19.1815 7.78375 19.0026C7.73387 18.93 7.67265 18.7398 7.65458 18.5495C7.63188 18.264 7.66593 17.9446 7.63875 17.6819C7.58887 17.2446 7.55497 16.9479 7.60022 16.719C7.64547 16.4901 7.88127 15.8402 8.02627 15.3236C8.12139 14.9928 8.06465 14.7142 8.23907 14.4264C8.41349 14.141 8.52011 13.8896 8.55849 13.7151C8.60329 13.5566 8.09646 14.4128 8.09646 14.4128V14.4128H8.09705Z" fill="#F2E8B0"/>
<path fill-rule="evenodd" clip-rule="evenodd" d="M9.84837 14.1614C9.84837 14.1614 9.65812 14.2181 9.56748 14.3177C9.47683 14.4129 9.4383 14.4922 9.316 14.653C9.1937 14.8138 9.18683 14.9452 9.08707 15.1468C8.98747 15.3439 8.76765 15.6407 8.74047 15.7471C8.71329 15.8536 8.66804 16.3519 8.61144 16.5876C8.56157 16.8232 8.66804 17.1132 8.66804 17.1132L8.79707 17.0859C8.79707 17.0859 8.79707 17.2536 8.92624 17.367C9.05526 17.4779 9.07796 16.9908 9.07796 16.9908L9.56046 15.362L10.2876 14.8682L10.3669 14.4695L9.84807 14.1614V14.1614H9.84837Z" fill="#F5EEC0"/>
<path fill-rule="evenodd" clip-rule="evenodd" d="M10.2018 14.9C10.2018 14.9 9.85963 14.9226 9.69208 15.045C9.62413 15.0947 9.59696 15.1355 9.52453 15.1967C9.39088 15.3077 9.25483 15.4097 9.18928 15.5551C9.1167 15.7 9.0374 15.9198 8.98305 16.3344C8.96035 16.5088 8.96035 16.6696 8.94452 16.8101C8.92182 17.0004 8.88792 17.1521 8.90599 17.2581C8.92869 17.4756 9.15299 17.5889 9.17479 17.8358L9.63922 17.6003L10.0765 15.8762L11.0053 15.2938L10.4797 14.7048L10.2012 14.899V14.899L10.2018 14.9Z" fill="#E6DB9D"/>
<path fill-rule="evenodd" clip-rule="evenodd" d="M7.75161 26.5094C7.75356 26.4924 7.7555 26.4754 7.75744 26.4579C7.82524 25.8755 7.83673 25.4341 7.88646 25.1576C7.95889 24.7658 8.00877 24.62 7.99742 24.4734C7.98159 24.2379 7.96352 24.0657 7.98622 23.8844C8.02012 23.6443 8.25576 23.3589 8.24904 23.1618C8.24441 23.0055 8.16512 22.9036 8.09717 22.8085C8.02922 22.7134 7.97487 22.6341 7.97487 22.6341C7.97487 22.6341 8.43929 22.3146 8.43481 21.0278C8.4443 21.0305 8.45342 21.0343 8.46199 21.0392L8.69077 21.6892L8.84712 21.8795L9.44744 22.9986L10.2199 23.7485L11.3616 24.5164L12.0775 25.2955L12.1499 27.3729L11.2144 28.5871L11.0611 28.8645C9.84388 28.2535 8.72765 27.4591 7.75146 26.5093L7.75161 26.5094Z" fill="#E5CB7A"/>
<path fill-rule="evenodd" clip-rule="evenodd" d="M10.6096 28.4966C10.6096 28.4966 10.6254 28.2384 10.8384 28.0707C10.8724 28.1273 10.895 28.1818 10.8883 28.2225C10.9268 28.1547 11.1963 27.7197 11.8058 27.6063C12.4152 27.4954 12.5625 27.0514 12.5625 27.0514L13.8558 25.8757L15.3351 24.5142L17.1338 23.8821L17.9744 23.6759C17.9744 23.6759 17.9903 23.7371 17.9586 23.873C18.1148 23.8618 18.4614 23.7825 18.8216 23.6555C18.9666 23.599 19.1027 23.5763 19.1751 23.6511C19.2816 23.7507 19.2974 23.9863 19.3041 24.1267C19.4785 24.0882 19.6801 23.9206 19.8417 23.9364C20.1001 23.9636 20.3288 24.2672 20.5917 24.2672C20.9383 24.2672 21.0945 24.0543 21.337 23.8866C21.482 23.787 21.6903 23.6626 21.8081 23.5785C22.089 23.3723 25.0612 22.4639 25.0612 22.4639L26.1033 22.5318L26.271 23.6509L26.1814 26.5764C26.1703 26.587 26.1593 26.598 26.1481 26.6086L21.41 29.0832L14.8423 30.09C13.3711 29.8497 11.9514 29.3613 10.6437 28.6458L10.6101 28.4965V28.4965L10.6096 28.4966Z" fill="#D8C173"/>
<path fill-rule="evenodd" clip-rule="evenodd" d="M8.1499 26.8814C8.24324 26.6862 8.32716 26.523 8.34194 26.4646C8.35359 26.5823 8.37495 26.8405 8.41796 27.1149C8.32766 27.0382 8.23831 26.9603 8.1499 26.8812V26.8814Z" fill="#F1D789"/>
<path fill-rule="evenodd" clip-rule="evenodd" d="M12.9476 29.6345L13.797 29.3983L13.8694 29.421C13.8694 29.421 13.9079 29.4437 13.9079 29.5206C14.0144 29.4595 14.1051 29.4707 14.1708 29.4301C14.2047 29.5025 14.2386 29.7426 14.3882 29.772C14.5444 29.8061 14.7121 29.7041 14.882 29.5751C15.0496 29.4414 15.2404 29.2737 15.3848 29.2058C15.4378 29.3032 15.4848 29.4038 15.5254 29.507C15.7156 29.3553 16.0464 28.7391 16.5175 28.7503C16.6537 28.4285 16.8812 28.1536 17.1719 27.9597C17.6092 27.663 17.8832 27.6403 18.2253 27.6675C18.3612 27.491 18.5287 27.3412 18.7192 27.2258C18.7758 27.2485 18.9321 27.3436 19.127 27.2529C19.3241 27.1624 19.546 26.8112 19.8383 26.766C19.9958 26.7443 20.1559 26.7779 20.2913 26.8611C20.2913 26.8611 21.1425 26.016 21.7299 25.7351C21.7072 25.6672 21.6619 25.4112 22.3505 24.8448C22.389 24.8788 22.3619 24.974 22.389 24.9792C22.4002 24.9792 22.5682 24.9068 22.7809 24.7435C23.0437 24.5466 23.3585 24.3403 23.5488 24.2837C23.9072 24.1773 24.2874 24.3947 24.2874 24.3947C24.3197 24.372 24.3557 24.3552 24.3938 24.3448C24.4843 24.329 24.55 24.3176 24.5999 24.3C24.5954 24.4178 24.6611 24.6195 24.5999 24.7939C24.6708 24.8338 24.746 24.8657 24.8239 24.889C24.7855 24.9728 24.7016 25.1857 24.5612 25.2877C24.6789 25.3443 24.6947 25.41 24.8624 25.4669C24.7945 25.562 24.6832 25.7253 24.6337 25.8253C24.5838 25.9318 24.4047 26.3735 24.3254 26.5411C24.2417 26.7088 24.1285 27.0168 24.074 27.0787C24.0195 27.1405 23.8225 27.4026 23.6708 27.5316C23.8052 27.4817 24.355 27.3142 24.5883 27.2507C24.5188 27.3525 24.1668 27.8748 23.8285 28.377C20.5508 30.3415 16.5863 30.8005 12.9465 29.6368L12.9476 29.6345Z" fill="#E0CD81"/>
<path fill-rule="evenodd" clip-rule="evenodd" d="M10.2575 14.8387C10.2575 14.8387 10.0606 14.8387 10.022 14.8659C9.98352 14.893 10.2192 14.9498 10.2916 14.977C10.364 15.0041 10.5204 15.1287 10.5611 15.2284C10.5997 15.3236 11.977 15.8785 11.977 15.8785L12.9511 15.8286L13.2869 15.3646L12.6481 14.8051L13.0961 13.4844L12.5026 13.5795L11.0754 14.4307L10.3595 14.7049L10.2575 14.8387V14.8387Z" fill="#DFC57C"/>
<path fill-rule="evenodd" clip-rule="evenodd" d="M12.3968 15.2761C12.4254 15.3225 12.4767 15.3501 12.5312 15.3485C12.7328 15.3485 12.9184 15.3984 12.9955 15.5003C13.1246 15.6635 13.4826 16.1845 13.4826 16.1845L14.3389 16.4926L14.3941 15.4843L13.4585 14.8342L12.3938 15.2261V15.276H12.3962L12.3968 15.2761Z" fill="#E5CC7C"/>
<path fill-rule="evenodd" clip-rule="evenodd" d="M12.2289 15.6499C12.2289 15.6499 12.3851 15.6613 12.5822 15.5887C12.7793 15.5161 13.1032 15.3599 13.2437 15.4212C13.4407 15.5049 13.3999 15.7678 13.613 16.0036C13.7421 16.1486 13.9777 16.1441 14.1114 16.3004C14.245 16.4568 14.7048 16.3842 14.7048 16.3842L14.8792 17.325L14.1793 18.2222L13.9504 19.3367H13.0039L12.1393 18.9937L11.7134 17.9633L11.9263 16.9212L12.2289 15.6499V15.6499Z" fill="#D2C281"/>
<path fill-rule="evenodd" clip-rule="evenodd" d="M14.0597 15.695C14.0832 15.7022 14.1076 15.706 14.1321 15.7063C14.1049 15.729 14.0482 15.7787 14.0709 15.9079C14.0936 16.0371 14.166 16.2001 14.1049 16.2998C14.1537 16.3531 14.1901 16.4165 14.2114 16.4855C14.25 16.5966 14.2613 16.6985 14.5126 16.7144C14.4764 16.7368 14.4429 16.7634 14.413 16.7937C14.413 16.7937 14.5874 16.9455 14.6759 17.0858C14.7663 17.082 15.0065 17.0073 15.0065 17.0073L15.0564 17.0413L15.1628 16.9965C15.1628 16.9965 15.0632 16.958 15.1356 16.7156C15.2036 16.5027 15.2648 16.514 15.27 16.4982C15.2753 16.4824 15.3199 16.2581 15.3199 16.1674C15.3538 16.0498 15.381 15.6918 15.381 15.6918L15.3086 14.9012L14.9009 14.6542L14.5694 14.3342L14.2567 14.9232L14.0507 15.1285L14.0349 15.6382L14.0597 15.695V15.695Z" fill="#E2C270"/>
<path fill-rule="evenodd" clip-rule="evenodd" d="M15.0405 15.0338C15.0405 15.0338 15.113 15.2399 15.1403 15.3985C15.1499 15.3677 15.1552 15.3356 15.1561 15.3034C15.1561 15.3034 15.2127 15.6161 15.2239 15.7452C15.2466 15.7406 15.2687 15.7339 15.2738 15.7564C15.2789 15.779 15.3305 16.0306 15.3186 16.171C15.4129 16.0154 15.5435 15.8848 15.6991 15.7905C15.7897 15.7337 15.8962 15.6727 16.0073 15.668C16.1817 15.6636 16.3085 15.7791 16.517 15.7791C17.0198 15.7791 17.4753 15.4098 17.8105 15.2966C18.0574 15.2127 18.2703 15.1516 18.4198 15.0156C18.4924 14.9545 18.6215 14.8186 18.7392 14.6169C18.8956 14.3481 19.0586 14.1141 19.2219 14.0846C19.148 14.0982 19.0729 14.1035 18.9979 14.1005C18.9979 14.1005 19.0477 14.0506 19.1323 13.9827C19.2168 13.9147 19.318 13.8309 19.4629 13.8309C19.7212 13.8309 19.8503 13.8693 19.9953 13.8693C20.1403 13.8648 20.224 13.8309 20.224 13.8309C20.224 13.8309 20.3759 13.9374 20.7179 13.9374C21.06 13.9419 21.2888 13.9713 21.4678 13.9873C21.6469 14.0033 22.2471 13.9374 22.4192 13.9425C22.5315 13.9468 22.6417 13.9738 22.7433 14.0218L22.1882 12.409L20.1943 10.6663L19.0073 11.5067L17.1812 13.3326L15.4143 13.9873L15.045 14.4018V15.0338H15.0405Z" fill="#CCB360"/>
<path fill-rule="evenodd" clip-rule="evenodd" d="M19.0052 14.1093C19.0052 14.1093 19.055 14.0595 19.1387 13.9916C19.2223 13.9236 19.3246 13.8397 19.4694 13.8397C19.7276 13.8397 19.8568 13.8782 20.0018 13.8782C20.1468 13.8738 20.2306 13.8397 20.2306 13.8397C20.2306 13.8397 20.3826 13.946 20.7244 13.946C21.0666 13.9505 21.2953 13.9799 21.4744 13.9958C21.6534 14.0116 22.2536 13.946 22.4258 13.951C22.538 13.9552 22.6482 13.9822 22.7497 14.0303L22.4982 13.303L22.2061 12.7481L21.3724 11.8351C21.3724 11.8351 20.3719 11.2461 20.3643 11.2416C20.3598 11.2371 20.0176 11.1465 20.0176 11.1465L19.1115 11.6947L18.2893 13.8219L18.2734 14.2699L18.8057 14.5214C18.9393 14.2974 19.0867 14.1182 19.2248 14.0955C19.1001 14.1091 19.005 14.1091 19.005 14.1091V14.1091L19.0052 14.1093Z" fill="#D5B457"/>
<path fill-rule="evenodd" clip-rule="evenodd" d="M18.9935 14.2612C18.9142 14.2657 18.8487 14.2499 18.8305 14.1933C18.7625 14.003 18.7082 13.9759 18.6513 13.9759C18.5944 13.9759 18.5176 14.0982 18.4721 14.1094C18.4265 14.1206 18.3725 13.969 18.3725 13.969L18.3226 13.9463C18.3226 13.9463 18.0303 14.1365 17.8243 14.3608C17.6182 14.5851 17.2805 14.9658 17.1288 15.0336C16.9771 15.1014 16.4559 15.1242 16.2776 15.1628C16.0993 15.2013 15.9016 15.3305 15.8744 15.3599C15.8472 15.3893 15.9539 15.421 15.9697 15.4504C15.9855 15.4776 15.7951 15.4662 15.7793 15.4952C15.7681 15.5179 15.8241 15.6469 15.8519 15.7126C15.9005 15.6884 15.9538 15.6753 16.0081 15.6741C16.1825 15.6696 16.3094 15.7852 16.5177 15.7852C17.0207 15.7852 17.476 15.4159 17.8113 15.3025C18.0583 15.2188 18.2712 15.1575 18.4207 15.0216C18.4931 14.9606 18.6223 14.8245 18.7401 14.6229C18.8261 14.4848 18.9101 14.3556 18.994 14.2605V14.2605L18.9935 14.2612Z" fill="#D2B257"/>
<path fill-rule="evenodd" clip-rule="evenodd" d="M11.7809 25.4725C11.7809 25.4725 11.7361 25.3048 11.3209 24.8721C11.2031 24.7498 11.1307 24.6481 11.0514 24.5754C10.8543 24.3895 10.7387 24.3398 10.5983 24.2333C10.2902 24.0045 9.95497 24.0045 9.69677 23.7236C9.43857 23.4427 9.13766 22.906 8.9286 22.3575C8.72252 21.8093 8.66577 21.6349 8.66577 21.6191C8.66577 21.6032 8.72252 21.4968 8.79494 21.5126C8.86737 21.5284 8.86737 21.6688 8.88559 21.7028C8.92167 21.7584 8.9626 21.8107 9.00789 21.859C9.11437 21.9815 9.26609 22.1278 9.34315 22.3462C9.32732 22.1604 9.26385 21.9543 9.26385 21.9543C9.26385 21.9543 9.66257 22.2058 10.0023 22.4685C10.3444 22.7313 10.4848 22.8219 10.5847 22.9895C10.6846 23.157 10.92 23.5989 11.0327 23.7281C11.1455 23.8573 12.6903 24.3442 12.6903 24.3442L13.4252 24.8921L13.79 25.6918L13.5045 26.1398L12.9563 26.2577L12.0659 25.8589L11.7809 25.4723V25.4723V25.4725Z" fill="#D2B159"/>
<path fill-rule="evenodd" clip-rule="evenodd" d="M9.80298 22.7177C9.80298 22.7177 9.98875 23.0144 10.4418 23.2953C10.8497 23.5423 11.4952 23.7666 12.0708 23.9002C12.4014 23.9795 12.7322 24.0406 13.0289 24.0453C13.8286 24.0565 14.379 23.8278 15.061 23.753C15.4303 23.7145 15.8834 23.6851 16.3545 23.5738C16.9593 23.4288 17.3173 23.2656 17.8044 23.0362C18.1577 22.8731 18.4818 22.7508 18.7445 22.5945C19.1138 22.3771 19.3833 22.1347 19.696 22.0623C19.6575 22.1687 19.6167 22.359 19.3086 22.5561C19.4717 22.5515 19.696 22.5403 19.696 22.5403C19.696 22.5403 19.4786 22.6693 19.0957 22.9593C18.86 23.1385 18.5475 23.4418 18.2281 23.6434C18.0218 23.7726 17.7975 23.8674 17.6503 23.9448C17.2919 24.1419 17.1473 24.2415 16.9118 24.4824C16.9956 24.4779 17.0025 24.4824 17.0025 24.4824C17.0025 24.4824 16.7056 24.5209 16.4928 24.6341C16.448 24.6341 16.3704 24.6182 16.2345 24.6568C16.128 24.6907 15.9875 24.7679 15.8426 24.8085C15.6364 24.8697 15.5686 24.8425 15.5686 24.8425L15.6025 24.9105C15.6025 24.9105 15.3337 24.9059 15.2441 24.915C15.2599 24.9194 15.2554 24.9263 15.2554 24.9263C15.2397 24.929 15.2245 24.9343 15.2106 24.9421C15.1675 24.9701 15.1201 24.9907 15.0703 25.0032C15.0431 25.0077 15.0204 25.0077 14.9863 25.0146C14.9977 25.0418 15.0861 25.1938 15.1269 25.2834C15.093 25.3061 14.5831 25.6912 14.5831 25.6912C14.5989 25.7161 14.6119 25.7427 14.6217 25.7705C14.6375 25.8202 14.6444 25.8928 14.6602 25.9267C14.6986 25.9946 14.7213 26.006 14.7213 26.006C14.7213 26.006 14.6602 26.0173 14.5536 26.0445C14.4631 26.0672 14.352 26.1056 14.1952 26.1283C14.1471 26.1346 14.0987 26.1383 14.0502 26.1397C14.0729 26.1895 14.1725 26.3798 13.9889 26.5994C13.8054 26.8191 13.7488 26.8511 13.6922 26.9914C13.6637 26.9699 13.6334 26.9509 13.6016 26.9347C13.5405 26.9075 13.4566 26.8669 13.4271 26.8124C13.41 26.885 13.3873 26.9562 13.3592 27.0253C13.3026 27.1771 13.2188 27.3267 13.203 27.4399C13.1418 27.3719 13.0286 27.2383 12.8722 27.2655C12.7159 27.2927 12.5913 27.5056 12.5642 27.5668C12.5642 27.5283 12.537 27.4989 12.5303 27.5441C12.5256 27.594 12.4396 28.1149 11.9594 28.5363C11.9549 28.4298 11.9549 28.1942 11.9435 28.1173C11.8987 28.1621 11.8439 28.2282 11.5176 28.3687C11.1982 28.5091 11.2488 28.6496 11.2488 28.6496C11.2488 28.6496 11.2216 28.4256 11.3938 28.1897C11.5682 27.9542 11.6747 27.8431 11.6747 27.825C11.6719 27.8066 11.6641 27.7894 11.652 27.7751C11.6293 27.7525 11.5841 27.7253 11.5841 27.7072C11.6113 27.696 11.8808 27.5668 11.865 27.2994C11.8491 27.0594 11.7473 26.9347 11.6747 26.8464C11.6635 26.8351 11.7813 26.7513 11.7654 26.7241C11.754 26.7083 11.6092 26.6017 11.5909 26.5449C11.5952 26.5111 11.6028 26.4777 11.6136 26.4453C11.6295 26.3955 11.6408 26.3614 11.6363 26.3275C11.625 26.2709 11.5638 26.1146 11.5457 26.0987C11.5615 26.1032 11.6747 26.0987 11.6747 26.0987C11.6747 26.0987 11.5842 25.9537 11.5682 25.8858C11.5523 25.8178 11.5184 25.6388 11.5003 25.6049C11.5388 25.6094 11.634 25.6161 11.634 25.6049C11.6386 25.5708 11.5502 25.5142 11.5892 25.4705C11.6163 25.475 11.6685 25.4977 11.7182 25.5611C11.691 25.4886 11.6458 25.3482 11.5505 25.2916C11.5953 25.2758 11.7476 25.2348 11.8813 25.3141C12.0149 25.3934 12.0604 25.5044 12.0604 25.5044C12.0604 25.5044 12.1397 25.5656 12.2622 25.6563C12.4026 25.7672 12.5815 25.9251 12.867 26.0368C12.9282 26.0708 13.0844 26.0708 13.1978 26.0481C13.2471 26.0364 13.2944 26.0173 13.3381 25.9915C13.3539 25.9822 13.3706 25.9746 13.388 25.9688C13.3637 25.9199 13.3357 25.873 13.3042 25.8283C13.3428 25.8283 13.388 25.8329 13.388 25.8329C13.388 25.8329 13.4152 25.7717 13.2929 25.6537C13.3201 25.6265 13.3541 25.6089 13.3541 25.5631C13.3156 25.5586 13.2476 25.502 13.2318 25.4793C13.2544 25.4635 13.2884 25.4114 13.3269 25.3955C13.2929 25.3683 13.2091 25.255 13.1706 25.2438C13.2074 25.2301 13.243 25.2135 13.2771 25.1939C13.2771 25.1939 13.0868 25.144 13.0256 25.1033C12.9644 25.0585 12.8739 24.981 12.8195 24.9583C12.7628 24.9356 12.6632 24.9244 12.6224 24.879C12.6608 24.8903 12.722 24.879 12.7674 24.879C12.8013 24.879 12.8173 24.8835 12.8285 24.8835C12.824 24.8676 12.824 24.8336 12.9124 24.8224C12.9549 24.816 12.9962 24.803 13.0347 24.7839C13.0347 24.7839 12.9508 24.7794 12.8555 24.6887C12.7602 24.5981 12.6811 24.5257 12.6267 24.5143C12.5701 24.503 12.4636 24.5528 12.3979 24.5482C12.3073 24.537 12.2688 24.4916 12.2688 24.4916C12.2688 24.4916 11.9676 24.5188 11.2993 24.1111C10.7215 23.7576 10.4701 23.4451 10.4701 23.4451C10.416 23.4255 10.3637 23.4012 10.3138 23.3725C10.0964 23.2593 9.79506 23.0237 9.80417 22.7154V22.7154L9.80298 22.7177Z" fill="#C2A44D"/>
<path fill-rule="evenodd" clip-rule="evenodd" d="M18.1371 9.12101C18.1895 9.13803 18.2361 9.16944 18.2715 9.21165C18.378 9.33396 18.4459 9.56498 18.2036 9.81197C18.2987 9.84587 18.338 9.85677 18.421 9.84587C18.3372 9.94563 18.147 10.1586 18.1356 10.3443C18.1243 10.4961 18.2194 10.5415 18.2194 10.5415C18.2194 10.5415 18.0744 10.709 18.0677 10.9895C18.1362 10.9122 18.2111 10.841 18.2917 10.7765C18.4594 10.6429 18.6904 10.4911 18.8467 10.396C18.8446 10.4359 18.85 10.4758 18.8626 10.5137C18.8626 10.5137 19.1547 10.2736 19.4002 10.3802C19.5111 10.4301 19.4613 10.5863 19.4613 10.5863C19.4613 10.5863 19.6131 10.5297 19.7196 10.6361C19.8261 10.7426 19.9766 11.0172 20.0538 11.1237C20.0877 11.1736 20.1761 11.2687 20.2666 11.416C20.3902 11.6221 20.4935 11.8398 20.5748 12.066C20.5793 11.9482 20.6087 11.7648 20.9441 11.8802C21.2794 11.9981 21.6599 12.2451 21.9793 12.7314C22.2987 13.2178 22.3779 13.7669 22.5387 13.976C22.7018 14.1776 22.8695 14.5128 22.8808 14.6534C22.8922 14.7939 22.831 15.2468 23.1662 16.4724C23.2613 16.0919 23.4063 15.2468 23.4063 15.2468L23.4856 14.5015L23.5763 12.1953L21.1681 10.1947L19.2856 8.82861L18.0601 8.94644L18.137 9.12086V9.12086L18.1371 9.12101Z" fill="#CAA13E"/>
<path fill-rule="evenodd" clip-rule="evenodd" d="M22.6114 12.553C22.6114 12.553 22.5773 12.329 22.0111 11.9482C21.4446 11.5722 21.0029 11.5722 20.5952 11.2528C20.2825 11.0013 19.9564 10.4235 19.744 10.2333C19.5378 10.0453 19.5039 9.50155 19.5039 9.50155L20.1994 8.91915L21.2336 7.42418L22.108 6.46143L22.527 7.04383L23.1094 7.72792L23.4333 9.10074L23.5511 11.1102L22.6103 12.5532L22.6114 12.553Z" fill="#B59544"/>
<path fill-rule="evenodd" clip-rule="evenodd" d="M23.3116 14.9615C23.3288 14.6568 23.2911 14.3515 23.2005 14.06C23.0512 13.5956 22.7249 12.771 22.5733 12.4621C22.5121 12.12 22.5575 12.0928 22.6232 12.0543C22.6889 12.0158 22.9359 11.8751 23.0712 11.3816C23.2065 10.888 23.6263 10.8719 23.6263 10.8719L23.8845 10.6816L24.2765 11.6625L24.6184 12.5483L24.7249 13.2257L24.8042 13.8033L24.6184 15.0244L23.7011 15.8535L23.3115 14.9615V14.9615H23.3116Z" fill="#C89D3A"/>
<path fill-rule="evenodd" clip-rule="evenodd" d="M10.5098 28.5716V28.5465C10.5288 28.5346 10.5457 28.5195 10.5595 28.5017C10.5753 28.479 10.5868 28.4519 10.598 28.4451C10.6207 28.4338 10.7272 28.4003 10.7838 28.4111C10.8404 28.4219 10.99 28.4835 11.0693 28.479C11.2324 28.4746 11.4226 28.3499 11.724 28.4066C12.1771 28.4904 12.2835 28.7985 12.5464 28.9729C12.7256 29.0953 12.911 29.0408 12.9382 29.0408H12.9993C13.0106 29.0408 13.0944 28.9457 13.1398 28.9503C13.2305 28.9548 13.2394 29.0296 13.296 29.0341C13.4297 29.0499 13.688 28.9662 13.8172 29.0002C13.8949 29.0246 13.9558 29.0854 13.9803 29.1631C14.0074 29.2469 13.9847 29.3534 13.919 29.4146C13.7787 29.5436 13.645 29.6661 13.6178 29.773C13.6524 29.7994 13.6856 29.8275 13.7173 29.8572C12.5964 29.5717 11.518 29.1399 10.5098 28.573V28.5716Z" fill="#CEB052"/>
<path fill-rule="evenodd" clip-rule="evenodd" d="M22.573 24.0454C22.573 24.0454 22.9263 23.5743 23.0488 23.3409C23.1711 23.1003 22.6614 20.0539 22.6614 20.0539L23.6854 16.699L23.6581 15.607C23.6581 15.607 23.7079 14.5989 23.8258 14.1616C23.9663 14.4131 24.4035 14.7167 24.4987 14.8776C24.5435 14.5693 24.6956 13.9193 24.6731 13.2261C24.7568 13.3551 24.9584 14.6533 24.9584 14.6533L25.16 15.5276L25.4229 16.4565L25.7151 17.4374L25.8895 18.1148L25.9891 18.2779L26.0731 18.5632L26.1524 18.8715L26.3811 19.5941L26.5155 20.1875L26.622 21.2636C26.6452 21.346 26.6619 21.4301 26.6719 21.5151C26.6764 21.6329 26.6561 21.7009 26.6561 21.7213C26.6561 21.7418 26.6946 21.9795 26.6788 22.1586C26.6561 22.3378 26.6561 22.478 26.5155 22.6066C26.375 22.7352 26.2868 23.5036 26.2868 23.5036L26.0353 23.3361C26.0353 23.3361 26.0852 23.1072 25.9673 22.8988C25.8495 22.6905 25.6207 22.6474 25.4916 22.6814C25.3625 22.7086 25.1043 22.7492 25.0204 22.8218C24.9411 22.8942 24.7464 23.1185 24.5673 23.2205C24.3433 23.3549 23.9784 23.3655 23.7836 23.4108C23.5865 23.4556 23.3691 23.59 23.1402 23.746C22.9607 23.8622 22.7712 23.9622 22.5739 24.0447V24.0447L22.573 24.0454Z" fill="#CCA847"/>
<path fill-rule="evenodd" clip-rule="evenodd" d="M22.573 28.9951C22.573 28.9951 22.5879 29.0048 22.6168 29.0206C24.2262 28.2666 25.6683 27.1977 26.8578 25.8772C26.8448 25.4187 26.8279 24.9487 26.8094 24.7746C26.7711 24.4053 26.7982 24.0293 26.7869 23.8119C26.7755 23.5944 26.6532 22.7086 26.5966 22.4798C26.5354 22.251 26.4174 22.1377 26.3995 22.1377C26.3837 22.1423 26.2884 22.5682 26.2884 22.6753C26.2884 22.7824 26.2657 23.0401 26.2657 23.1058C26.2499 23.1012 26.2432 23.061 26.2432 23.0446C26.2205 23.1012 26.1933 23.2009 26.1819 23.2123C26.1706 23.2236 26.1978 23.1172 26.1819 23.0945C26.1661 23.0718 26.1371 23.0831 26.1434 23.0265C26.1461 22.993 26.1514 22.9597 26.1592 22.9269C26.1592 22.9269 26.0913 23.0265 26.0416 23.2802C25.9917 23.5317 25.9917 23.5386 25.9736 23.5611C25.9578 23.5885 25.8671 23.679 25.8625 23.713C25.858 23.7741 25.9464 23.8353 25.9532 23.8692C25.9576 23.926 25.8739 24.1886 25.8467 24.3172C25.8195 24.4458 25.8308 24.6977 25.8019 24.8269C25.7792 24.9447 25.7571 25.0127 25.6796 25.0624C25.7362 25.0737 25.7905 25.0896 25.7905 25.0896C25.7905 25.0896 25.8698 25.4248 25.6682 25.7103C25.5958 25.81 25.5777 25.8554 25.5007 25.946C25.3488 26.1135 25.231 26.3044 25.2196 26.4285C25.2118 26.3919 25.2065 26.3547 25.2038 26.3174C25.2038 26.3174 24.9683 26.5916 24.8685 26.7479C24.7395 26.9495 24.5605 26.9382 24.5101 26.988C24.4598 27.0379 24.4489 27.1284 24.4653 27.201C24.4205 27.2122 24.3363 27.2282 24.2796 27.4026C24.2524 27.4931 24.1845 27.5818 24.078 27.6427C23.9715 27.7037 23.8423 27.722 23.7766 27.7378C23.8332 27.7537 23.8559 27.7537 23.8831 27.7717C23.8492 27.8283 23.6928 27.9167 23.5184 28.0301C23.344 28.1366 23.2601 28.2928 23.2171 28.3948C23.1723 28.4899 23.1061 28.5511 22.9996 28.5625C23.0444 28.5896 23.1107 28.653 23.1446 28.6734C23.0948 28.6848 23.0102 28.6848 22.8593 28.8139C22.7007 28.9454 22.6463 28.9839 22.5737 28.9952V28.9952L22.573 28.9951Z" fill="#C39D3C"/>
<path fill-rule="evenodd" clip-rule="evenodd" d="M19.4209 30.0448C19.5077 29.984 19.6016 29.9342 19.7006 29.8965C20.0539 29.7562 20.4277 29.729 20.575 29.6837C20.7155 29.6389 20.8264 29.5771 21.0009 29.5432C20.9962 29.5829 20.9924 29.6203 20.9882 29.6555C20.4739 29.8172 19.9503 29.9472 19.4202 30.0448H19.4209Z" fill="#D2BA6B"/>
<path fill-rule="evenodd" clip-rule="evenodd" d="M25.9376 20.7514C25.9376 20.7514 25.8652 21.1433 25.736 21.3903C25.6068 21.6373 25.4672 21.9793 25.4672 21.9793C25.468 21.9022 25.4772 21.8255 25.4944 21.7503C25.3313 21.8455 24.9348 22.0744 24.8224 22.1762C24.7159 22.2714 24.5369 22.4391 24.4916 22.5184C24.5981 22.2058 24.709 21.9249 24.7273 21.7957C24.5642 21.9136 23.8029 22.5411 23.4066 22.9556L22.1719 23.9546C22.0294 24.0315 21.8827 24.1002 21.7324 24.1604C21.5196 24.2509 21.2681 24.328 21.0823 24.4006C21.1322 24.2669 21.2114 24.1489 21.3225 24.0357C21.4403 23.9248 21.7936 23.5419 21.848 23.3637C21.8978 23.178 21.9092 23.067 21.8435 22.9107C21.7823 22.9265 21.6419 22.9334 21.5468 22.9605C21.4516 22.9877 21.3496 23.0896 21.3496 23.0896C21.3496 23.0896 21.4221 22.675 21.5784 22.2832C21.4606 22.2876 21.259 22.3215 21.259 22.3215C21.259 22.3215 21.5399 21.8504 22.0206 21.522C21.8734 21.5533 21.7293 21.598 21.5902 21.6555C21.3093 21.7733 21.0012 21.9478 20.7725 22.0429C20.9015 21.8637 21.8076 20.5705 22.3469 19.3652C22.8845 18.1623 23.0853 17.8542 23.2032 17.2087C23.2642 16.8892 23.248 16.4172 23.2642 15.9944C23.2801 15.5753 23.3322 15.1992 23.2983 14.9478C23.4387 15.1222 23.9643 15.6138 23.9824 16.7126C23.9982 17.8112 23.4796 19.2951 22.929 20.0947C23.0634 20.1332 23.4116 20.1786 23.7694 19.5571C24.1272 18.9356 24.1229 18.762 24.2521 18.5037C24.2679 18.6329 24.2633 18.6781 24.2633 18.6781C24.2633 18.6781 24.7845 18.0461 25.0313 17.2509C25.0812 17.593 25.2284 17.8944 24.9973 18.5219C24.7912 19.0882 24.5216 19.2265 24.5216 19.2265C24.5216 19.2265 24.6553 19.2038 24.8522 19.0859C24.8863 19.1697 24.8796 19.2651 24.9362 19.2989C24.9928 19.3326 25.0698 19.3895 25.0812 19.4439C25.1423 19.3532 25.2374 19.2377 25.2669 19.1516C25.2442 19.3308 25.2284 20.1144 25.3117 20.5131C25.4863 20.4973 25.6652 20.4859 25.7875 20.171C25.7037 20.4792 25.7037 20.6648 25.7603 20.9277C25.8532 20.8643 25.937 20.751 25.937 20.751V20.751L25.9376 20.7514Z" fill="#C0993A"/>
<path fill-rule="evenodd" clip-rule="evenodd" d="M20.0515 8.26473C20.0515 8.26473 19.8771 8.33715 19.5804 8.33715C19.3222 8.33715 19.3946 8.23755 18.9914 8.23755C18.3708 8.23755 16.2028 8.59595 15.8221 8.59087C15.5751 8.58639 16.6557 8.69735 16.6557 8.69735L19.4173 8.73587L19.9722 8.69107L20.1785 8.27145L20.0515 8.26473Z" fill="#A88F33"/>
<path fill-rule="evenodd" clip-rule="evenodd" d="M12.8907 13.6631C12.8907 13.6631 12.5372 13.9326 12.3877 14.1389C12.2383 14.3451 12.159 14.4808 11.989 14.6485C12.0289 14.6501 12.0688 14.6447 12.1068 14.6327C12.1068 14.6327 12.1068 14.6775 12.0797 14.6893C12.1272 14.684 12.1746 14.7004 12.2087 14.7341C12.1588 14.7613 12.0229 14.8973 12.1294 15.0582C12.2087 15.1805 12.3764 15.1917 12.3764 15.1917C12.3764 15.1917 12.3379 15.3028 12.4987 15.2914C12.8453 15.2756 13.2327 15.1237 13.4116 15.1622C13.5908 15.207 13.6926 15.2235 13.8194 15.4433C13.9538 15.6607 14.0709 15.6948 14.0709 15.6948C14.0709 15.6948 14.1502 15.493 14.1321 15.1918C14.1971 15.0294 14.2332 14.8569 14.2386 14.6821L14.1207 13.8145L13.6066 13.1643L12.9406 13.5336L12.8907 13.6626V13.6631Z" fill="#E3C571"/>
<path fill-rule="evenodd" clip-rule="evenodd" d="M13.5227 13.5339C13.5227 13.5339 13.5726 13.6517 13.7811 13.6629C13.7584 13.7128 13.7584 13.7197 13.7652 13.7581C13.7697 13.7966 13.7764 13.8532 13.7764 13.8532C13.7994 13.8421 13.8201 13.8269 13.8376 13.8084C13.849 13.8583 13.8263 13.9374 13.8376 13.9942C13.8447 14.0287 13.856 14.0622 13.8715 14.0938C13.8749 14.086 13.8786 14.0785 13.8829 14.0712C13.8874 14.0599 13.9277 14.1935 14.0392 14.2952C14.0392 14.2796 14.043 14.2642 14.0504 14.2504C14.0522 14.2788 14.0616 14.3062 14.0776 14.3297C14.0693 14.3257 14.0617 14.3204 14.0551 14.3139C14.0551 14.3139 14.0663 14.6723 14.1275 14.8576C14.1377 14.8456 14.1468 14.8327 14.1547 14.8191C14.1547 14.8079 14.1502 14.9188 14.1389 14.9983C14.123 15.0776 14.1344 15.1885 14.1344 15.1885C14.1752 15.1564 14.2201 15.1297 14.2679 15.1092C14.3358 15.0819 14.4471 14.9981 14.5149 14.8124C14.5542 14.7072 14.5845 14.5988 14.6055 14.4885C14.6274 14.5306 14.6425 14.576 14.6503 14.6229C14.655 14.6795 14.7614 14.65 14.7614 14.65L14.7841 14.403L14.9185 13.8435L15.0408 13.4969L15.6298 12.5795L16.6939 11.76L17.6228 11.9729L18.4065 10.9082L17.0564 10.0972L15.7787 10.2308L14.6191 11.8369L13.6904 13.2936L13.5227 13.5338V13.5338L13.5227 13.5339Z" fill="#D8B65B"/>
<path fill-rule="evenodd" clip-rule="evenodd" d="M20.2146 11.2096C20.2146 11.2096 20.1353 11.2254 19.9065 11.344C19.6778 11.4626 19.5192 11.5002 19.4308 11.6746C19.3423 11.8491 19.3356 11.9873 19.3356 11.9873C19.3356 11.9873 19.492 11.9194 19.5826 11.8967C19.6778 11.8742 19.7842 11.8809 19.7729 11.9194C19.762 11.9458 19.7469 11.9703 19.7281 11.9918C19.7281 11.9918 19.9073 11.9873 19.9025 12.0758C19.8977 12.1642 19.8686 12.2615 19.8347 12.3045C19.8007 12.3493 19.6603 12.4156 19.6445 12.4678C19.6059 12.5742 19.6603 12.5787 19.6398 12.6647C19.624 12.7486 19.5493 12.9117 19.3046 13.1971C19.0531 13.4826 18.9462 13.6842 18.9462 13.6842C18.9462 13.6842 18.8239 13.4554 18.7604 13.2583C18.7156 13.2809 18.475 13.4145 18.475 13.4145L17.9177 11.4732L17.9289 11.344C17.9289 11.344 17.9788 11.2829 17.9901 11.1696C17.9064 11.1424 17.895 11.1197 17.7839 11.0134C17.6728 10.9071 17.5823 10.7777 17.3967 10.6893C17.3695 10.6395 17.3355 10.5717 17.1996 10.5443C17.0637 10.517 16.9821 10.4946 16.9821 10.4946C16.9821 10.4946 17.0546 10.4673 17.0886 10.4107C17.0047 10.422 16.9369 10.4492 16.7534 10.4447C16.5676 10.4401 16.5471 10.4334 16.4453 10.4492C16.3434 10.465 16.2213 10.5104 16.1757 10.3541C16.1259 10.3156 16.0194 10.3496 15.9287 10.4831C15.8381 10.6166 15.8064 10.7232 15.632 10.7754C15.6197 10.8522 15.5928 10.9261 15.5527 10.9928C15.5028 11.0767 15.4235 11.1605 15.3171 11.285C15.1494 11.4822 15.1765 11.8061 14.9092 12.0531C14.6397 12.2999 14.954 11.3688 14.954 11.3688L15.3844 10.3384L16.61 9.14001L18.513 9.01099L18.6987 9.99659L19.6276 10.316L20.2143 11.2108V11.2108L20.2146 11.2096Z" fill="#D3AE4D"/>
<path fill-rule="evenodd" clip-rule="evenodd" d="M20.516 11.4271L19.7163 10.2741L19.1568 9.8436C19.1568 9.8436 18.758 9.10977 18.7309 9.08708C18.7082 9.07125 18.3322 9.03048 18.092 9.01465L18.1368 9.1256C18.1892 9.14263 18.2358 9.17404 18.2712 9.21625C18.3777 9.33855 18.4456 9.56957 18.2033 9.81657C18.2984 9.85047 18.3377 9.86137 18.4207 9.85047C18.3369 9.95022 18.1467 10.1632 18.1353 10.3489C18.124 10.5007 18.2191 10.5459 18.2191 10.5459C18.2191 10.5459 18.0741 10.7136 18.0674 10.9939C18.1359 10.9167 18.2108 10.8454 18.2914 10.781C18.4591 10.6466 18.6901 10.4954 18.8465 10.4003C18.8443 10.4402 18.8497 10.4802 18.8623 10.5181C18.8623 10.5181 19.1544 10.278 19.3999 10.3845C19.5108 10.4344 19.461 10.5907 19.461 10.5907C19.461 10.5907 19.6128 10.5341 19.7193 10.6406C19.8258 10.7471 19.9775 11.0211 20.0546 11.1277C20.0885 11.1776 20.1769 11.2727 20.2674 11.4198C20.391 11.626 20.4943 11.8438 20.5756 12.07C20.5801 11.9794 20.5983 11.8526 20.7548 11.8526L20.5169 11.4267L20.516 11.4271Z" fill="#CAA13E"/>
<path fill-rule="evenodd" clip-rule="evenodd" d="M8.5276 14.7028C8.5276 14.7028 8.471 14.5623 8.5276 14.2883C8.58419 14.0143 8.6726 13.8851 8.70202 13.4819C8.73144 13.0787 8.99426 12.5757 8.99426 12.5757L9.72137 12.2451L10.2357 12.3855L10.3874 13.0742L9.73719 13.4326C9.73719 13.4326 9.7033 13.5843 9.51977 13.7066C9.33623 13.8289 9.08252 13.9241 9.02144 14.0488C8.98493 14.1251 8.95828 14.2058 8.94214 14.2889C8.94214 14.2889 8.75637 14.2504 8.64542 14.3727C8.5276 14.4974 8.53208 14.6083 8.5276 14.7034V14.7028Z" fill="#F4EFC8"/>
<path fill-rule="evenodd" clip-rule="evenodd" d="M9.99563 14.5193C9.99563 14.5193 9.93441 14.5579 9.88916 14.6537C9.84436 14.5813 9.73729 14.1508 9.73281 13.7634C9.72833 13.376 9.70518 13.28 9.79478 13.1465C9.88438 13.013 10.2358 12.8723 10.1859 12.6319C10.136 12.4031 9.92754 12.308 9.67158 12.3737C9.49238 12.4185 9.35902 12.7996 9.17325 12.9899C9.03273 13.1349 8.86518 13.1122 8.81993 13.1915C8.7587 13.2979 8.8153 13.4044 8.79723 13.4724C8.7926 13.4951 8.73601 13.6174 8.63401 13.7646C8.42793 14.0613 8.07909 14.4805 8.03369 14.8565C8.04952 14.6436 8.03832 14.6391 8.09492 14.4035L8.06087 14.3469L8.28487 13.6129L8.42987 13.0081L8.75393 11.9953L9.32468 10.9601L9.87975 10.3394L10.4574 10.3779L10.5253 11.2455L10.8561 12.8744L11.5515 13.7307L10.4369 14.4808L9.99518 14.5193V14.5193H9.99563Z" fill="#EBCC73"/>
<path fill-rule="evenodd" clip-rule="evenodd" d="M10.3422 14.8271C10.3422 14.8271 10.2471 14.8498 10.2131 14.8317C10.179 14.8137 10.1453 14.7932 10.1565 14.7705C10.1677 14.7478 10.2289 14.7094 10.2289 14.6912C10.2315 14.657 10.2064 14.6269 10.1723 14.6233C10.1202 14.6165 10.1043 14.6504 10.1043 14.6504C10.1043 14.6504 10.0545 14.6121 10.0139 14.6056C10.0379 14.6027 10.0621 14.6011 10.0863 14.601C10.0237 14.5727 9.95727 14.5536 9.88916 14.5444C9.94576 14.5105 10.0569 14.4108 10.1293 14.4108C10.2017 14.4108 10.2471 14.3996 10.2358 14.361C10.2244 14.3225 10.1678 14.2659 10.1067 14.2432C10.1293 14.216 10.1453 14.1753 10.0909 14.064C10.0342 13.953 10.0569 13.8782 10.0751 13.8512C10.0909 13.8172 10.1475 13.7561 10.1747 13.7176C10.2019 13.679 10.2246 13.6269 10.2698 13.5997C10.2925 13.5839 10.3649 13.5549 10.4375 13.5273C10.5168 13.5001 10.5825 13.4661 10.6278 13.5001C10.6776 13.534 10.6549 13.5794 10.6549 13.5794C10.6549 13.5794 10.8113 13.5227 10.9517 13.5952C11.0922 13.663 11.4343 13.7062 11.4343 13.7062L11.5569 13.9532L10.7459 14.6486L10.4106 14.8163L10.3427 14.8275V14.8275L10.3422 14.8271Z" fill="#E5C66B"/>
<path fill-rule="evenodd" clip-rule="evenodd" d="M11.468 13.6903C11.468 13.6903 11.2165 13.858 11.1599 13.9191C11.1938 13.9237 11.2504 13.9464 11.2277 13.9803C11.2005 14.0142 11.0375 14.132 10.9468 14.2431C10.8517 14.3541 10.761 14.4946 10.7294 14.5626C10.6955 14.6236 10.4371 14.8027 10.3489 14.8252C10.5346 14.8252 10.9084 14.5965 11.0488 14.5965C11.0443 14.6644 11.0873 14.7415 11.1666 14.7482C11.2459 14.7549 11.4747 14.7981 11.7828 14.6078C12.0908 14.422 11.989 14.2837 12.118 14.1933C12.365 14.03 12.4646 13.885 12.6005 13.7945C12.7364 13.704 12.8068 13.6834 12.8068 13.6834C12.8068 13.6834 12.8112 13.6155 12.8516 13.6224C12.874 13.6249 12.8933 13.6398 12.9014 13.6609C12.9014 13.6609 13.1371 13.4932 13.439 13.4479C13.432 13.4448 13.4264 13.4391 13.4232 13.4321C13.4232 13.4321 13.4458 13.4208 13.4504 13.4094C13.4504 13.4094 13.4662 13.3867 13.4776 13.3981C13.4889 13.4094 13.5047 13.4932 13.5274 13.5272C13.5773 13.5045 13.6724 13.2916 13.6724 13.2916L13.9014 12.6369V12.0388L13.7222 12.0729L12.3782 12.6436L11.5625 13.4887L11.4674 13.6903H11.468Z" fill="#E6BD62"/>
<path fill-rule="evenodd" clip-rule="evenodd" d="M15.3374 10.7565C15.4101 10.7388 15.4798 10.7106 15.5442 10.6725C15.517 10.7451 15.517 10.8244 15.3992 10.9966C15.2814 11.1688 15.2769 11.1937 15.1818 11.3726C15.0866 11.5584 15.0753 11.8257 14.9847 11.9434C15.0253 11.9236 15.0689 11.9107 15.1137 11.905C15.1137 11.905 15.0232 11.9843 14.9847 12.0681C14.9461 12.1518 14.8782 12.3263 14.7106 12.4329C14.5431 12.5395 14.33 12.6073 14.1012 12.8588C13.8723 13.1056 13.6368 13.4183 13.5188 13.5308C13.58 13.4243 13.6638 13.2114 13.6865 13.071C13.7092 12.9306 13.6819 12.7628 13.7204 12.5771C13.7589 12.3915 13.7589 12.2577 13.9444 11.9337C14.1299 11.6096 14.4474 10.4838 14.4474 10.4838L15.1314 10.2664L15.3377 10.7557V10.7557L15.3374 10.7565Z" fill="#B6933F"/>
<path fill-rule="evenodd" clip-rule="evenodd" d="M14.8433 10.3421C14.8433 10.3421 14.6372 10.6388 14.5806 10.9016C14.524 11.1645 14.576 11.1418 14.5421 11.2709C14.5218 11.3497 14.5218 11.4323 14.5421 11.5111C14.6134 11.3961 14.7112 11.2997 14.8271 11.23C15.022 11.1123 15.1806 11.0284 15.2751 10.9288C15.3703 10.8223 15.4496 10.6479 15.6556 10.5143C15.5719 10.5029 15.454 10.4644 15.4316 10.4695C15.5156 10.3743 15.7669 10.2293 16.0206 10.0549C16.2721 9.87571 16.2563 9.80343 16.6641 9.62453C16.5304 9.64722 16.467 9.61318 16.3559 9.62453C16.4007 9.5294 16.5575 9.484 16.7143 9.3278C16.8711 9.1716 16.6147 8.94043 16.6147 8.94043L15.42 9.66305L14.8424 10.3427L14.8433 10.3421Z" fill="#C49937"/>
<path fill-rule="evenodd" clip-rule="evenodd" d="M11.6018 9.80271L11.629 9.58528L11.9711 9.03708L12.3291 8.07433V6.7581L12.3019 5.99695L12.3585 5.49848L12.4015 5.34004L12.4469 5.27881L12.739 5.43053L13.1423 5.97873L13.1809 7.03676L12.7889 8.70631L11.6698 9.92741L11.6018 9.80271V9.80271Z" fill="#DFC068"/>
<path fill-rule="evenodd" clip-rule="evenodd" d="M12.4921 5.21777C12.4921 5.21777 12.3129 5.2224 12.2747 5.96773C12.2364 6.71305 12.2179 7.1049 12.1907 7.4742C12.1635 7.8435 12.1002 8.06765 12.0684 8.28523C12.0366 8.50281 12.0185 8.79938 11.9167 8.98067C11.8719 9.06445 11.7762 9.32728 11.5519 9.5244C11.3004 9.74183 10.9247 9.8937 10.8678 9.90505C10.768 9.9276 10.2628 9.97747 10.0568 10.0908C9.98433 10.1293 9.85964 10.1746 9.7215 10.3038C9.44733 10.5506 9.08265 10.9923 8.81983 11.5247C8.41663 12.3199 8.01343 14.5648 8.01343 14.5648L8.10407 14.4131C8.10407 14.4131 8.11542 14.2115 8.31702 13.8581C8.51414 13.5047 8.45754 13.1082 8.73157 12.4309C8.83805 12.1727 8.9717 11.8374 9.13477 11.5519C9.39312 11.0875 9.70567 10.6887 10.0206 10.4713C10.5348 10.118 11.1012 10.0409 11.1012 10.0409L11.7106 9.63774C11.7106 9.63774 11.8171 9.43166 11.9576 9.19601C12.1546 8.86539 12.4056 8.49609 12.4604 7.95923C12.5443 7.16403 12.3426 6.64301 12.3539 6.17186C12.3653 5.70072 12.3698 5.35411 12.4651 5.27019C12.5603 5.18626 12.4922 5.21807 12.4922 5.21807V5.21807L12.4921 5.21777Z" fill="#A88F33"/>
<path fill-rule="evenodd" clip-rule="evenodd" d="M12.492 8.77428C12.492 8.77428 12.7608 8.11274 12.8838 7.52601C12.9065 7.40818 12.9518 7.29051 12.9631 7.19538C13.0197 6.64031 13.0356 6.41153 12.9631 6.10794C12.9065 5.88394 12.6891 5.68204 12.5758 5.52554C12.4648 5.36232 12.4127 5.30154 12.4354 5.26719C12.4581 5.23284 12.5464 5.17669 12.6324 5.18341C12.8171 5.18879 12.9916 5.26977 13.115 5.40741C13.2894 5.60901 13.4276 6.29326 13.4276 6.29326L13.5729 7.19613L13.9422 8.3333L12.4923 8.77518V8.77518L12.492 8.77428Z" fill="#C99E3D"/>
<path fill-rule="evenodd" clip-rule="evenodd" d="M15.0177 8.08579C15.0177 8.08579 14.9678 8.10834 14.8773 8.08579C14.8852 8.16119 14.8502 8.23465 14.7867 8.27604C14.6916 8.23752 13.8011 8.31457 13.8011 8.31457C13.8011 8.31457 13.3865 8.242 13.2574 7.69379C13.1669 7.32897 13.3253 6.82617 13.2732 6.49539C13.1939 6.00827 13.0829 5.91299 13.0716 5.76142C13.0602 5.60985 13.0489 5.57117 13.0489 5.47604C12.999 5.4647 12.9696 5.44887 12.9199 5.44887C12.9085 5.40407 12.9311 5.36494 12.8813 5.28564C12.9085 5.29699 13.0943 5.31969 13.3117 5.52577C13.4909 5.69347 13.4909 5.75455 13.518 5.7886C13.5519 5.8225 13.826 6.0574 13.9439 6.29155C14.0617 6.52571 14.2905 7.27237 14.3426 7.39468C14.3584 7.44456 14.3925 7.49443 14.477 7.60763C14.6084 7.77085 14.8009 8.04069 15.0183 8.08549V8.08549L15.0177 8.08579Z" fill="#B58634"/>
<path fill-rule="evenodd" clip-rule="evenodd" d="M13.55 5.80005C13.6873 6.02174 13.8106 6.25176 13.9192 6.48877C14.0529 6.78998 14.1322 7.03698 14.2999 7.23858C14.2092 6.9759 14.0484 6.45936 13.9532 6.27583C13.8468 6.08169 13.6293 5.87262 13.55 5.8002V5.8002V5.80005Z" fill="#A88F33"/>
<path fill-rule="evenodd" clip-rule="evenodd" d="M12.0094 9.52432C12.0094 9.52432 11.7806 9.58092 11.3547 9.80522C11.2142 9.87764 11.0807 9.93872 10.9515 9.99547C10.616 10.1472 10.2561 10.2874 9.97058 10.3648C9.99328 10.3919 10.0045 10.4031 10.0045 10.4031C10.0045 10.4031 10.0045 10.5142 10.0657 10.5776C10.0318 10.6116 9.57858 10.9197 9.71238 11.9504C9.80288 11.9165 9.90935 11.8711 9.92518 11.8711C9.95251 11.8757 9.95923 11.9504 9.99313 11.9504C10.027 11.9504 10.1381 11.9056 10.256 11.7533C10.2515 11.8145 10.1835 12.4306 10.5482 12.8452C10.6161 12.7659 10.7883 12.5031 10.7883 12.5031L10.7928 12.4193C10.7928 12.4193 10.8086 12.127 10.9039 11.8597C10.9992 11.5924 11.1848 11.3953 11.1848 11.3953L12.1541 10.0111L12.0091 9.52417V9.52417L12.0094 9.52432Z" fill="#E6C367"/>
<path fill-rule="evenodd" clip-rule="evenodd" d="M11.1034 11.5569C11.0591 11.5882 11.0102 11.6126 10.9584 11.6293C10.9426 11.5727 10.9199 11.3778 11.0536 11.1876C11.2099 10.9586 11.5519 10.6619 11.647 10.426C11.7082 10.2741 11.6811 9.89359 12.2248 9.40646C12.7685 8.91934 12.9813 8.75179 12.9813 8.75179L13.8603 8.31006L14.9409 8.73596L14.404 10.8401L13.9872 11.8257L12.3296 11.5131L11.1033 11.5569V11.5569H11.1034Z" fill="#DCBA5A"/>
<path fill-rule="evenodd" clip-rule="evenodd" d="M11.7361 10.9854L11.9423 10.7272V10.5437C11.9423 10.5437 12.1711 10.4825 12.4179 10.231C12.6648 9.97951 13.0069 9.49701 13.3083 9.52643C13.6096 9.56048 13.639 10.1811 13.6504 10.3557C13.6617 10.5303 13.7003 10.9264 13.7613 11.1395C13.8293 11.3525 13.0274 12.1589 13.0274 12.1589L12.4828 12.5734L11.7361 10.9854V10.9854Z" fill="#E9CE77"/>
<path fill-rule="evenodd" clip-rule="evenodd" d="M12.3743 13.1351C12.3743 13.1351 12.542 12.8722 12.4191 12.8156C12.4915 12.6526 12.6251 12.4804 12.6251 12.4804C12.6251 12.4804 12.7203 12.2449 13.0283 11.9549C13.3364 11.6649 13.5268 11.4722 13.5767 11.2775C13.6074 11.1506 13.6242 11.0207 13.6266 10.8901C13.6599 10.9173 13.6955 10.9416 13.7331 10.9626C13.7829 10.9853 14.0184 11.18 13.9845 11.572C13.9506 11.964 13.8053 12.1271 13.8053 12.1271C13.8053 12.1271 13.665 12.2674 13.5654 12.34C13.4587 12.4124 13.4203 12.4962 13.2413 12.5031C13.2597 12.4885 13.2804 12.477 13.3025 12.469C13.3025 12.469 13.1168 12.4465 13.017 12.537C12.9172 12.6275 12.7052 12.9063 12.5987 12.9902C12.4922 13.0582 12.3747 13.1352 12.3747 13.1352V13.1352L12.3743 13.1351Z" fill="#CDAE50"/>
<path fill-rule="evenodd" clip-rule="evenodd" d="M19.9066 8.72896C19.6389 8.63141 19.3577 8.57639 19.073 8.56588C18.5972 8.55006 17.9018 8.57723 17.2199 8.58171C16.4859 8.58619 15.8199 8.33024 14.8957 8.28499C14.744 8.19434 14.3581 7.79786 13.1536 8.63831C13.226 8.63383 14.0281 8.45254 14.3066 8.80153C14.5875 9.14814 14.5082 9.73711 14.4698 9.87748C14.3972 10.1902 14.1616 10.6455 14.0666 10.9649C13.9716 11.2844 13.994 11.4522 13.9261 11.6762C13.8581 11.9002 13.7086 12.0115 13.7969 12.2697C13.9147 12.1972 13.9761 12.1972 14.1729 11.7555C14.3697 11.3138 14.3293 10.9988 14.6556 10.625C14.975 10.249 15.5068 9.73472 15.709 9.60554C15.9112 9.47637 17.5166 8.64279 19.1977 9.43799C19.6031 9.39498 19.9067 8.72881 19.9067 8.72881V8.72881L19.9066 8.72896Z" fill="#D2A83E"/>
<path fill-rule="evenodd" clip-rule="evenodd" d="M13.8309 8.42083C13.8292 8.4038 13.8254 8.38705 13.8197 8.37095C13.8039 8.33782 13.7833 8.30726 13.7584 8.2803C13.7584 8.2803 13.3597 8.20788 13.1581 8.23043C12.8046 8.26895 12.4852 8.7062 12.3357 8.9305C12.1862 9.1548 12.0005 9.50125 11.7989 9.6803C11.8011 9.66286 11.7971 9.6452 11.7875 9.63043C11.7875 9.63043 11.7989 9.64625 11.7763 9.66895C11.7538 9.69165 11.7536 9.70285 11.765 9.71375L11.799 9.74765C11.8102 9.74765 12.1229 9.60713 12.5488 9.21005C13.0019 8.7955 13.3485 8.58285 13.5298 8.50998C13.6265 8.46889 13.7275 8.43898 13.831 8.42083V8.42083H13.8309Z" fill="#C29637"/>
<path fill-rule="evenodd" clip-rule="evenodd" d="M21.5649 6.71753C21.5649 6.71753 21.4923 6.80803 21.4017 6.90778C21.2001 7.12073 20.9372 7.36071 20.7129 7.60771C20.5001 7.84335 20.26 8.02688 19.9903 8.33496C19.7206 8.64303 19.4079 8.98501 19.3288 9.08476C19.2563 9.18452 19.1997 9.34759 19.1997 9.43136C19.1612 9.40419 19.116 9.37477 19.116 9.37477C19.135 9.41033 19.1578 9.44377 19.1839 9.47452C19.2405 9.55382 19.3288 9.65372 19.3742 9.71465C19.4299 9.79221 19.4698 9.87993 19.4918 9.97285C19.519 9.97733 19.6934 10.0114 19.911 9.65342C20.1286 9.29547 20.4138 8.90362 20.4138 8.90362L20.8669 8.23072L21.1524 7.65997L21.5108 7.02112L21.5653 6.71753V6.71753H21.5649Z" fill="#AC8132"/>
<path fill-rule="evenodd" clip-rule="evenodd" d="M22.0293 6.25977C22.0293 6.25977 21.7552 6.48377 21.6487 6.61817C21.5422 6.75257 21.2903 7.10529 21.2903 7.10529L21.3809 7.09394L21.8409 6.68626L22.0201 6.36684L22.0292 6.26036L22.0293 6.25977Z" fill="#A88F33"/>
<path fill-rule="evenodd" clip-rule="evenodd" d="M21.9453 24.2627C21.9453 24.2627 21.9408 24.0769 22.045 23.9659C22.1515 23.8548 22.4211 23.6918 22.6839 23.0801C22.9467 22.4684 22.976 22.3303 22.976 22.3303C22.976 22.3303 22.5048 22.7335 22.2144 22.8286C22.2823 22.6881 22.3209 22.5885 22.3549 22.5159C22.3164 22.482 22.1533 22.4435 22.1375 22.4254C22.228 22.3348 22.2779 22.1127 22.4614 21.9655C22.697 21.7863 23.1274 21.4783 23.4619 21.2039C23.7964 20.9294 24.4541 20.291 24.538 20.1052C24.5879 20.1777 24.5991 20.2229 24.5991 20.2229C24.5991 20.2229 24.2685 20.6534 24.0963 20.9275C23.9444 21.1631 23.9558 21.2968 23.9558 21.2968L24.2685 21.1624C24.2685 21.1624 24.359 21.4976 23.949 22.0074C24.1282 21.9395 24.2005 21.9803 24.3024 21.9235C24.1347 22.0301 23.9036 22.1751 23.6862 22.5737C23.4733 22.9724 23.1833 23.4369 22.694 23.7267C22.2183 24.0325 21.9441 24.2613 21.9441 24.2613V24.2613L21.9453 24.2627Z" fill="#A67A2E"/>
<path fill-rule="evenodd" clip-rule="evenodd" d="M20.7175 8.96477C20.7175 8.96477 20.5318 9.35199 20.5046 9.65335C20.5001 9.72592 20.4819 9.78252 20.4819 9.8663C20.4774 10.1358 20.4977 10.4372 20.4371 10.5776C20.4144 10.521 20.403 10.4824 20.3803 10.4599C20.3464 10.555 20.2852 10.8517 20.2353 10.9627C20.2128 10.8903 20.1629 10.6388 20.1675 10.3421C20.1722 10.0453 20.1787 9.9886 20.1787 9.92752C20.1675 10.018 20.1063 10.1405 20.0836 10.2129C20.0497 10.1518 20.0112 10.0725 19.9658 10.0068C19.9386 10.0516 19.9047 10.1178 19.8753 10.1518C19.8707 10.1246 19.8595 10.0521 19.8526 9.95022C19.8481 9.8324 19.8413 9.68067 19.8481 9.64887C19.8593 9.58779 19.9546 9.34766 20.1562 9.12784C20.3963 8.86501 20.6433 8.35997 20.7157 8.20362C20.7882 8.04727 21.0963 7.39722 21.0963 7.39722H21.3319L20.9898 8.17644C20.9898 8.17644 20.7837 8.60234 20.6772 8.75884C20.5707 8.91534 20.3464 9.36379 20.2467 9.53821C20.3191 9.44308 20.3803 9.39321 20.4529 9.30256C20.5231 9.23909 20.7178 8.96507 20.7178 8.96507V8.96507L20.7175 8.96477Z" fill="#8C6228"/>
<path fill-rule="evenodd" clip-rule="evenodd" d="M22.0339 6.23022C21.9954 6.3487 21.9345 6.4587 21.8547 6.55428C21.7141 6.72198 21.4128 6.94613 21.2657 7.12503C21.1313 7.29945 20.8625 7.77523 20.9846 8.33926C21.0294 8.21696 21.1138 7.97459 21.3381 7.70041C21.5624 7.42624 21.8025 7.11144 21.9205 6.86683C22.0382 6.61984 22.054 6.4251 22.054 6.4251L22.0988 6.36851L22.0716 6.23933L22.0331 6.23022L22.0339 6.23022Z" fill="#CBA94C"/>
<path fill-rule="evenodd" clip-rule="evenodd" d="M26.6212 21.2566C26.6212 21.2566 26.5306 21.0098 26.5034 20.7855C26.4762 20.5612 26.5482 20.5167 26.4649 20.26C26.415 20.1036 26.3245 20.1256 26.3018 20.1036C26.2791 20.0817 26.2633 19.8454 26.2678 19.7163C26.2722 19.5871 26.2633 19.4195 26.2406 19.3469C26.2067 19.3198 26.184 19.2971 26.1341 19.1295C26.0775 18.9618 26.0503 18.878 26.0232 18.8283C25.996 18.7786 25.9165 18.7332 25.9165 18.6833C25.9165 18.5836 26.0072 18.5316 26.0072 18.5041C26.0027 18.4475 25.9348 18.4929 25.9165 18.4769C25.894 18.4498 25.9733 18.2867 25.9439 18.264C25.9325 18.2528 25.8532 18.3479 25.8328 18.3207C25.8101 18.2934 25.7829 18.0239 25.7421 17.845C25.7037 17.6705 25.6628 17.5437 25.6583 17.4916C25.6539 17.4418 25.3456 16.5628 25.271 16.3498C25.2108 16.1699 25.1602 15.9869 25.1192 15.8016C25.0965 15.6952 25.0807 15.4776 25.0694 15.5003C25.058 15.523 25.0649 15.6339 25.0467 15.6294C25.0308 15.6248 24.9742 15.2376 24.9562 15.1764C24.9403 15.1151 24.8451 14.9076 24.8218 14.7573C24.7991 14.6055 24.7493 14.209 24.7153 13.9394C24.6813 13.6699 24.6654 13.5589 24.6654 13.4914C24.671 13.3263 24.6619 13.1611 24.6382 12.9976C24.5934 12.7121 24.5038 12.3655 24.4253 12.164C24.2736 11.7834 23.8702 10.8093 23.7981 10.5669C23.7981 10.5057 23.8774 10.5397 23.8774 10.5397C23.8774 10.5397 24.0744 11.0336 24.2194 11.4141C24.3599 11.7947 24.4935 12.13 24.5276 12.164C24.5548 12.1979 24.7677 12.5717 24.8628 13.1834C24.958 13.795 24.9919 14.3591 25.0486 14.7351C25.0758 14.9143 25.0985 15.1044 25.1551 15.2946C25.2162 15.5009 25.3113 15.7138 25.436 16.04C25.5425 16.3141 25.6218 16.5429 25.6648 16.74C25.7146 16.9915 25.7146 17.1818 25.7441 17.3065C25.7714 17.4129 25.812 17.6257 25.9073 17.9337C26.0026 18.2416 26.1428 18.6382 26.2379 18.8851C26.4238 19.3789 26.5067 19.7912 26.5348 20.011C26.5596 20.2376 26.6435 21.0214 26.6208 21.2569V21.2569L26.6212 21.2566Z" fill="#A88F33"/>
<path fill-rule="evenodd" clip-rule="evenodd" d="M22.0453 6.20306L22.034 6.23024C22.034 6.23024 22.0679 6.24159 22.0611 6.28699C22.0616 6.3491 22.0578 6.41117 22.0498 6.47276C22.0386 6.55206 22.0159 6.61313 22.0114 6.66301C22.0114 6.76949 22.0272 6.89179 21.877 7.19538C21.8322 7.27916 21.8046 7.35159 21.7819 7.40146C21.7253 7.52377 21.7139 7.54199 21.6641 7.59858C21.7434 7.55378 22.0289 7.37458 22.1737 7.40146C22.0741 7.45806 21.9223 7.56917 21.8271 7.71417C21.8498 7.71865 21.945 7.73687 22.0959 7.71417C22.3474 7.67564 22.6283 7.585 22.8752 7.60306C23.1449 7.61889 23.0384 7.27916 23.0384 7.27916L22.7272 6.59506L22.1382 6.18066L22.0453 6.20321V6.20306Z" fill="#BE9C44"/>
<path fill-rule="evenodd" clip-rule="evenodd" d="M23.581 11.3276C23.581 11.3276 23.3182 11.0648 23.2117 10.1628C23.1052 9.25666 23.1279 7.92281 23.1279 7.92281L22.915 7.40179C22.915 7.40179 22.8702 7.05518 22.7586 6.92616C22.6471 6.79714 22.428 6.57956 22.3283 6.47308C22.2285 6.36661 22.1153 6.22161 22.0474 6.19891C22.0813 6.14231 22.2331 5.82289 22.8152 5.81841C23.3973 5.81393 23.5768 6.13783 23.6376 6.25565C23.6984 6.37348 23.9729 6.88285 24.0747 7.85352C24.1698 8.82299 24.1745 8.89557 24.1586 9.23082C24.1473 9.41659 24.0861 9.84697 23.9794 10.3068C23.8821 10.6965 23.7756 11.1315 23.5807 11.3285L23.581 11.3276Z" fill="#A17C34"/>
<path fill-rule="evenodd" clip-rule="evenodd" d="M22.7568 12.0999C22.8444 12.1063 22.9319 12.0865 23.0083 12.0432C23.0921 12.0387 23.3957 12.0772 23.6289 11.7805C23.6448 11.8483 23.6857 12.032 23.5791 12.1951C23.6358 12.1383 23.7196 12.1158 23.7309 12.0999C23.7354 12.1837 23.8147 12.4419 23.4794 13.0694C23.5699 12.9698 23.6764 12.9743 23.7715 12.9629C23.7762 13.0808 23.8395 13.4771 23.6719 13.6902C23.561 13.8352 23.3797 13.7898 23.3797 13.7898C23.3823 13.7581 23.3823 13.7263 23.3797 13.6947C23.3752 13.6334 23.3525 13.5724 23.3685 13.5316C23.2809 13.4916 23.2011 13.4363 23.1328 13.3684C22.9357 13.1826 22.6798 12.8656 22.6617 12.6299C22.639 12.3671 22.8746 12.3105 22.8746 12.3105C22.8549 12.2928 22.8381 12.2722 22.8248 12.2493C22.8134 12.2109 22.8021 12.1497 22.7568 12.0999V12.0999V12.0999Z" fill="#8C6228"/>
<path fill-rule="evenodd" clip-rule="evenodd" d="M21.0097 9.24997C21.0097 9.24997 20.9983 9.23414 20.9373 9.30656C20.9486 9.23414 20.96 9.16604 20.9644 9.10034C20.9933 9.0395 21.0308 8.98309 21.0755 8.93278C21.0415 9.00058 21.0188 9.06181 21.0188 9.06181C21.0188 9.06181 21.1027 8.90546 21.225 8.81033C21.3088 8.74238 21.4153 8.71072 21.4605 8.64726C21.5104 8.57931 21.499 8.56796 21.5104 8.55661C21.5104 8.55661 21.6215 8.48419 21.7914 8.27109C21.814 8.24391 21.848 8.21449 21.8707 8.18731C21.9091 8.17148 21.9998 8.13071 22.1062 8.07621C22.2173 8.01513 22.3419 7.93135 22.4189 7.89701C22.5707 7.82906 22.7316 7.83593 22.8063 7.72931C22.8629 7.71348 22.924 7.54354 22.9128 7.39868C22.9966 7.43258 23.4269 7.69989 23.5743 8.28438C23.6808 8.69893 23.4904 9.33778 23.4111 9.646C23.3318 9.95422 23.3206 10.1829 23.2095 10.3232C23.069 10.5091 22.6161 10.7712 22.505 10.901C22.4098 11.0075 22.1245 11.277 22.1357 11.4717C22.147 11.6168 22.3259 11.6957 22.3646 11.7232C22.4033 11.7507 22.403 11.7845 22.4755 11.768C22.5481 11.7516 22.5751 11.7181 22.6047 11.7181C22.6386 11.7226 22.6386 11.7295 22.6544 11.7295C22.6659 11.7292 22.6773 11.7276 22.6885 11.7249C22.6885 11.7249 22.6771 11.9311 22.1946 11.9937C22.1606 11.9983 22.1267 12.0095 22.0835 12.0164C22.1403 11.9892 22.1742 11.9892 22.2354 11.9054C22.1675 11.8941 21.9726 11.8827 21.9227 11.8669C21.9385 11.8397 21.9907 11.7671 22.0337 11.7332C22.0722 11.6993 22.0292 11.6884 21.9953 11.7061C21.9369 11.7458 21.8809 11.7888 21.8276 11.8351C21.771 11.885 21.7211 11.9529 21.6305 12.0143C21.6033 11.9236 21.6078 11.7515 21.7144 11.6269C21.6871 11.6314 21.6349 11.7107 21.5852 11.6949C21.5762 11.6122 21.5816 11.5287 21.601 11.4479C21.6282 11.3459 21.7755 11.167 21.7755 11.167L22.4867 9.89598L22.6385 8.93323L21.0097 9.24967V9.24967V9.24997Z" fill="#92723A"/>
<path fill-rule="evenodd" clip-rule="evenodd" d="M20.9712 9.30443C20.9712 9.30443 20.9327 9.3316 21.0097 9.38372C20.9984 9.39955 20.9712 9.45615 20.9372 9.49468C20.8988 9.53948 20.8579 9.56725 20.842 9.60578C20.8081 9.68508 20.781 9.73943 20.781 9.77348C20.781 9.80753 20.7696 10.025 20.6745 10.1653C20.6404 10.2152 20.6019 10.299 20.5747 10.3556C20.5181 10.4552 20.4683 10.5348 20.4569 10.5796C20.4344 10.6589 20.4185 10.8763 20.4185 10.8763C20.4185 10.8763 20.4684 10.8151 20.4865 10.7925C20.4591 10.8491 20.4297 10.9102 20.3867 10.9556C20.4139 10.9329 20.4932 10.8763 20.6268 10.7585C20.8126 10.6023 21.1026 10.3395 21.4561 10.1313C21.3495 10.1698 21.259 10.1698 21.1865 10.1812C21.2431 10.1246 21.7528 9.52648 22.0201 9.46989C22.0364 9.44931 22.0444 9.42347 22.0428 9.39731L21.8139 9.37476L21.3495 9.47437L21.2817 9.11597L20.9712 9.30398V9.30443Z" fill="#B18E3E"/>
<path fill-rule="evenodd" clip-rule="evenodd" d="M21.71 11.3433C21.71 11.3433 21.6488 11.4044 21.5922 11.5563C21.5486 11.5108 21.5113 11.4597 21.4811 11.4044C21.3973 11.264 21.2683 11.085 20.967 11.187C20.9625 11.0918 20.9556 11.042 20.967 10.974C21.0168 10.9628 21.1685 10.8405 21.3203 10.6615C21.4269 10.5391 21.5265 10.3986 21.5944 10.2197C21.6392 10.1857 21.7168 10.1291 21.8184 10.0634C21.9634 9.96377 22.1379 9.82772 22.165 9.676C22.0971 9.70318 21.9521 9.77113 21.7345 9.75993C21.8184 9.7214 21.9475 9.68063 21.9316 9.51293C21.9657 9.49023 21.9929 9.4744 21.9929 9.4744C21.9673 9.46588 21.9405 9.46204 21.9136 9.46305C21.9089 9.44722 21.9022 9.42467 21.8637 9.43587C21.8252 9.44707 21.8189 9.44722 21.8138 9.46305C21.798 9.46768 21.7459 9.46305 21.7073 9.49038C21.6688 9.51771 21.5623 9.60805 21.5216 9.62388C21.5374 9.5967 21.56 9.55609 21.56 9.55609C21.56 9.55609 21.449 9.56729 21.3697 9.60089C21.2247 9.65076 21.0571 9.74141 20.8872 9.82966C20.903 9.80249 20.9099 9.78486 20.9211 9.77979C20.9323 9.77471 20.9596 9.76859 20.9596 9.76396C20.9596 9.75933 20.9484 9.71916 20.9552 9.70288C21.006 9.59525 21.0659 9.49218 21.1344 9.39481C21.2136 9.28818 21.2295 9.13646 21.2295 9.13646L21.5761 8.96204L22.5502 8.73804L23.1823 8.77657L23.103 9.21381L22.7297 9.97721L22.4103 10.6727L22.0454 11.0987L21.7102 11.3433V11.3433H21.71Z" fill="#543E26"/>
<path fill-rule="evenodd" clip-rule="evenodd" d="M23.289 9.45114C23.289 9.45114 22.9083 9.92229 22.8019 9.99486C22.8698 9.84986 23.289 8.98671 23.4407 8.74658C23.4068 8.71941 23.3614 8.71941 23.4679 8.29858C23.3774 8.51138 23.3456 8.62249 23.2709 8.67909C23.1963 8.73568 23.187 8.71761 23.1365 8.71761C23.1461 8.70037 23.15 8.68059 23.1477 8.66102C23.1477 8.66102 22.8283 8.62249 22.6101 8.62249C22.3919 8.62249 21.9601 8.74031 21.7198 8.83544C21.5295 8.91473 21.4231 8.91473 21.3551 8.96446C21.2872 9.02106 21.2487 9.08229 21.2146 9.09811C21.1874 9.11394 21.0584 9.15471 21.0288 9.19772C21.0017 9.24252 20.9564 9.29285 20.9564 9.30419C20.9564 9.31554 20.9451 9.33152 20.9791 9.32002C20.9903 9.31554 21.0742 9.27015 21.1694 9.21355C21.2984 9.14112 21.4547 9.05735 21.5681 9.00747C21.892 8.8783 21.994 8.90099 22.1388 8.87382C22.2905 8.84664 22.5081 8.78317 22.653 8.78317C22.798 8.77869 23.0722 8.78317 23.1356 8.79452C23.1084 8.81722 23.0857 8.8444 23.0971 8.93952C23.0971 8.9667 23.0744 8.99612 23.0523 9.06183C22.9845 9.2476 22.8553 9.55567 22.7835 9.71202C22.6839 9.92482 22.5707 10.1039 22.5147 10.2148C22.4587 10.3258 22.3355 10.618 22.2135 10.7744C22.0915 10.9307 22.0277 11.0259 21.9895 11.0599C21.9513 11.094 21.6768 11.2954 21.6972 11.368C21.7471 11.3522 22.0621 11.2336 22.2907 10.9761C22.5193 10.7187 22.5649 10.5616 22.7438 10.4211C22.9227 10.2805 23.0632 10.045 23.147 9.85031C23.2172 9.66902 23.2013 9.61242 23.2896 9.45159V9.45159L23.289 9.45114Z" fill="#806031"/>
<path fill-rule="evenodd" clip-rule="evenodd" d="M15.086 12.9677C15.086 12.9677 15.0361 13.1738 14.9228 13.2757C14.8118 13.3755 14.6147 13.4615 14.5921 13.6292C14.5649 13.7968 14.7892 13.8807 14.7892 13.8807C14.7892 13.8807 14.6668 14.0823 14.6668 14.234C14.6668 14.3904 14.6623 14.4198 14.6781 14.5693C14.6602 14.5808 14.6449 14.5961 14.6333 14.6141C14.6333 14.6141 14.6445 14.7591 14.7556 14.8496C14.8668 14.9401 14.9617 14.9946 15.0183 14.9719C15.027 14.9903 15.0345 15.0093 15.041 15.0286C15.041 15.0286 15.1249 14.8157 15.1815 14.6299C15.2381 14.4397 15.288 14.4667 15.3106 14.2107C15.3331 13.9548 15.5794 13.5153 15.5794 13.5153L15.7474 13.1397L15.4733 12.9268L15.086 12.9675V12.9677Z" fill="#B6903C"/>
<path fill-rule="evenodd" clip-rule="evenodd" d="M15.5956 13.3369C15.5391 13.3949 15.4869 13.457 15.4395 13.5227C15.3671 13.6224 15.3105 13.7129 15.204 13.7516C15.0976 13.7903 15.0296 13.79 15.0363 13.8966C15.0431 14.0032 15.1428 14.0483 15.1994 14.1027C15.2606 14.1593 15.3105 14.2544 15.2833 14.361C15.3172 14.3452 15.3785 14.327 15.4351 14.2047C15.4917 14.0824 15.8875 13.3371 15.8875 13.3371H15.5956V13.3369Z" fill="#685026"/>
<path fill-rule="evenodd" clip-rule="evenodd" d="M17.157 11.6173C17.157 11.6173 17.1908 11.5268 17.157 11.4611C17.1229 11.3931 16.9168 11.3704 16.8148 11.2934C16.7084 11.2141 16.5792 11.159 16.4727 11.1938C16.4885 11.1552 16.552 11.0713 16.4999 11.0532C16.45 11.0374 16.2644 11.1212 16.2145 11.1597C16.1646 11.1982 16.0513 11.2435 16.0287 11.2708C16.0062 11.2981 15.9675 11.3501 15.9448 11.3274C15.9221 11.3116 15.9109 11.2708 15.8724 11.2934C15.8339 11.3159 15.6484 11.4678 15.6142 11.5562C15.58 11.6446 15.5031 11.8417 15.2721 12.0659C15.041 12.29 14.9413 12.4352 15.0092 12.5189C15.0772 12.6027 15.109 12.5416 15.1203 12.6141C15.1291 12.6852 15.1252 12.7572 15.109 12.827C15.0818 12.9448 15.0366 13.0558 15.0976 13.0785C15.254 13.1284 15.4059 13.0337 15.4398 13.0627C15.5077 13.1237 15.4012 13.3436 15.5621 13.3866C15.7253 13.4314 15.8861 13.348 15.8861 13.348L16.4796 13.0286L17.0505 12.7274L17.3426 12.1496L17.1859 11.6671L17.1561 11.6173H17.157Z" fill="#D4B968"/>
<path fill-rule="evenodd" clip-rule="evenodd" d="M16.5969 12.9972C16.5969 12.9972 16.4971 12.8454 16.6196 12.7116C16.7421 12.5778 16.9163 12.5214 16.9843 12.4376C16.9713 12.4217 16.954 12.4099 16.9344 12.4037C16.9795 12.323 17.0483 12.2581 17.1315 12.2178C17.0976 12.1839 17.0522 12.1567 17.0025 12.1567C16.8914 12.1567 16.8233 12.2247 16.7214 12.2247C16.6218 12.2247 16.6105 12.1748 16.6105 12.1748C16.6105 12.1748 16.7782 12.159 16.7622 12.0841C16.7464 12.0048 16.7174 12.0048 16.7174 12.0048C16.7174 12.0048 17.0413 11.8704 17.0979 11.7988C17.1545 11.7271 17.1478 11.6424 17.1591 11.6085C17.1975 11.6085 17.4218 11.4907 17.5125 11.5406C17.6031 11.5904 17.5396 11.7263 17.5396 11.7263C17.5396 11.7263 17.814 11.5201 17.9537 11.3179C18.076 11.3293 18.1329 11.2341 18.2225 11.2341C18.3336 11.2341 18.5081 11.3859 18.542 11.7098C18.5647 11.8955 18.5986 12.002 18.5647 12.3305C18.5488 12.5163 18.5533 12.9129 18.6095 13.1098C18.6478 13.2661 18.7385 13.2503 18.7385 13.2503C18.7246 13.2979 18.697 13.3404 18.6592 13.3726C18.598 13.4292 18.5912 13.5788 18.598 13.6354C18.607 13.6768 18.6184 13.7176 18.632 13.7577C18.632 13.7577 18.5596 13.8415 18.5414 13.8982C18.5255 13.9548 18.4509 13.9934 18.3964 13.9934C18.3419 13.9934 18.3692 13.9887 18.2968 13.9934C18.2243 13.998 18.2016 14.0092 18.1562 13.9934C18.1108 13.9775 18.0769 13.9593 18.0952 13.8142C18.111 13.6692 17.5356 13.3317 17.5356 13.3317L16.5948 12.9964V12.9964L16.5969 12.9972Z" fill="#CCA849"/>
<path fill-rule="evenodd" clip-rule="evenodd" d="M15.5164 14.4287C15.5164 14.4287 15.7225 14.7029 16.5698 14.7029C16.973 14.7029 17.1135 14.6644 17.197 14.6417C17.2876 14.619 17.6273 14.4855 17.9695 14.0821C18.2775 13.7174 18.2096 13.568 18.2096 13.568L18.0304 13.5408L17.448 13.6201L15.7247 14.354L15.5156 14.4287H15.5164Z" fill="#585136"/>
<path fill-rule="evenodd" clip-rule="evenodd" d="M16.1483 14.4967C16.1483 14.4967 15.4143 14.6599 15.4143 14.1955C15.4143 13.7424 15.8674 13.2666 15.9807 13.1829C16.0986 13.0989 16.3794 13.0037 16.3794 13.0037H17.0568L17.1858 13.3458L17.1292 14.0842L16.1483 14.4965V14.4967Z" fill="#252211"/>
<path fill-rule="evenodd" clip-rule="evenodd" d="M16.8258 13.1421C16.8258 13.1421 16.6854 13.0129 16.366 13.1869C16.0466 13.3608 15.7883 13.7245 15.7724 14.0547C15.7566 14.3467 16.0126 14.5643 16.4113 14.5757C16.708 14.5869 16.887 14.553 16.9777 14.5309C16.955 14.5037 16.8372 14.3565 16.8372 14.3565L16.826 13.1422V13.1422L16.8258 13.1421Z" fill="#C3B378"/>
<path fill-rule="evenodd" clip-rule="evenodd" d="M16.6876 13.2143C16.6876 13.2143 16.6537 13.1871 16.5532 13.2415C16.4694 13.2863 16.3471 13.4047 16.252 13.4885C16.1907 13.5384 16.1522 13.5609 16.1176 13.5994C15.9771 13.7671 15.8592 14.0413 15.9273 14.1772C15.9954 14.3131 16.2196 14.4695 16.7905 14.363L16.6859 13.2145V13.2145L16.6876 13.2143Z" fill="#E6D89C"/>
<path fill-rule="evenodd" clip-rule="evenodd" d="M16.5018 13.4954C16.5018 13.4954 16.4111 13.6359 16.4111 13.8602C16.4111 14.089 16.5403 14.4537 17.0161 14.4808C17.3807 14.5035 17.6254 13.9553 17.8904 13.7424C18.092 13.5793 18.2143 13.5747 18.2143 13.5747C18.2143 13.5747 18.0082 13.3507 17.4578 13.0605C16.9141 12.7683 16.3047 12.7298 15.9739 13.1783C16.1302 13.167 16.6354 13.0378 16.6354 13.0378L16.8824 13.1171L16.5018 13.4955V13.4955V13.4954Z" fill="#252211"/>
<path fill-rule="evenodd" clip-rule="evenodd" d="M17.213 13.7922C17.1972 13.7583 17.1858 13.7129 17.2515 13.7017C17.3172 13.6905 17.3467 13.697 17.3694 13.7465C17.3921 13.7959 17.4142 13.8371 17.3806 13.8576C17.3467 13.8756 17.2583 13.8576 17.2129 13.7919L17.213 13.7922ZM17.1066 13.4727C17.1066 13.4727 17.0839 13.4886 17.0952 13.4569C17.0997 13.4185 17.1293 13.3504 17.2017 13.3664C17.2741 13.3824 17.2584 13.4615 17.2465 13.4842C17.2345 13.5069 17.1741 13.5453 17.1287 13.529C17.117 13.526 17.1074 13.5177 17.103 13.5065C17.0985 13.4953 17.0996 13.4827 17.106 13.4724L17.1066 13.4727Z" fill="#6F674D"/>
<path fill-rule="evenodd" clip-rule="evenodd" d="M10.9746 13.6175C10.9746 13.6175 11.1538 13.7519 11.362 13.7467C11.5681 13.742 11.8331 13.5292 11.9554 13.3932C12.0279 13.3139 12.0898 13.2301 12.157 13.1644C12.2138 13.1078 12.2522 13.0806 12.2793 13.0421C12.3179 12.9973 12.3586 12.9131 12.3791 12.8857C12.3292 12.9243 12.2568 12.9924 12.182 13.0376C12.1095 13.0824 11.9532 13.1666 11.8897 13.1893C11.8286 13.212 11.1943 13.5477 11.1943 13.5477L10.9746 13.6175V13.6175Z" fill="#AC924C"/>
<path fill-rule="evenodd" clip-rule="evenodd" d="M11.2483 11.9436C11.2483 11.9436 11.3479 11.8756 11.5405 11.8325C11.7263 11.7877 12.1001 11.7532 12.1001 11.7532L12.4082 11.8876L12.5305 12.352L12.3065 12.8346L12.0211 13.0138L11.697 12.4928L11.249 11.9445V11.9445L11.2483 11.9436Z" fill="#9F8E57"/>
<path fill-rule="evenodd" clip-rule="evenodd" d="M10.8451 12.3581L10.7385 12.4377C10.7385 12.4377 10.7659 12.3878 10.7884 12.2361C10.811 12.0844 10.9289 11.7151 11.1011 11.5022C11.2733 11.2892 11.2688 11.3006 11.2688 11.3006C11.2368 11.2947 11.2037 11.3029 11.1782 11.3231C11.2009 11.2729 11.3459 11.0937 11.4909 11.0041C11.6359 10.9145 11.6925 10.8863 11.8442 10.9593C11.9959 11.0324 12.0344 11.0703 12.1455 11.0658C12.2566 11.0613 12.3516 10.9435 12.3516 10.9435C12.3516 10.9435 12.3743 11.0159 12.2905 11.1836C12.2068 11.3513 11.876 11.6933 11.876 11.6933L11.1873 12.1644L10.8451 12.3586V12.3586V12.3581Z" fill="#EAC970"/>
<path fill-rule="evenodd" clip-rule="evenodd" d="M11.3546 11.8871C11.3546 11.8871 11.8531 11.9551 12.0048 11.8147C12.0093 11.8305 12.0275 11.8305 12.0275 11.8419C12.0263 11.8504 12.0223 11.8583 12.0161 11.8644C12.0327 11.8618 12.0493 11.8603 12.066 11.8599C12.086 11.8659 12.1065 11.8697 12.1273 11.8713C12.144 11.8709 12.1606 11.8694 12.1771 11.8667C12.1739 11.8894 12.1617 11.9099 12.1431 11.9234C12.1658 11.9234 12.1879 11.9279 12.1879 11.9459C12.1879 11.964 12.1924 12.0185 12.1652 12.0299C12.1427 12.0361 12.1187 12.0345 12.0972 12.0252C12.099 12.0681 12.1107 12.11 12.1313 12.1477C12.1761 12.2315 12.2717 12.3269 12.4001 12.2994C12.4001 12.2994 12.4679 12.4625 12.1825 12.8249C12.1441 12.8748 12.1032 12.9427 12.0535 12.9993C12.0338 13.0422 12.0188 13.087 12.0087 13.133C12.0087 13.133 12.4913 12.9472 12.6295 12.5236C12.77 12.0977 12.7972 11.6786 12.77 11.2868C12.7654 11.1757 12.7473 11.0965 12.7201 11.0398C12.6522 10.8993 12.4618 10.922 12.3849 11.0013C12.2737 11.1124 12.088 11.3886 11.8298 11.5789C11.567 11.7691 11.5558 11.8029 11.354 11.8871V11.8871H11.3546Z" fill="#D7BC6B"/>
<path fill-rule="evenodd" clip-rule="evenodd" d="M10.7567 12.4988C10.7567 12.4988 10.6616 12.5554 10.6117 12.7676C10.5618 12.985 10.6565 13.2501 10.7113 13.3339C10.7661 13.4177 10.8905 13.6466 11.1486 13.6579C11.2124 13.6576 11.2756 13.6445 11.3343 13.6194C11.4244 13.5781 11.5089 13.5256 11.5858 13.4631C11.6969 13.3793 11.7874 13.3068 11.7761 13.3C11.7489 13.2886 11.092 12.7449 11.092 12.7449L10.845 12.4692L10.7566 12.4991L10.7567 12.4988Z" fill="#585136"/>
<path fill-rule="evenodd" clip-rule="evenodd" d="M11.3777 13.4003C11.3777 13.4003 11.5114 13.3891 11.5906 13.3392C11.6699 13.2893 11.1262 12.7502 11.1262 12.7502L11.1647 13.3326L11.3777 13.4003Z" fill="#453A25"/>
<path fill-rule="evenodd" clip-rule="evenodd" d="M10.7997 12.4578C10.7997 12.4578 10.7317 12.587 10.7317 12.621C10.7204 12.732 10.7544 13.0808 10.7816 13.1918C10.8088 13.3096 10.956 13.4885 11.1464 13.4885C11.2641 13.4885 11.4273 13.4161 11.4273 13.398C11.4273 13.3753 11.2596 13.3532 11.2144 13.2688C11.1872 13.224 11.1759 13.1126 11.1696 13C11.1651 12.9276 11.1651 12.8483 11.1923 12.8208C11.2535 12.7529 11.2647 12.558 11.2647 12.558L11.4821 12.1541H11.1962L10.854 12.367L10.7997 12.4578Z" fill="#84754B"/>
<path fill-rule="evenodd" clip-rule="evenodd" d="M10.7161 12.5824C10.7161 12.5824 10.9401 12.2857 11.142 12.2176C11.3439 12.1495 11.4342 12.1905 11.4342 12.1905L11.3164 12.4918L11.1487 12.6776L11.16 12.7727C11.16 12.7727 11.1327 13.0242 11.3004 13.1986C11.4681 13.373 11.5927 13.3663 11.6652 13.3663C11.7378 13.3663 11.9461 13.3051 12.0526 13.0536C12.1477 12.8181 12.227 12.516 12.0368 12.2131C11.8508 11.9118 11.5225 11.9001 11.459 11.9001C11.3955 11.9001 10.8972 11.9251 10.7161 12.582V12.582V12.5824Z" fill="#252211"/>
<path fill-rule="evenodd" clip-rule="evenodd" d="M16.4678 13.5906C16.384 13.552 16.4633 13.3165 16.5471 13.244C16.6309 13.1714 16.7373 13.0877 16.9232 13.0762C16.991 13.0718 17.0568 13.1148 17.0456 13.1602C17.0297 13.244 16.9119 13.3618 16.8054 13.4455C16.6582 13.5611 16.5629 13.6336 16.4678 13.5906Z" fill="#F7F7E7"/>
<path fill-rule="evenodd" clip-rule="evenodd" d="M11.937 12.3062C11.9982 12.3017 12.0775 12.351 12.0933 12.4173C12.1092 12.4897 12.0548 12.6347 11.937 12.6347C11.8419 12.6347 11.792 12.5169 11.792 12.483C11.7931 12.4551 11.8009 12.4279 11.8147 12.4037C11.8192 12.3968 11.8305 12.3175 11.937 12.3062V12.3062Z" fill="#F8F6DE"/>
<path fill-rule="evenodd" clip-rule="evenodd" d="M11.0534 12.3582C11.0534 12.3582 10.8971 12.4306 10.8246 12.5822C10.7729 12.6941 10.7572 12.8193 10.7798 12.9406C10.7912 12.9972 10.8478 13.1375 10.8863 13.1874C10.9249 13.2373 10.977 13.2713 11.0155 13.2667C11.054 13.2621 11.1332 13.1602 11.1332 13.0991C11.1332 13.0381 11.1378 12.7797 11.2125 12.6392C11.2782 12.4988 11.0539 12.3583 11.0539 12.3583V12.3583L11.0534 12.3582Z" fill="#D4C38B"/>
<path fill-rule="evenodd" clip-rule="evenodd" d="M11.0762 12.3468C11.049 12.3626 11.0037 12.3853 11.0149 12.4147C11.0263 12.4419 11.1214 12.4595 11.1555 12.5258C11.194 12.5938 11.194 12.6662 11.1826 12.7002C11.2122 12.6862 11.2391 12.667 11.2619 12.6435C11.3118 12.5869 11.3729 12.51 11.425 12.51C11.459 12.51 11.4929 12.5258 11.5248 12.5258C11.5746 12.5258 11.6244 12.51 11.6312 12.4579C11.6424 12.3899 11.5361 12.3287 11.4749 12.34C11.4862 12.2952 11.5021 12.2291 11.4522 12.1837C11.4023 12.1383 11.2461 12.2177 11.2121 12.2404C11.178 12.2631 11.0762 12.3469 11.0762 12.3469V12.3469V12.3468Z" fill="#E2D59D"/>
<path fill-rule="evenodd" clip-rule="evenodd" d="M14.6759 17.1063L15.0111 17.0073L15.1062 17.0753C15.1062 17.0753 15.174 17.2203 15.2807 17.2383C15.2466 17.3108 15.1582 17.3727 15.1628 17.4241C15.1675 17.4755 15.2127 17.5148 15.2127 17.5148C15.2127 17.5148 14.9114 18.0131 15.505 18.5153C15.3644 18.5719 15.1855 18.6497 15.0904 18.6945C15.1582 18.7103 15.3032 18.7393 15.3644 18.7942C15.4257 18.8492 15.4257 18.8667 15.4823 18.9007C15.5389 18.9348 15.5728 18.98 15.5616 19.0003C15.523 18.9776 15.3939 18.9098 15.3713 18.9731C15.3488 19.0365 14.8118 19.0117 14.8118 19.0117L13.9056 19.1861C13.9056 19.1861 13.9395 19.0955 13.8444 19.0117C13.7334 18.9121 13.5975 19.0162 13.4525 18.9052C13.2623 18.7602 13.2554 18.5925 13.1943 18.5292C13.2554 18.4907 13.3801 18.4341 13.6768 18.3948C13.6655 18.3721 13.627 18.3041 13.6497 18.2431C13.6768 18.1638 13.79 18.1139 13.7561 18.0191C13.806 18.0077 13.8286 18.0077 13.9532 17.8514C14.0711 17.695 14.1435 17.6611 14.2341 17.6498C14.3248 17.6384 14.3791 17.6498 14.5468 17.4934C14.6645 17.3824 14.6261 17.2873 14.6261 17.2873C14.6261 17.2873 14.703 17.2624 14.676 17.106V17.106L14.6759 17.1063Z" fill="#CBAC5A"/>
<path fill-rule="evenodd" clip-rule="evenodd" d="M13.6861 17.1569C13.6906 17.1342 13.7088 17.1228 13.8311 17.1342C13.9534 17.1455 14.7281 17.0617 14.9388 17.0504C15.1518 17.0346 15.9016 17.0458 16.2664 17.1228C16.6312 17.1999 17.0004 17.2905 17.1793 17.3358C17.3585 17.3856 17.4149 17.4036 17.4081 17.4263C17.4036 17.449 17.3633 17.4711 17.3401 17.4648C17.3176 17.4603 16.724 17.279 16.5406 17.2408C16.3572 17.2026 15.7227 17.1003 15.3758 17.1064C15.0519 17.111 14.9227 17.1019 14.6487 17.1336C14.3745 17.1676 13.9214 17.2129 13.7855 17.1948C13.6511 17.179 13.6789 17.179 13.6858 17.1563V17.1563L13.6861 17.1569Z" fill="#D6BC6F"/>
<path fill-rule="evenodd" clip-rule="evenodd" d="M15.5094 18.9324C15.5094 18.9324 15.9738 19.1839 16.1415 19.492C16.2639 19.7208 16.0691 19.8341 16.0691 19.8341C16.0691 19.8341 16.3319 19.8341 16.2979 19.9791C16.2821 20.0696 15.8448 20.3142 15.5526 20.4434C15.2559 20.5725 15.2672 20.5658 15.1222 20.5884C14.9817 20.6111 14.5965 20.5436 14.5172 20.6563C14.438 20.7691 14.4724 20.8853 14.4946 20.9033C14.5172 20.9192 14.7008 20.9419 14.7008 20.9419C14.7008 20.9419 14.6623 21.0483 14.2818 21.0597C13.9012 21.071 13.806 21.0981 13.7833 21.139C13.7606 21.1773 13.8557 21.1548 14.0303 21.1838C14.2047 21.2109 14.4493 21.2286 14.4493 21.2286C14.4493 21.2286 14.37 21.2965 14.1639 21.3509C13.9283 21.412 13.559 21.4687 13.448 21.5366C13.5046 21.5752 13.5885 21.6318 13.6272 21.6362C13.5321 21.6589 13.3983 21.7088 13.3757 21.7269C13.4096 21.7496 13.455 21.7768 13.455 21.7768C13.455 21.7768 13.2646 22.0056 13.1537 22.0623C13.0427 22.119 12.4039 22.4156 12.1841 22.359C11.6359 22.214 11.5679 21.6137 11.4343 21.5685C11.2327 21.5005 11.1375 21.6362 10.9585 21.5411C11.0378 21.4845 11.0809 21.4506 11.1647 21.4121C11.0741 21.3673 10.6052 21.07 10.6052 21.07C10.5561 20.9631 10.5017 20.8588 10.4421 20.7574C10.3514 20.6011 10.2181 20.3926 10.118 20.2091C9.90061 19.8059 9.88926 19.6201 9.69214 19.3913C9.72619 19.3465 9.84386 19.3528 9.84386 19.3528L11.4955 19.8965L14.4241 19.9813L15.1857 18.894L15.5096 18.9326L15.5094 18.9324Z" fill="#DFC677"/>
<path fill-rule="evenodd" clip-rule="evenodd" d="M11.1714 20.5905C11.1891 20.6102 11.2097 20.627 11.2325 20.6404C11.2892 20.6789 11.373 20.7243 11.4296 20.7921C11.4523 20.7582 11.5089 20.697 11.6088 20.7921C11.7087 20.8873 11.8328 20.8195 11.91 20.842C11.9893 20.8693 11.9938 20.8805 11.9938 20.8805C11.9938 20.8805 12.0386 20.842 12.1388 20.8013C12.2 20.7786 12.2724 20.7627 12.3517 20.7402C12.4241 20.7243 12.5034 20.7016 12.5579 20.7016C12.6078 20.7355 12.7867 20.9256 13.5049 20.645C14.1822 20.3822 14.3384 20.3528 14.4518 20.3934C14.4631 20.3662 14.4745 20.3141 14.6489 20.321C14.6489 20.2486 14.5039 20.0016 14.5039 20.0016L13.7042 19.7275H13.2668L11.9552 19.9677L11.2284 20.3824L11.1718 20.5914L11.1714 20.5905Z" fill="#C4A859"/>
<path fill-rule="evenodd" clip-rule="evenodd" d="M10.7341 20.1308C10.7341 20.1308 10.75 20.2531 10.9313 20.3822C11.1105 20.5113 11.1667 20.5883 11.1667 20.5883C11.1667 20.5883 11.2008 20.5435 11.228 20.4978C11.2552 20.448 11.2779 20.3914 11.3231 20.3755C11.4137 20.337 11.6198 20.4094 11.6652 20.3981C11.7038 20.3869 11.6924 20.3076 11.7332 20.3076C11.8283 20.303 11.8894 20.3687 11.9234 20.3687C11.9575 20.3687 12.0411 20.3642 12.0524 20.3461C12.0638 20.328 12.0683 20.1399 12.1974 20.0492C12.338 19.9496 12.5102 19.9926 12.5558 20.0153C12.5558 20.0492 12.5603 20.1332 12.651 20.1376C12.7416 20.1421 12.7506 20.1263 12.8302 20.1535C12.9098 20.1806 13.0046 20.149 13.0476 20.2825C13.0861 20.2713 13.1768 20.2599 13.1541 20.1308C13.1989 20.0969 13.238 20.0742 13.3333 19.9405C13.356 19.9066 13.3944 19.8681 13.4239 19.8182C13.5032 19.8182 13.5983 19.8024 13.7251 19.9133C13.6866 19.9405 13.6639 19.9581 13.6527 19.9858C13.6859 20.0186 13.7161 20.0542 13.7432 20.0922C13.7772 20.137 13.7999 20.192 13.843 20.2033C13.9381 20.2305 14.0944 20.192 14.2689 20.2033C14.4366 20.2147 14.5769 20.2758 14.6382 20.3143C14.6609 20.3031 14.6609 20.2985 14.7174 20.3098C14.774 20.3212 14.8171 20.3257 14.756 20.2532C14.7899 20.2691 14.8284 20.3031 14.8625 20.2691C14.8965 20.235 14.9235 20.1853 15.0187 20.1739C15.1138 20.1626 15.1478 20.1784 15.1864 20.0788C15.2362 19.9565 15.0641 19.9565 15.0641 19.9565C15.0641 19.9565 15.1433 19.8839 15.2318 19.7888C15.3382 19.6892 15.4605 19.56 15.4899 19.4014C15.5398 19.1092 15.2545 19.0708 15.2545 19.0708L13.8703 19.4967L12.178 19.4128L10.735 20.1309V20.1309L10.7341 20.1308Z" fill="#927D49"/>
<path fill-rule="evenodd" clip-rule="evenodd" d="M9.49047 16.1322C9.49047 16.1322 9.44567 16.1888 9.41804 16.3224C9.39041 16.4561 9.40221 16.4402 9.37951 16.5354C9.35681 16.6305 9.07801 17.5774 9.18254 17.8968C9.28708 18.2163 9.46807 18.3341 9.58126 18.5923C9.60396 18.6489 9.62606 18.6829 9.63786 18.7328C9.67639 18.9004 9.64249 19.0295 9.68774 19.1972C9.70357 19.2538 9.74448 19.3195 9.80556 19.3875C9.93996 19.5279 10.159 19.6615 10.2536 19.7566C10.3871 19.8972 10.5775 20.1827 10.8198 20.2097C10.949 20.2255 11.1325 20.1712 11.2843 20.0807C11.4187 19.9968 11.5017 19.8791 11.6427 19.8119C11.7423 19.762 11.8487 19.7439 11.9439 19.7212C12.141 19.6827 12.32 19.6764 12.4265 19.6985C12.5896 19.7326 12.9747 19.8504 13.1881 19.8504C13.3549 19.8477 13.5207 19.8249 13.682 19.7825C14.0059 19.6873 14.3977 19.5241 14.6561 19.4517C14.8078 19.4069 14.9301 19.3951 15.0548 19.3679C15.2677 19.318 15.4466 19.2501 15.5486 19.1209C15.4807 19.0416 15.3969 18.9193 14.9437 18.9238C14.4295 18.9351 13.8359 19.2205 13.5437 19.2659C13.2514 19.3113 13.1246 19.3497 12.7984 19.2319C12.4785 19.1129 12.4679 19.0342 12.4679 19.0342C12.4679 19.0342 12.132 18.7993 11.9915 18.2004C11.851 17.6016 11.9915 17.1653 12.3563 16.7506C12.4514 16.6441 12.4288 16.549 12.4288 16.549C12.4288 16.549 12.6689 16.225 12.6032 15.9218C12.5307 15.6204 12.0663 15.6816 12.0663 15.6816L9.49062 16.1322V16.1322H9.49047Z" fill="#6E6342"/>
<path fill-rule="evenodd" clip-rule="evenodd" d="M9.87783 17.1404C9.85786 17.1779 9.84846 17.2202 9.85065 17.2627C9.85513 17.3238 9.87335 17.4031 10.0567 17.5821C10.2131 17.7383 10.179 17.9127 10.179 17.9127C10.179 17.9127 10.2577 17.9286 10.4713 17.8287C10.639 17.7494 10.6953 17.8899 10.6953 17.8899C10.7441 17.8643 10.797 17.8474 10.8516 17.84C10.9011 17.8354 10.949 17.8202 10.992 17.7952C10.992 17.7952 11.1891 17.9968 11.3613 18.0919C11.5177 18.1759 11.6083 18.2325 11.6854 18.1759C11.7578 18.126 11.7578 18.024 11.7532 17.9787C11.7352 17.937 11.7124 17.8974 11.6854 17.8609C11.6355 17.7885 11.5562 17.7046 11.551 17.6369C11.5396 17.4807 11.6688 17.2948 11.6415 17.2495C11.6141 17.2043 11.5124 17.1929 11.261 17.2836C11.0005 17.3696 9.87679 17.1408 9.87679 17.1408V17.1408L9.87783 17.1404Z" fill="#39331F"/>
<path fill-rule="evenodd" clip-rule="evenodd" d="M10.4713 18.153C10.4713 18.153 10.3423 18.0307 10.3876 17.4371C10.4423 17.4363 10.497 17.4416 10.5506 17.4529C10.5506 17.4529 10.621 17.9129 10.4713 18.153Z" fill="#292311"/>
<path fill-rule="evenodd" clip-rule="evenodd" d="M9.55173 15.6792C9.56974 15.6659 9.58644 15.6509 9.60161 15.6344C9.55681 15.7182 9.34998 16.0534 9.51768 16.5813C9.68539 17.1068 10.1067 17.4987 10.6254 17.5169C11.1442 17.5351 11.4169 17.2812 11.7287 16.9007C11.851 16.749 11.9915 16.5586 12.1161 16.4296C12.3019 16.2278 12.4469 16.1712 12.4469 15.9765C12.4469 15.5778 12.039 15.3987 11.4387 15.2198C10.8384 15.0409 10.2969 15.063 10.016 15.1855C9.74198 15.319 9.62416 15.4595 9.55158 15.6793V15.6793L9.55173 15.6792Z" fill="#252211"/>
<path fill-rule="evenodd" clip-rule="evenodd" d="M11.4795 18.332L11.5243 18.3093C11.5243 18.3093 11.5355 18.1301 11.608 18.1349C11.6805 18.1462 11.7145 18.2415 11.7076 18.2754C11.7032 18.3093 11.6851 18.366 11.6125 18.3592C11.5174 18.3614 11.479 18.332 11.479 18.332H11.4795Z" fill="#3F3824"/>
<path fill-rule="evenodd" clip-rule="evenodd" d="M11.2778 17.5707C11.2778 17.5707 11.3226 17.5549 11.3774 17.6093C11.4222 17.6093 11.6176 17.5866 11.6788 17.6251C11.74 17.6636 11.7581 17.6975 11.7581 17.6975C11.7581 17.6975 11.5293 17.7474 11.4046 17.6975C11.2778 17.6545 11.2778 17.5707 11.2778 17.5707H11.2778Z" fill="#2D2815"/>
<path fill-rule="evenodd" clip-rule="evenodd" d="M12.2861 17.6047C12.2861 17.5934 12.1638 17.5096 12.0346 17.4823C12.0119 17.4778 12.0073 17.4936 11.9898 17.4936C11.9784 17.4891 11.974 17.4551 11.974 17.4551L11.9005 17.4938C11.9005 17.4938 11.8891 17.5096 11.9277 17.5386C11.9616 17.5657 12.0183 17.5884 12.0341 17.6337C12.05 17.6789 12.05 17.6948 12.0568 17.7016C12.0613 17.7061 12.1406 17.7016 12.1791 17.6789C12.2177 17.6562 12.2902 17.6192 12.2856 17.6043V17.6043L12.2861 17.6047Z" fill="#82764F"/>
<path fill-rule="evenodd" clip-rule="evenodd" d="M11.1418 18.0648C11.1418 18.0648 11.1644 17.9086 11.3163 17.9017C11.4725 17.8904 11.502 18.0421 11.502 18.0421L11.4114 18.1327C11.4114 18.1305 11.3434 18.0354 11.1426 18.0648H11.1418Z" fill="#2D2816"/>
<path fill-rule="evenodd" clip-rule="evenodd" d="M12.1275 17.3918C12.1275 17.3918 12.0435 17.4825 11.8579 17.5096C11.8421 17.4869 11.808 17.4417 11.8579 17.3693C11.9078 17.2968 11.9644 17.2741 12.021 17.2967C12.072 17.305 12.1135 17.3421 12.1275 17.3918Z" fill="#574F35"/>
<path fill-rule="evenodd" clip-rule="evenodd" d="M12.4693 17.5028C12.4739 17.4801 12.4581 17.4756 12.4693 17.4642C12.4805 17.4529 12.5419 17.4303 12.5532 17.4415C12.5577 17.4462 12.5532 17.4642 12.5532 17.4863C12.5532 17.5084 12.5532 17.5311 12.5419 17.5474C12.526 17.5701 12.4808 17.5815 12.4581 17.5748C12.4354 17.568 12.4309 17.5362 12.4309 17.53C12.4421 17.5255 12.4693 17.5141 12.4693 17.5028ZM12.8561 17.2582C12.8561 17.2468 12.8946 17.2241 12.9173 17.2241C12.9512 17.2241 12.9512 17.2513 12.9558 17.2582C12.967 17.2626 12.967 17.2535 12.9784 17.274C12.9897 17.2945 13.0057 17.3306 12.9942 17.3533C12.9827 17.376 12.9376 17.3917 12.9264 17.3872C12.9106 17.3758 12.8607 17.274 12.8561 17.2582V17.2582Z" fill="#82764F"/>
<path fill-rule="evenodd" clip-rule="evenodd" d="M12.0774 17.5551C12.0774 17.5551 12.1273 17.5663 12.1952 17.623C12.1725 17.6389 12.1385 17.6569 12.1385 17.6569C12.1385 17.6569 12.134 17.6048 12.0774 17.5549V17.5551Z" fill="#6E6342"/>
<path fill-rule="evenodd" clip-rule="evenodd" d="M11.9664 17.0565C11.955 17.0453 12.0003 17.0181 12.0275 17.0226C12.0546 17.0271 12.066 17.0453 12.0954 17.0498C12.1248 17.0543 12.1295 17.0384 12.1402 17.0271C12.151 17.0157 12.1901 17.0226 12.1968 17.0271C12.201 17.0321 12.2048 17.0374 12.2082 17.0429C12.2091 17.0255 12.2173 17.0093 12.2307 16.9981C12.2483 16.9852 12.2709 16.981 12.2919 16.9868C12.2964 17.0026 12.3191 17.0592 12.3146 17.0705C12.3102 17.0819 12.2422 17.0979 12.2307 17.0864C12.2421 17.1137 12.2919 17.1703 12.2987 17.1815C12.3054 17.1927 12.2488 17.22 12.2262 17.2155C12.1946 17.2133 11.9997 17.1 11.9658 17.057L11.9664 17.0565ZM12.2631 16.6805C12.2589 16.6691 12.2509 16.6595 12.2404 16.6533C12.2246 16.6489 12.1725 16.6533 12.1725 16.6805C12.1725 16.7077 12.2173 16.8597 12.2676 16.9389C12.3243 17.0182 12.3627 17.0837 12.4012 17.1019C12.4263 17.1134 12.456 17.1035 12.4692 17.0792C12.4737 17.0679 12.485 16.9841 12.4805 16.787C12.4761 16.5899 12.4692 16.3996 12.4578 16.3883C12.4465 16.3769 12.4012 16.3771 12.3854 16.3996C12.3696 16.4222 12.2676 16.6466 12.263 16.6805V16.6805H12.2631Z" fill="#585136"/>
<path fill-rule="evenodd" clip-rule="evenodd" d="M12.0615 17.8405C12.0615 17.8405 11.9822 17.7906 11.9052 17.8246C11.8327 17.8587 11.8372 17.9923 11.8372 17.9923C11.8703 18.0053 11.9076 18.001 11.937 17.981C11.9868 17.9471 12.0502 17.8905 12.0615 17.8406V17.8405Z" fill="#574F35"/>
<path fill-rule="evenodd" clip-rule="evenodd" d="M12.2111 18.0194C12.2066 17.9746 12.1663 17.9746 12.1663 17.9514C12.172 17.9286 12.1925 17.9127 12.216 17.9129C12.2387 17.9129 12.2608 17.9401 12.2886 17.9577C12.3157 17.9735 12.3565 18.0025 12.361 18.037C12.3655 18.0715 12.3162 18.166 12.2614 18.166C12.2066 18.166 12.2229 18.064 12.2115 18.0188L12.2111 18.0194ZM12.6482 17.9581C12.6482 17.9581 12.5576 17.9853 12.5643 17.9581C12.571 17.931 12.5916 17.9242 12.6211 17.9242C12.636 17.9086 12.6561 17.8989 12.6777 17.8969C12.69 17.8963 12.7021 17.9004 12.7116 17.9083C12.7116 17.9083 12.7728 17.8811 12.7909 17.8969C12.8089 17.9127 12.7955 17.9127 12.8067 17.931C12.8209 17.9512 12.8303 17.9744 12.834 17.9989C12.834 18.017 12.7661 18.0555 12.7116 18.0488C12.6482 18.0352 12.6594 17.9695 12.6482 17.9581V17.9581ZM13.1761 17.8561C13.1761 17.8561 13.2033 17.8719 13.1807 17.8901C13.1649 17.906 13.0856 17.9349 13.0175 17.94C12.9496 17.94 12.8885 17.9512 12.8885 17.9287C12.8885 17.9061 12.9451 17.8607 12.979 17.8494C12.9928 17.8321 13.0137 17.8221 13.0357 17.8222C13.0629 17.8222 13.1692 17.8109 13.1988 17.8064C13.226 17.8017 13.2487 17.8176 13.2327 17.8403C13.226 17.8561 13.1761 17.8561 13.1761 17.8561V17.8561ZM13.3324 17.1567C13.3324 17.1567 13.2983 17.2291 13.2599 17.2291C13.2214 17.2246 13.2214 17.2133 13.2214 17.2019C13.2214 17.1861 13.2599 17.1453 13.2553 17.134C13.2441 17.134 13.2168 17.134 13.2214 17.1068C13.2214 17.0841 13.2599 17.0569 13.2938 17.062C13.3195 17.0409 13.3513 17.029 13.3845 17.0281C13.423 17.0281 13.4569 17.0393 13.4569 17.062C13.4569 17.0847 13.4121 17.1344 13.3957 17.1459C13.3776 17.164 13.3549 17.1758 13.3324 17.1571V17.1567ZM12.8158 18.4954C12.8158 18.4954 12.771 18.5001 12.771 18.5226C12.771 18.534 12.7822 18.534 12.7982 18.5272C12.8074 18.5267 12.8165 18.5252 12.8254 18.5226C12.8299 18.5272 12.8299 18.5498 12.8639 18.5498C12.8919 18.546 12.9188 18.5368 12.9432 18.5226C12.9704 18.5114 12.9931 18.4999 12.9931 18.4778C12.9817 18.4393 12.959 18.4211 12.9251 18.4211C12.9078 18.42 12.8905 18.4239 12.8753 18.4324C12.8753 18.4324 12.8639 18.4097 12.8254 18.4324C12.7869 18.4551 12.7913 18.4551 12.8027 18.4665C12.823 18.4845 12.8163 18.4963 12.8163 18.4963L12.8158 18.4954ZM12.5598 18.7311C12.5598 18.7197 12.6164 18.697 12.6323 18.7039C12.6481 18.7084 12.6933 18.7944 12.6933 18.8035C12.6933 18.8149 12.6368 18.842 12.6141 18.842C12.5914 18.842 12.553 18.8035 12.553 18.7972C12.553 18.7928 12.5802 18.786 12.5802 18.7814C12.5869 18.7702 12.5598 18.7429 12.5598 18.7315V18.7311ZM12.3807 18.4003C12.392 18.3958 12.392 18.3845 12.4079 18.3731C12.4179 18.3664 12.4305 18.3648 12.4419 18.3686C12.45 18.3542 12.4641 18.3442 12.4804 18.3413C12.5076 18.3368 12.5303 18.3413 12.5252 18.3526C12.5252 18.3867 12.5479 18.4092 12.5479 18.4364C12.5479 18.4636 12.5321 18.4976 12.4755 18.5203C12.4189 18.5362 12.3418 18.5362 12.3305 18.5317C12.3191 18.5272 12.3078 18.4818 12.3191 18.4591C12.3305 18.4364 12.3622 18.4116 12.3804 18.4003V18.4003H12.3807Z" fill="#82764F"/>
<path fill-rule="evenodd" clip-rule="evenodd" d="M12.453 18.4158C12.453 18.4158 12.4145 18.4385 12.4145 18.4498C12.4111 18.4608 12.4095 18.4722 12.41 18.4837C12.41 18.4904 12.4599 18.4792 12.4666 18.4724C12.4688 18.4679 12.453 18.4276 12.453 18.4158Z" fill="#6E6342"/>
<path fill-rule="evenodd" clip-rule="evenodd" d="M12.1159 18.3092C12.1384 18.3138 12.1769 18.3092 12.2064 18.3206C12.2291 18.3319 12.2449 18.3546 12.2222 18.3818C12.1995 18.409 12.1774 18.4497 12.1271 18.4429C12.0705 18.4384 12.0161 18.409 12.0161 18.3863C12.0142 18.3573 12.024 18.3287 12.0433 18.307C12.066 18.2889 12.0772 18.3002 12.1157 18.3092V18.3092H12.1159Z" fill="#585136"/>
<path fill-rule="evenodd" clip-rule="evenodd" d="M12.0887 18.332C12.0887 18.332 12.0163 18.3886 11.9981 18.416C11.9754 18.4431 11.8644 18.5835 11.8305 18.6129C11.8418 18.5931 11.8546 18.5741 11.8689 18.5563C11.8241 18.585 11.7905 18.6282 11.7738 18.6786C11.7466 18.7626 11.9256 18.8078 12.0433 18.8419C12.161 18.8759 12.2065 18.8867 12.2065 18.8867C12.1632 18.8215 12.126 18.7526 12.0954 18.6806C12.0506 18.5741 12.0275 18.5628 12.0569 18.5129C12.0796 18.463 12.1136 18.4291 12.1136 18.3906C12.1001 18.3547 12.0887 18.332 12.0887 18.332Z" fill="#574F35"/>
<path fill-rule="evenodd" clip-rule="evenodd" d="M9.50616 18.5111C9.52265 18.5141 9.53955 18.5141 9.55604 18.5111C9.58993 18.5065 9.94341 18.3767 10.3127 18.4C10.5892 18.4167 10.8632 18.4618 11.1305 18.5344C11.5949 18.6567 12.1725 18.8991 12.5463 19.0374C12.6459 19.0757 12.7434 19.1438 12.8151 19.1709C13.1006 19.282 13.1118 19.282 13.2795 19.3114C13.4766 19.3386 13.6782 19.2729 13.8889 19.2276C14.1471 19.1709 14.5889 19.1437 14.9762 19.0871C15.1015 19.0697 15.225 19.0417 15.3455 19.0033C15.3455 19.0033 15.0375 19.3114 14.2989 19.4223C14.0003 19.4677 13.6969 19.4715 13.3973 19.4337C13.1617 19.411 13.0055 19.3769 12.8877 19.3431C12.754 19.3045 12.4798 19.2025 12.1423 19.1191C11.9067 19.0578 11.6439 19.0126 11.3427 18.956C10.5996 18.8199 9.79318 18.6637 9.50586 18.512L9.50616 18.5111Z" fill="#252211"/>
<path fill-rule="evenodd" clip-rule="evenodd" d="M8.67247 17.1111C8.49327 17.2628 8.30317 17.4078 8.11755 17.5482L7.558 17.9781C7.36775 18.1185 7.18198 18.2635 6.99158 18.404C6.80118 18.5445 6.61108 18.678 6.40918 18.8072C6.58838 18.6555 6.77848 18.515 6.96873 18.3768C7.15898 18.2387 7.35625 18.1033 7.53978 17.9632L8.09933 17.5327C8.29182 17.3923 8.47759 17.2473 8.67247 17.1114V17.1111ZM7.6826 18.6968C7.6826 18.6968 7.8842 18.5291 8.13567 18.2936C8.44823 18.0015 8.83112 17.6276 8.95342 17.5598L7.68245 18.697L7.6826 18.6968Z" fill="#CFB66C"/>
<path fill-rule="evenodd" clip-rule="evenodd" d="M7.68262 18.6967C7.78237 18.5971 7.88885 18.4998 7.99532 18.4045L8.15839 18.2641C8.20827 18.2193 8.26502 18.169 8.31474 18.1191C8.41435 18.0195 8.51186 17.9129 8.61147 17.811C8.66084 17.7598 8.71304 17.7114 8.76782 17.666C8.79521 17.6418 8.82563 17.6212 8.85832 17.6048C8.88565 17.589 8.91506 17.56 8.95344 17.5549C8.93089 17.589 8.90371 17.6048 8.88102 17.6342C8.85384 17.6569 8.83114 17.6841 8.80859 17.7067C8.75871 17.7565 8.70211 17.8018 8.65224 17.8472C8.54576 17.9378 8.43481 18.0264 8.32833 18.1212C8.22186 18.216 8.12225 18.3183 8.01563 18.4134C7.9002 18.511 7.79372 18.6061 7.68262 18.6972V18.6967ZM9.03731 17.7906C9.03731 17.7906 8.29886 18.5134 8.14699 18.631L9.03731 17.7906Z" fill="#CFB66C"/>
<path fill-rule="evenodd" clip-rule="evenodd" d="M9.0373 17.7905C8.97087 17.8674 8.89964 17.94 8.82405 18.008L8.60005 18.2209C8.52762 18.2933 8.45953 18.3659 8.38262 18.4383C8.30333 18.5063 8.2309 18.5727 8.14697 18.6355L8.3644 18.4225C8.43698 18.3501 8.51627 18.289 8.59333 18.2164L8.81076 18.0035C8.88543 17.9288 8.958 17.8562 9.0373 17.7905V17.7905ZM9.07116 18.1824C9.00309 18.3724 8.92288 18.5578 8.83103 18.7375C8.64078 19.1181 8.3554 19.5937 8.23071 19.8363L9.07116 18.1824Z" fill="#CFB66C"/>
<path fill-rule="evenodd" clip-rule="evenodd" d="M9.07136 18.1826C9.07136 18.2664 9.04866 18.339 9.02149 18.4114C8.99499 18.4839 8.96479 18.555 8.93099 18.6243C8.89694 18.6923 8.85841 18.7649 8.81989 18.8306C8.78136 18.8963 8.73611 18.9641 8.70206 19.0322L8.47328 19.4354C8.39399 19.5698 8.31693 19.7049 8.23315 19.8341C8.28975 19.6891 8.36681 19.5532 8.43938 19.4195C8.51868 19.2851 8.59111 19.1507 8.66338 19.0117C8.69867 18.9424 8.73042 18.8714 8.75851 18.7989C8.79241 18.7263 8.82631 18.6584 8.85363 18.5927C8.88753 18.5203 8.91471 18.4522 8.94876 18.3866C8.98714 18.3163 9.01895 18.2483 9.07106 18.1826H9.07136Z" fill="#CFB66C"/>
<path fill-rule="evenodd" clip-rule="evenodd" d="M9.87774 20.04C9.87774 20.04 9.65374 20.3368 9.67614 20.7128C9.73721 20.5158 9.81427 20.2145 9.87774 20.04ZM10.0907 20.3375C10.0907 20.3375 10.0114 21.1439 9.94573 21.5404C10.0386 21.0821 10.0567 21.1206 10.0907 20.3375ZM11.5744 21.5881C11.5744 21.5881 11.2392 22.5737 11.2323 22.8475C11.3049 22.5659 11.4452 21.9905 11.5744 21.5873V21.5881Z" fill="#DEC270"/>
<path fill-rule="evenodd" clip-rule="evenodd" d="M12.3584 19.9792C12.3584 19.9792 12.9021 20.8763 13.31 21.6419C13.1996 21.2566 12.9457 20.55 12.3584 19.9792Z" fill="#CBAF59"/>
<path fill-rule="evenodd" clip-rule="evenodd" d="M13.8196 21.2998C14.1181 21.8275 14.3873 22.3712 14.626 22.9286C14.5807 22.5434 14.4583 21.8843 13.8196 21.2998Z" fill="#E3C677"/>
<path fill-rule="evenodd" clip-rule="evenodd" d="M18.1147 22.6223C18.2052 22.5657 18.3842 22.2575 18.5406 22.1806C18.6968 22.1013 18.8146 22.0854 18.9551 21.9291C19.0955 21.7659 19.1343 21.6663 19.4421 21.5372C19.8727 21.3513 19.5765 21.1112 19.5765 21.1112C19.6239 21.0646 19.6746 21.0215 19.7282 20.9822C19.8393 20.8984 19.9684 20.7964 19.9572 20.6173C19.9413 20.3161 19.8847 19.8789 19.6377 19.6252C19.8779 19.5753 20.3377 19.5414 20.6233 19.469C20.954 19.385 21.1058 19.2672 21.1058 19.2672C21.1058 19.2672 20.9156 18.9433 21.2237 18.6172C21.5317 18.291 21.7832 18.0961 21.969 17.7313C21.756 17.7041 21.4314 17.5909 20.6029 17.9057C20.6476 17.9268 20.6908 17.951 20.7321 17.9782C20.7321 17.9782 20.2224 18.1187 20.0366 18.275C19.7126 18.5491 19.6718 18.7734 19.3207 18.9411C18.9696 19.1088 18.6162 19.0634 18.3241 19.1993C18.032 19.3352 17.9888 19.4507 17.8822 19.5006C17.9049 19.5278 17.8777 19.573 17.9207 19.6116C17.8935 19.6501 17.7349 19.9083 17.5741 19.9083C17.5899 19.9695 17.7258 20.0148 17.7258 20.0148C17.7258 20.0148 17.6262 20.0873 17.3725 20.1054C17.5015 20.2398 17.624 20.3863 17.9615 20.5993C17.9343 20.6559 17.821 20.7398 17.8664 20.8463C17.9162 20.9527 18.0456 21.0977 18.5618 21.2156C18.299 21.2268 17.991 21.288 17.5762 21.2314C17.1617 21.1815 17.0937 21.1521 16.8377 21.2156C16.8649 21.2427 16.9374 21.2427 17.0008 21.3152C16.9329 21.3196 16.507 21.2653 16.362 21.4557C16.2102 21.6527 16.1445 21.9767 16.1559 22.1941C16.0766 22.2327 15.9995 22.3006 16.0381 22.4411C16.0766 22.5817 16.2782 22.6269 16.4074 22.7152C16.5364 22.8103 16.5477 22.8442 16.6702 22.8216C16.7992 22.7945 16.9895 22.6654 17.1006 22.6654C17.2117 22.6654 17.2908 22.7492 17.2908 22.7492C17.2908 22.7492 17.5922 22.6042 17.6216 22.6314C17.6488 22.6586 17.6261 22.833 17.6555 22.8602C17.6854 22.8806 18.0248 22.679 18.1154 22.6223H18.1147Z" fill="#ECD592"/>
<path fill-rule="evenodd" clip-rule="evenodd" d="M24.7002 13.5566C23.2843 9.90028 19.7843 9.2229 19.7843 9.2229H9.79849L9.83702 12.9471H11.8257V21.2633H9.79834V24.9809H19.5078C21.8479 24.9809 23.7237 22.6293 23.7237 22.6293C26.7275 18.366 24.7 13.5566 24.7 13.5566H24.7002ZM19.56 20.1238C19.56 20.1238 18.7984 21.2226 17.9697 21.2226H16.3121L16.2729 12.9562H18.4001C18.4001 12.9562 19.3857 13.1623 20.0743 15.1128C20.0743 15.1128 20.9872 17.9053 19.56 20.1238V20.1238Z" fill="white" fill-opacity="0.8"/>
</svg>
