<svg width="85" height="46" viewBox="0 0 85 46" fill="none" xmlns="http://www.w3.org/2000/svg">
<path d="M46.5304 43.62C46.9896 43.5119 47.402 43.5908 47.8287 43.7493C51.3881 45.0729 55.0609 45.711 58.8636 45.659C63.3677 45.5974 67.8014 45.1804 72.0944 43.6766C74.3473 42.8882 76.5616 42.0261 78.6839 40.9341C78.9254 40.81 79.1851 40.542 79.4559 40.7381C79.8027 40.9884 79.5248 41.3307 79.4558 41.6228C79.2791 42.3688 79.03 43.0993 78.8973 43.8531C78.7975 44.4209 79.177 45.0365 79.5874 45.1395C80.1486 45.2816 80.3691 44.8485 80.6176 44.483C80.7314 44.3171 80.8429 44.1469 80.9408 43.9713C82.0433 41.9984 83.1353 40.0195 84.2481 38.051C84.6635 37.3142 84.7291 36.5915 84.2325 35.8879C83.7464 35.1983 83.0395 35.1503 82.2763 35.2895C79.6142 35.771 76.9496 36.2387 74.2857 36.719C73.9292 36.7832 73.5719 36.8698 73.2346 36.9969C72.8826 37.1299 72.5802 37.3629 72.6056 37.7928C72.6314 38.2337 72.971 38.4 73.3463 38.4666C73.7023 38.5304 74.0701 38.5288 74.4279 38.586C74.8099 38.6451 75.2262 38.5274 75.5995 38.7839C75.4216 39.1904 75.0395 39.2356 74.7234 39.3748C70.4227 41.2654 65.9114 42.2683 61.2294 42.4994C58.32 42.6431 55.4142 42.6409 52.559 41.9281C52.3107 41.8654 51.9646 41.9262 51.9024 41.4761C53.0964 40.6764 54.2515 39.8014 55.3438 38.8414C61.6072 33.3346 60.8763 24.1359 55.4401 19.4649C54.3016 18.4868 53.1415 17.5285 51.8117 16.8472C48.3414 15.0714 44.6822 14.6758 41.0137 16.0244C34.0549 18.5854 32.5995 26.8117 34.3087 31.4642C35.5974 34.9761 37.9605 37.7082 40.9016 39.9663C41.3711 40.3272 41.9324 40.5752 42.364 41.085C42.0672 41.3313 41.8587 41.3231 41.6612 41.3318C38.6921 41.4595 35.7649 41.172 32.9184 40.306C26.5212 38.358 20.8572 35.0614 15.8352 30.6902C12.528 27.8123 9.80961 24.3797 7.38673 20.7373C4.23611 15.9939 2.06981 10.8567 1.46716 5.13889C1.32112 3.75917 1.27825 2.39087 2.07942 1.15635C2.23274 0.920177 2.46731 0.661453 2.17189 0.416123C1.85425 0.152681 1.56716 0.382958 1.32138 0.605786C1.04552 0.854575 0.877753 1.17709 0.720813 1.50713C0.350995 2.2863 0.177874 3.11374 0.150318 3.96866C0.0234508 7.90951 0.790843 11.7018 2.34145 15.2991C5.79619 23.3069 10.852 30.1445 17.7688 35.4918C22.7017 39.3073 28.1228 42.2385 34.2877 43.5726C38.3584 44.455 42.4471 44.5868 46.5304 43.62ZM46.5748 39.7825C43.1409 38.0334 40.1608 35.787 38.0114 32.5045C35.6941 28.9663 36.0199 23.789 38.8615 20.7016C40.4535 18.9722 42.477 18.1382 44.7813 18.0735C47.2996 18.0034 49.6608 18.5873 51.7212 20.14C53.3448 21.364 54.853 22.6846 55.7856 24.5449C56.1878 25.3477 56.4336 26.1944 56.5332 26.9395C57.2236 30.5939 56.3266 33.6278 53.7726 36.1546C52.2374 37.6731 50.5166 38.9155 48.54 39.7995C47.8735 40.0981 47.2547 40.1275 46.5748 39.7825Z" fill="#E6E8EC"/>
</svg>
