<svg width="24" height="24" viewBox="0 0 24 24" fill="none" xmlns="http://www.w3.org/2000/svg">
<path opacity="0.2" fill-rule="evenodd" clip-rule="evenodd" d="M12 24C5.4 24 0 18.6001 0 11.9402C0.06 5.34038 5.4 -0.0595036 12.06 0.000495204C18.66 0.060494 24 5.40038 24 12.1202C23.94 18.6601 18.6 24 12 24" fill="#FC070C"/>
<path fill-rule="evenodd" clip-rule="evenodd" d="M18.8682 8.78748L18.8682 8.78747L18.8682 8.78746C18.3607 8.29473 17.8244 7.77408 17.3512 7.35403L17.3032 7.32047C17.2235 7.25641 17.1335 7.20618 17.0372 7.17185L16.6719 7.1037C14.1515 6.63343 5.98241 5.10916 5.81436 5.1296C5.76466 5.13656 5.71715 5.15458 5.67534 5.18233L5.62979 5.21829C5.57371 5.27524 5.53112 5.34405 5.50515 5.41964L5.49316 5.4508V5.62099V5.64735C6.04779 7.19172 7.48853 10.6407 8.81883 13.8252L8.81884 13.8252C9.94353 16.5176 10.9893 19.0209 11.3539 20.0246L11.354 20.025C11.402 20.1738 11.493 20.4561 11.6631 20.4705H11.7014C11.7925 20.4705 12.1808 19.9575 12.1808 19.9575C12.1808 19.9575 19.1226 11.5392 19.8249 10.6427C19.9158 10.5323 19.9961 10.4135 20.0646 10.288C20.1002 10.0882 20.0283 9.88432 19.8752 9.75104C19.5762 9.47493 19.2295 9.1383 18.8682 8.78752L18.8682 8.78749L18.8682 8.78748ZM13.9619 10.7314L16.9246 8.27444L18.6625 9.87565L13.9619 10.7314ZM7.71019 6.39042L12.811 10.5708L15.9631 7.91253L7.71019 6.39042ZM13.271 11.6662L18.4917 10.8249L12.5231 18.0159L13.271 11.6662ZM12.3845 11.3618L7.01764 6.80744L11.6079 18.0207L12.3845 11.3618Z" fill="#FC070C"/>
</svg>
